<?xml version="1.0" encoding="UTF-8" standalone="no"?>
<svg
   xmlns:dc="http://purl.org/dc/elements/1.1/"
   xmlns:cc="http://creativecommons.org/ns#"
   xmlns:rdf="http://www.w3.org/1999/02/22-rdf-syntax-ns#"
   xmlns:svg="http://www.w3.org/2000/svg"
   xmlns="http://www.w3.org/2000/svg"
   xmlns:sodipodi="http://sodipodi.sourceforge.net/DTD/sodipodi-0.dtd"
   xmlns:inkscape="http://www.inkscape.org/namespaces/inkscape"
   inkscape:export-ydpi="87.051102"
   inkscape:export-xdpi="87.051102"
   inkscape:export-filename="C:\Users\me\OneDrive\Projects\MachineLearningList\website\assets\img\ANIMALS.png"
   inkscape:version="1.0 (4035a4fb49, 2020-05-01)"
   sodipodi:docname="brown.svg"
   id="svg914"
   xml:space="preserve"
   enable-background="new 0 0 1686 1462"
   viewBox="0 0 1700 300"
   height="300"
   width="1700"
   y="0px"
   x="0px"
   version="1.0"><metadata
   id="metadata920"><rdf:RDF><cc:Work
       rdf:about=""><dc:format>image/svg+xml</dc:format><dc:type
         rdf:resource="http://purl.org/dc/dcmitype/StillImage" /><dc:title /></cc:Work></rdf:RDF></metadata><defs
   id="defs918">
	
	

	
		
		
		
		
		
		
		
		
		
		
		
		
		
		
		
		
		
		
		
		
		
		
		
		
		
		
		
		
		
		
		
		
		
		
		
		
		
		
		
		
		
		
		
		
		
		
		
		
		
		
		
		
		
		
		
		
		
		
		
		
		
		
		
		
		
		
		
		
		
		
		
		
		
		
		
		
		
		
		
		
		
		
		
		
		
		
		
		
		
		
		
		
		
		
		
		
		
		
		
		
		
		
		
		
		
		
		
		
		
		
		
		
		
		
		
		
		
		
		
		
		
		
		
		
		
		
		
		
		
		
		
		
		
		
		
		
		
		
		
		
		
		
		
		
		
		
		
		
		
		
		
		
		
		
		
		
		
		
		
		
		
		
		
		
		
		
		
		
		
		
		
		
		
		
		
		
		
		
		
		
		
		
		
		
		
		
		
		
		
		
		
		
		
		
		
		
		
		
		
		
		
		
		
		
		
		
		
		
		
		
		
		
		
		
		
		
		
		
		
		
		
		
		
		
		
		
		
		
		
		
		
		
		
		
		
		
		
		
		
		
		
		
		
		
		
		
		
		
		
		
		
		
		
		
		
		
		
		
		
		
		
		
		
		
		
		
		
		
		
		
		
		
		
		
		
		
		
		
		
		
		
		
		
		
		
		
		
		
		
		
		
		
		
		
		
		
		
		
		
		
		
		
		
		
		
		
		
		
		
		
		
		
		
		
		
		
		
		
		
		
		
		
		
		
		
		
		
		
		
		
		
		
		
		
		
		
		
		
		
		
		
		
		
		
		
		
		
		
		
		
		
		
		
		
		
		
		
		
		
		
		
		
		
		
		
		
		
		
		
		
		
		
		
		
		
		
		
		
		
		
		
		
		
		
		
		
		
		
		
		
		
		
		
		
		
		
		
		
		
		
		
		
		
		
		
		
		
		
		
		
		
		
		
		
		
		
		
		
		
		
		
		
		
		
		
		
		
		
		
		
		
		
		
		
		
		
		
		
		
		
		
		
		
		
		
		
		
		
		
		
		
		
		
		
	</defs><sodipodi:namedview
   inkscape:current-layer="svg914"
   inkscape:window-maximized="1"
   inkscape:window-y="-11"
   inkscape:window-x="-11"
   inkscape:cy="-52.932848"
   inkscape:cx="723.29596"
   inkscape:zoom="0.54719562"
   fit-margin-bottom="0"
   fit-margin-right="0"
   fit-margin-left="0"
   fit-margin-top="0"
   showgrid="false"
   id="namedview916"
   inkscape:window-height="986"
   inkscape:window-width="1920"
   inkscape:pageshadow="2"
   inkscape:pageopacity="0"
   guidetolerance="10"
   gridtolerance="10"
   objecttolerance="10"
   borderopacity="1"
   bordercolor="#666666"
   pagecolor="#ffffff"
   inkscape:document-rotation="0" />
<g
   style="stroke-width:0.55427"
   transform="matrix(1.804176,0,0,1.804176,979.10185,-561.86207)"
   id="g2935"><path
     style="stroke-width:0.364001"
     fill-rule="evenodd"
     clip-rule="evenodd"
     fill="#e7795a"
     d="m 247.72959,118.34571 v 0.58 c -1,10.34 -3.17,19.99 -14.76,19.26 -0.771,-0.05 -1.65,-0.35 -2.32,-0.74 -4.77,-2.85 -7.31,-11.38 -4.8,-16.42 0.53,-1.07 0.88,-2.19 0.88,-3.26 v -2.31 c 0,0.75 0,1.5 0.18,2.24 0.011,0.02 0.011,0.05 0.021,0.07 0.84,3.54 2.72,6.85 5.399,8.45 0.7,0.41 1.5,0.73 2.301,0.78 4.5,0.29 9.93,-3.55 12.77,-8.07 0,-0.01 0.01,-0.03 0.021,-0.04 0.108,-0.18 0.218,-0.36 0.308,-0.54 z"
     id="path50" /><path
     style="stroke-width:0.364001"
     fill-rule="evenodd"
     clip-rule="evenodd"
     fill="#e7795a"
     d="m 222.58959,456.56571 c -14.29,3 -26.78,-1.19 -37.341,-10.78 -17.67,-16.04 -30.14,-36.04 -40.189,-57.3 -9.19,-19.42 -17.26,-39.5 -20.59,-60.98 -2.53,-16.3 -4.59,-32.68 -6.42,-45.85 1.84,-18.02 3.63,-32.66 4.76,-47.35 1.36,-17.621 1.87,-35.311 3.3,-52.92 1.271,-15.77 2.32,-31.55 6.64,-46.99 2.221,-7.94 2.271,-16.48 3.431,-24.74 1.26,-9 5.18,-16.99 9.979,-24.52 0.62,-0.99 3.58,-1.55 4.73,-0.93 3.1,1.65 6.78,3.46 8.49,6.27 4.449,7.26 8.42,14.91 11.75,22.76 4.279,10.08 12.34,11.48 20.729,10.8 3.04,-0.24 6.07,-0.69 9.101,-0.71 8.43,-0.05 14.369,-7.07 13.239,-15.44 -0.29,-2.14 -0.13,-5.81 1.011,-6.37 2.649,-1.32 6.149,-1.92 9.079,-1.43 3.681,0.62 5.08,5.13 3.23,8.86 -0.92,1.86 -1.79,4.16 -0.79,6.5 -1,-1.46 -1.86,-2.57 -3.52,-2.85 -2.79,-0.46 -6.221,0.11 -8.73,1.36 -1.08,0.53 -1.28,4.02 -1.01,6.06 1.99,14.76 -17.141,17 -27.811,15.73 -8.779,-1.05 -12.26,-8.69 -15.62,-15.93 -3.01,-6.47 -7.34,-20.13 -15.859,-21.35 -8.48,-1.22 -11.53,10.69 -12.95,16.81 -11.1,47.98 -15.78,99.78 -15.15,148.98 0.53,40.62 2.601,84.16 19.98,121.57 9.21,19.82 23.57,40.689 39.84,55.46 7.521,6.84 17.25,11.45 27.57,11.22 6.99,-0.15 15.02,-3.119 14.76,-10.189 0.25,0.5 0.48,1.01 0.71,1.51 2.941,6.539 0.591,11.278 -6.349,12.739 z"
     id="path52" /><path
     style="stroke-width:0.364001"
     fill-rule="evenodd"
     clip-rule="evenodd"
     fill="#e7795a"
     d="m 340.32959,382.96671 c -1.569,9.559 -3.06,19.25 -5.92,28.479 -4.79,15.46 -14.529,28.079 -26.239,38.979 -8.98,8.36 -26.33,6.59 -34.61,-2.789 -2.59,-2.931 -2.69,-6.211 -0.39,-9.121 0.989,-1.25 2.04,-2.449 3.119,-3.64 -1.899,3.511 -2.88,7.16 -0.81,10.181 2.64,3.859 7.33,8.369 12.17,8.91 6.08,0.68 11.11,-4.441 15.17,-8.221 7.99,-7.439 15.12,-15.859 20.2,-25.561 13.479,-25.699 12.21,-54.189 9.56,-82.08 -2.55,-26.77 -5.699,-53.469 -9.05,-80.149 -1.25,-9.899 -2.39,-19.91 -4.54,-29.67 -5.13,-23.32 -15.04,-44.99 -15.17,-69.28 -0.1,-18.64 -5.88,-35.6 -19.3,-49.35 -5.92,-6.07 -23.41,-21.16 -31.91,-10.56 -0.31,0.38 -0.58,0.79 -0.84,1.24 0,0.01 0.16,0.01 0.16,0.02 -0.11,0.2 -0.22,0.4 -0.32,0.62 0.04,-0.21 0.08,-0.41 0.12,-0.62 0,-0.01 0,-0.01 0,-0.02 0,-2.33 0.64,-4.66 1.03,-6.97 1.67,-9.85 5.71,-12.31 15.58,-9.99 8.479,2 14.67,7.51 20.58,13.56 14.109,14.47 20.199,32.3 20.3,51.91 0.1,17.87 4.31,34.5 10.149,51.14 3.471,9.91 5.771,20.36 7.391,30.75 3.42,22.1 6.22,44.31 8.97,66.5 2.57,20.83 5.18,41.67 6.86,62.58 0.62,7.611 -1.01,15.492 -2.26,23.152 z"
     id="path54" /><path
     style="stroke-width:0.364001"
     fill-rule="evenodd"
     clip-rule="evenodd"
     fill="none"
     d="m 152.00959,319.63671 c 0.25,-0.111 0.5,-0.261 0.77,-0.42 -0.28,0.138 -0.54,0.279 -0.77,0.42 z m 113.61,57.099 c -0.06,0.01 -0.109,0.02 -0.17,0.029 -0.88,0.84 -1.739,1.83 -1.88,2.851 -0.14,1.04 0.05,1.81 0.45,2.38 0.86,1.27 2.729,1.609 4.33,1.99 0.96,-0.461 1.7,-1.061 1.91,-1.891 0.79,-3.099 -1.9,-5.708 -4.64,-5.359 z m 38.65,-52.19 c 0.78,0.25 2.27,0.88 2.71,1.181 -0.53,-0.561 -1.43,-0.952 -2.71,-1.181 z m 3.05,4.171 c -0.12,0.369 -0.24,0.739 -0.35,1.1 0.319,-0.75 0.52,-1.42 0.58,-2 -0.05,0.299 -0.13,0.599 -0.23,0.9 z m 0.88,12.289 c -0.17,-0.199 -0.319,-0.4 -0.47,-0.6 -0.95,-1.27 -1.58,-2.631 -1.86,-4.02 0.101,0.75 0.311,1.51 0.681,2.289 0.25,0.561 0.66,1.271 1.18,1.92 v 0.01 c 0.5,0.631 1.08,1.211 1.73,1.551 -0.411,-0.26 -0.831,-0.64 -1.261,-1.15 z m 3.91,-89.901 c 0.21,1.101 0.311,2.311 0.26,3.591 0.011,0 0.011,0.01 0.011,0.01 0.039,-1.29 -0.051,-2.5 -0.271,-3.601 z m 0.86,89.371 c -0.42,0.89 -0.88,1.479 -1.38,1.799 1.239,-0.59 1.859,-2.399 2.33,-3.959 -0.31,0.72 -0.61,1.45 -0.95,2.16 z m 3.33,-10.5 c -2.101,0.439 -3.54,-0.57 -4.79,-1.94 1.51,1.72 3.22,2.83 6.109,1.649 -0.429,0.09 -0.859,0.191 -1.319,0.291 z m 2.7,1.95 c -0.319,-0.07 -0.76,0.03 -1.189,0.221 0.35,-0.121 0.72,-0.15 1.12,-0.07 0.35,0.07 0.63,0.21 0.85,0.41 -0.241,-0.291 -0.511,-0.501 -0.781,-0.561 z m 0.57,30.31 c 0.03,-0.03 0.061,-0.061 0.101,-0.08 0.04,-0.051 0.079,-0.09 0.119,-0.131 -0.08,0.061 -0.15,0.131 -0.22,0.211 z m 0.63,-32.56 c -0.08,-0.02 -0.149,-0.039 -0.22,-0.05 0.56,0.17 1.13,0.42 1.6,0.71 -0.35,-0.27 -0.81,-0.5 -1.38,-0.66 z m 0.67,4.9 c -0.13,-0.41 -0.33,-0.9 -0.58,-1.34 0.46,1.08 0.32,2.65 0.23,3.689 0.2,-0.799 0.56,-1.659 0.35,-2.349 z m 1.09,2.26 c 0.26,-0.99 0.56,-2.04 0.689,-3.04 -0.169,0.99 -0.479,2.03 -0.689,3.04 z"
     id="path244" /><path
     style="stroke-width:0.364001"
     fill-rule="evenodd"
     clip-rule="evenodd"
     fill="#730127"
     d="m 330.27559,336.72471 c -2.55,-26.771 -5.699,-53.47 -9.05,-80.149 -1.25,-9.9 -2.39,-19.91 -4.54,-29.67 -5.13,-23.32 -15.04,-44.99 -15.17,-69.28 -0.1,-18.64 -5.88,-35.6 -19.3,-49.35 -5.92,-6.07 -23.41,-21.16 -31.91,-10.56 -0.31,0.38 -0.58,0.79 -0.84,1.24 0,0.01 0.16,0.01 0.16,0.02 -0.11,0.2 -0.066,0.4 -0.168,0.62 -2.25,4.47 -2.729,11.53 -2.729,18.37 v 0.58 c -1,10.34 -3.32,19.99 -14.91,19.26 -0.771,-0.05 -1.729,-0.35 -2.398,-0.74 -4.77,-2.85 -7.195,-11.38 -4.686,-16.42 0.531,-1.07 0.994,-2.19 0.994,-3.26 v -2.32 c -1,-1.46 -2.012,-2.57 -3.67,-2.85 -2.791,-0.46 -6.299,0.11 -8.809,1.36 -1.08,0.53 -1.316,4.02 -1.047,6.06 1.99,14.76 -17.16,17 -27.83,15.73 -8.779,-1.05 -12.269,-8.69 -15.629,-15.93 -3.01,-6.47 -7.345,-20.13 -15.864,-21.35 -8.48,-1.22 -11.532,10.69 -12.952,16.81 -11.1,47.98 -15.782,99.78 -15.152,148.979 0.53,40.621 2.601,84.16 19.98,121.57 9.21,19.82 23.569,40.69 39.84,55.461 7.52,6.84 17.249,11.449 27.569,11.219 6.99,-0.149 15.02,-3.119 14.76,-10.189 -0.04,-1.29 -0.37,-2.72 -1.02,-4.29 -2.36,-5.67 -7.07,-9.81 -11.66,-13.659 -4.99,-4.201 -9.99,-8.291 -15.41,-11.92 -5.01,-3.361 -9.63,-7.801 -8.25,-13.921 0.16,-0.72 0.41,-1.46 0.74,-2.22 1.79,-4.1 5.96,-7.16 10.529,-6.87 7.891,0.521 13.37,10.261 19.511,14.399 7.1,4.781 15.43,6.871 23.939,5.9 8.561,-0.97 15.95,-4.609 22.8,-9.32 7.98,-5.489 14.101,-24.489 26.431,-19.029 5.479,2.43 5.64,7.97 4.17,13.3 -0.891,3.261 -2.38,6.44 -3.641,8.78 -4.04,7.56 -10,13.84 -14.67,20.98 -1.609,2.469 -4.47,5.869 -6.399,9.409 0,0.011 -0.011,0.021 -0.011,0.021 -1.899,3.51 -2.88,7.16 -0.81,10.18 2.64,3.859 7.33,8.37 12.17,8.91 6.08,0.68 11.11,-4.44 15.17,-8.221 7.99,-7.439 15.12,-15.859 20.2,-25.56 13.482,-25.7 12.212,-54.19 9.562,-82.08 z m -153.546,-19.129 v 6.8 c -2,-1.55 -2.451,-2.43 -3.49,-3.18 -0.99,-0.7 -1.898,-1.261 -2.947,-1.89 -0.271,0.209 -0.438,0.43 -0.718,0.649 0.729,1.88 1.7,3.72 2.15,5.66 0.25,1.09 -0.299,2.36 -0.499,3.55 -1,-0.73 -2.396,-1.25 -2.854,-2.22 -0.021,-0.03 0.119,-0.05 0.109,-0.08 l 0.249,-0.011 v -0.01 c -2,-4.17 -3.361,-8.459 -4.961,-12.93 0.529,0.09 1.535,-0.05 1.865,0.35 3.189,3.94 7.096,4.211 11.096,2.201 v -0.771 c 0,0.159 0.299,0.319 0.51,0.46 2.33,-0.971 5.432,1.029 6.912,3.8 0,0 -0.027,0 -0.027,0.011 0.59,1.109 0.891,2.35 0.762,3.569 -1.211,-1.12 -2.568,-2.11 -3.629,-2.97 -1.071,-0.879 -2.528,-1.639 -4.528,-2.988 z m -23.834,-132.15 c 0.181,-0.15 0.38,-0.28 0.601,-0.42 0.34,-0.21 0.72,-0.42 1.16,-0.62 -0.611,0.489 -1.2,0.819 -1.761,1.04 z m 20.37,-13.36 c 0.69,0.76 1.41,1.44 2.19,1.95 0.189,0.13 0.39,0.25 0.59,0.35 0,0 0,0.01 0.01,0.01 0.3,0.16 0.62,0.29 0.93,0.4 0.061,0.02 0.131,0.04 0.19,0.06 0.67,0.2 1.37,0.27 2.15,0.19 0.22,-0.01 0.449,-0.05 0.68,-0.1 0.229,-0.05 0.46,-0.12 0.7,-0.19 0.2,-0.06 0.399,-0.13 0.609,-0.21 -0.01,0.01 -0.02,0.02 -0.029,0.02 -0.36,0.17 -0.721,0.33 -1.101,0.47 -2.72,1 -3.71,2.48 -2.3,5.43 0.6,1.25 0.35,3.04 0.04,4.5 -0.08,0.4 -2.22,0.96 -2.64,0.58 -1.391,-1.24 -3.74,-3.56 -3.38,-4.24 1.47,-2.82 0.88,-4.98 -0.25,-6.96 -0.32,-0.57 -0.69,-1.12 -1.07,-1.67 -0.53,-0.78 -1.09,-1.56 -1.561,-2.37 -0.119,-0.2 -0.13,-0.52 -0.09,-0.77 0.04,-0.23 0.221,-0.45 0.851,-1.75 0.17,0.2 0.34,0.4 0.51,0.61 0.24,0.31 0.49,0.63 0.74,0.95 0.14,0.18 0.279,0.36 0.42,0.53 0.43,0.56 0.859,1.11 1.31,1.63 0.171,0.199 0.331,0.389 0.501,0.58 z m -8.29,28.19 c 1.04,0.05 2.08,0.19 3.101,0.29 1.21,0.12 2.38,0.21 3.46,0.06 0.529,-0.07 1.029,-0.19 1.51,-0.39 0.96,-0.39 1.81,-1.08 2.53,-2.24 0.27,-0.43 0.52,-0.94 0.75,-1.52 0.229,0.46 0.46,0.91 0.699,1.37 -0.319,0.53 -0.58,1.14 -0.939,1.64 -0.101,0.14 -0.2,0.26 -0.32,0.38 -1,0.96 -1.27,1.78 -1.04,2.62 0.17,0.63 0.61,1.28 1.23,2.02 0.96,1.15 1.72,4.1 1.17,4.55 -1.521,1.25 -3.8,2.16 -5.72,2.06 -0.801,-0.04 -2.431,-3.28 -2.011,-4.49 1.37,-3.99 -2.88,-3.62 -4.42,-6.35 z m -12.46,-15.25 c -0.12,0.1 -0.22,0.575 -0.32,0.685 -0.079,0.09 -0.17,0.377 -0.239,0.488 -0.011,0.01 -0.021,0.118 -0.03,0.128 -0.07,0.09 -0.13,0.24 -0.18,0.35 -0.021,0.02 -0.04,0.069 -0.04,0.089 -0.061,0.1 -0.11,0.216 -0.141,0.336 -0.05,0.12 -0.09,0.251 -0.12,0.371 -0.029,0.12 -0.05,0.222 -0.06,0.342 -0.12,0.82 0.08,1.78 0.521,2.9 0.39,1 -0.641,3.091 -1.641,3.951 -0.88,0.76 -2.95,1.06 -3.92,0.53 -0.97,-0.54 -2.06,-2.77 -1.67,-3.55 0.83,-1.67 0.81,-3.08 0.31,-4.4 -0.54,-1.46 -1.649,-2.8 -2.8,-4.26 2.5,-0.34 4.391,1.55 6.54,2.38 1.04,0.41 2.303,0.56 3.563,0.09 0,0 -0.559,0 -0.559,-0.01 v -1.45 h 1.137 c -0.131,0 -0.241,0.93 -0.351,1.03 z m 4.38,49.38 c 0.87,-0.891 1.38,-1.69 1.61,-2.41 0.3,-0.91 0.16,-1.7 -0.29,-2.42 -0.01,-0.01 -0.021,-0.021 -0.021,-0.03 -0.1,-0.16 -0.22,-0.32 -0.35,-0.47 -0.53,-0.641 -1.3,-1.24 -2.189,-1.831 -0.11,-0.08 -0.221,-0.15 -0.33,-0.22 -0.62,-0.4 -1.061,-1.08 -1.58,-1.63 0.239,-0.48 0.479,-0.97 0.71,-1.45 0.729,0.37 1.45,0.8 2.17,1.24 1.96,1.2 3.91,2.46 5.939,2.57 0.37,0.02 0.74,0 1.12,-0.04 2.5,-0.29 5.12,-1.81 7.92,-2.18 -0.79,0.51 -1.52,1.15 -2.38,1.5 -3.04,1.27 -6,2.36 -3.92,6.791 0.34,0.75 -1.11,3.1 -2.21,3.569 -1.78,0.771 -3.97,0.601 -5.979,0.82 -0.11,-1.299 -0.82,-3.19 -0.22,-3.809 z m 21.74,26.36 c -0.39,2.24 -0.43,4.51 -1.2,6.49 -0.2,0.51 -0.47,0.98 -0.79,1.38 -0.56,0.739 -1.3,1.239 -2.109,1.37 -0.23,0.04 -0.46,0.061 -0.69,0.04 -0.55,-0.05 -1.13,-0.29 -1.689,-0.74 -1.021,-0.851 -1.487,-3.3 -1.567,-4.7 -0.01,-0.1 0.141,-0.189 0.141,-0.279 v -0.01 c 0,-0.24 0.08,-0.421 0.189,-0.551 0.641,-0.74 0.623,-1.391 1.152,-1.98 0.01,-0.02 -0.008,-0.039 0.013,-0.06 0.02,-0.021 0.021,-0.05 0.03,-0.069 0.01,-0.011 0.164,-0.021 0.174,-0.031 0.1,-0.09 0.441,-0.18 0.441,-0.27 0,0 0,0 0,-0.01 v -0.29 c 0,-0.01 0,-0.01 0,-0.021 0,-0.66 -0.211,-1.26 -0.441,-1.81 -0.039,-0.09 -0.207,-0.17 -0.287,-0.26 -0.02,-0.03 -0.087,-0.07 -0.107,-0.101 0,0 -0.06,0 -0.069,-0.01 -0.01,-0.029 -0.039,-0.05 -0.059,-0.08 -0.311,-0.539 -0.826,-1.039 -1.395,-1.529 l -0.013,-0.01 c -0.649,-0.57 -1.432,-0.891 -2.241,-1.49 0.85,0.17 1.699,-0.42 2.55,0.45 0.029,0.029 0.059,-0.2 0.099,-0.2 h 0.01 c 2.23,0 4.42,1.399 6.58,1.91 0.011,0.01 0.021,0.165 0.03,0.165 0.09,-0.68 0.17,-1.413 0.29,-2.083 0.65,-0.199 1.2,-0.291 1.67,-0.291 0.12,0 0.23,0 0.34,0.01 0.561,0.05 1,0.238 1.37,0.519 0.07,0.06 0.14,0.126 0.21,0.186 0.13,0.13 0.26,0.282 0.37,0.432 0.01,0 0.01,0.002 0,0.013 0.16,0.199 0.29,0.43 0.42,0.67 0.05,0.09 0.101,0.18 0.14,0.271 0.051,0.1 0.101,0.21 0.15,0.319 0.061,0.141 0.12,0.28 0.18,0.431 0.021,0.03 0.04,0.069 0.061,0.12 0.979,-0.01 1.939,-0.131 2.899,-0.391 0.78,-0.199 1.561,-0.5 2.33,-0.9 -0.949,3.011 -1.87,5.971 -2.8,8.941 -2.401,-2.481 -1.642,-6.931 -6.382,-5.551 z m 3.59,-86.63 c -0.149,0.08 -0.31,0.16 -0.47,0.22 -0.08,0.04 -0.17,0.08 -0.25,0.1 0.42,-0.21 0.86,-0.43 1.29,-0.63 -0.19,0.12 -0.389,0.22 -0.57,0.31 z m -13.29,-24.08 c 0.45,2.68 -0.88,5.07 -3.92,5.41 -3.05,0.34 -5.43,-1.12 -6.34,-4.11 -0.49,-1.58 -0.52,-3.39 -0.36,-5.06 0.101,-1.11 0.141,-1.96 0.061,-2.59 -0.11,-0.86 -0.431,-1.31 -1.12,-1.47 -0.65,-0.15 -1.64,-0.04 -3.08,0.24 -0.69,0.13 -1.41,0.19 -2.12,0.28 -0.09,-0.34 -0.18,-0.68 -0.27,-1.03 1.609,-0.44 3.22,-0.88 4.779,-1.31 1.32,-0.36 2.601,-0.71 3.83,-1.05 0.99,-0.27 1.95,-0.53 2.851,-0.78 0.5,0.79 1.05,1.57 1.569,2.37 0.45,0.69 0.88,1.4 1.25,2.13 0.11,0.22 0.221,0.45 0.341,0.67 1.029,2.04 2.149,4.13 2.529,6.3 z m -18.019,174.85 c 0.02,0.129 0.06,0.26 0.09,0.39 0.08,0.271 0.18,0.54 0.29,0.81 0.17,0.41 0.39,0.83 0.63,1.25 0.13,0.221 0.24,0.52 0.2,0.75 -0.38,2.02 -0.54,4.15 -1.37,5.971 -0.2,0.439 -3.45,0.35 -3.97,-0.41 -0.08,-0.11 -0.15,-0.23 -0.23,-0.35 -1.16,-1.801 -2.54,-4.641 -1.85,-5.65 0.08,-0.11 -0.08,-0.221 -0.021,-0.32 0.05,-0.08 0.11,-0.17 0.15,-0.25 0.38,-0.63 0.712,-1.21 0.733,-1.74 0.01,-0.05 0.16,-0.109 0.16,-0.16 v -0.01 c 1,-2.99 -1.852,-4.48 -4.17,-6.279 -0.871,-0.67 -1.648,-1.42 -2.498,-2.141 0.209,-0.4 0.442,-0.8 0.652,-1.189 0.82,0.42 1.7,0.77 2.54,1.17 0.011,-0.01 0.012,0 0.012,0 0.01,0 0.014,0.01 0.025,0.02 0.01,0 0.018,0 0.018,0.01 0.69,0.33 1.358,0.69 1.928,1.17 0.131,0.11 0.25,0.2 0.381,0.311 0.229,0.21 0.469,0.42 0.698,0.64 l 0.811,0.72 0.25,0.221 c 0.109,0.09 0.229,0.199 0.359,0.289 0.24,0.191 0.48,0.371 0.73,0.541 0.39,0.27 0.8,0.49 1.229,0.65 0.11,0.049 0.23,0.09 0.351,0.129 0.1,0.041 0.21,0.07 0.32,0.09 0.319,0.08 0.67,0.121 1.02,0.121 0.12,0 0.23,-0.011 0.36,-0.021 0.66,-0.04 1.37,-0.24 2.16,-0.61 -0.45,0.28 -0.82,0.57 -1.12,0.87 -0.889,0.917 -1.078,1.937 -0.868,3.007 z m 3.309,-29.031 c -0.859,1.15 -2.25,2.091 -3.59,2.611 -0.53,0.199 -2.32,-1.021 -2.29,-1.5 0.04,-0.471 0.1,-0.99 0.19,-1.5 0.189,-1.051 0.55,-2.08 1.199,-2.631 2.601,-2.17 2.04,-4.21 -0.05,-6.09 -0.189,-0.17 -0.39,-0.77 -0.58,-0.77 h -0.01 c -2.02,-2 -4.1,-3.271 -6.16,-5.03 0.09,-0.33 0.16,-0.665 0.24,-0.985 0.1,0.01 0.2,0.016 0.3,0.016 h 0.4 c 1.12,0 2.29,0.39 3.229,0.87 1.37,0.71 2.59,1.895 3.62,3.065 1.42,1.63 2.7,3.497 4.22,4.447 0,0.01 0.011,0.048 0.011,0.048 1.14,0.729 2.41,0.95 3.95,0.18 -1.359,2.161 -2.868,4.829 -4.679,7.269 z m 18.391,100.211 c -0.851,0.31 -1.86,0.539 -2.24,0.289 -1.561,-1.049 -2.86,-2.77 -3.74,-4.479 -0.89,-1.76 -1.32,-3.75 -1.94,-5.89 -0.079,-0.25 -0.149,-0.5 -0.229,-0.75 2.51,-1.131 5.57,-2.53 8.64,-3.93 0.29,0.33 0.57,0.64 0.86,0.959 -0.56,0.32 -1.18,0.57 -1.72,0.891 -0.29,0.17 -0.551,0.35 -0.78,0.58 -0.43,0.42 -0.81,0.859 -1.05,1.3 -0.01,0 -0.021,0.021 -0.021,0.021 -0.7,1.16 -0.6,2.33 1.32,3.369 0.33,0.19 0.76,0.471 0.86,0.791 0.58,2.01 1.229,4.039 1.42,6.1 0,0.129 -0.63,0.469 -1.38,0.749 z m 15.219,-36.461 c -0.76,-0.389 -1.29,-0.659 -1.84,-0.899 -0.7,-0.3 -1.42,-0.53 -2.49,-0.92 -0.021,0.149 -0.04,0.29 -0.061,0.431 -0.329,2.56 -0.64,4.909 -1,7.609 -0.21,-0.189 -0.409,-0.37 -0.6,-0.55 -2.17,-1.979 -3.8,-3.47 -5.43,-4.96 -0.24,0.22 -0.48,0.439 -0.721,0.65 -0.069,0.06 -0.14,0.129 -0.21,0.189 0.87,1.641 1.971,3.21 2.561,4.949 0.7,2.08 0.939,4.631 -0.97,5.611 -0.261,0.139 -0.561,0.239 -0.91,0.31 -1.391,0.29 -3.45,-2.05 -4.98,-3.45 -0.55,-0.5 -0.74,-1.811 -0.609,-2.65 0.489,-3 -0.17,-5.579 -2.811,-7.56 -0.03,-0.03 -0.07,-0.39 -0.1,-0.39 0,0 0,0 -0.01,0 -0.11,0 -0.221,-0.08 -0.341,-0.17 3.341,0 6.65,0.17 9.99,0.17 h 1.74 c 0.01,0 0.01,0 0.01,0 0.86,0 1.72,-0.311 2.26,-0.82 0.86,-0.83 1.641,-1.534 2.38,-1.685 0.051,-0.01 0.101,-0.243 0.15,-0.253 0.021,-0.01 0.05,-0.242 0.08,-0.242 h 0.01 c 1.75,0 3.2,1.229 4.641,4.689 -0.269,-0.138 -0.519,0.052 -0.739,-0.059 z m 25.55,-180.15 c 0.03,0.02 0.203,0.03 0.232,0.05 1.141,0.64 2.111,1.05 3.111,0.16 v -0.01 c 0,-0.02 0,-0.05 0.059,-0.08 0.771,-0.32 0.623,-0.78 0.834,-1.42 0.729,1.57 1.863,3.22 2.814,4.95 0.059,0.11 0.293,0.21 0.293,0.32 v 0.01 c 0,0.65 0.229,1.32 0.5,2 0.01,0.03 -0.059,0.05 -0.049,0.08 0.25,0.62 0.324,1.24 0.523,1.88 0.551,1.75 0.391,4.77 -0.689,5.68 -1.551,1.27 -4.479,1.81 -6.449,1.31 -1.049,-0.28 -1.414,-3.42 -1.955,-5.3 -0.139,-0.44 0.039,-1.1 0.299,-1.52 2.41,-3.89 0.828,-6.1 -3.012,-7.49 -0.66,-0.24 -1.23,-0.82 -1.85,-1.26 1.621,-1.889 3.549,-0.369 5.339,0.64 z m -7.51,108.65 c 0.149,0.051 0.29,0.111 0.439,0.16 2.12,0.781 4.17,1.66 5.83,2.311 0.11,1.471 0.473,3.57 0.684,5.67 0.1,0.82 0.9,1.73 0.9,2.561 v 0.029 c 0,0 0,0 0,0.01 v 0.301 c 0,0.49 -0.182,0.949 -0.342,1.35 -0.77,1.87 -2.506,3.391 -3.766,5.061 -1.42,-1.17 -3.578,-2.09 -4.127,-3.58 -0.561,-1.49 -0.65,-3.65 -0.07,-5.19 0.01,-0.01 0.002,-0.01 0.002,-0.021 0.1,-0.26 0.215,-0.51 0.354,-0.729 0.971,-1.54 1.18,-2.63 0.77,-3.56 -0.33,-0.771 -1.092,-1.43 -2.182,-2.131 -0.82,-0.51 -1.061,-1.91 -1.57,-2.899 1.02,0.208 2.098,0.307 3.078,0.657 z m -1.07,-136.359 c 0.01,0 0.03,0.01 0.04,0.01 1.01,0.34 2.01,0.49 2.99,0.52 0.04,0.01 0.07,-0.3 0.109,-0.3 h 0.011 c 0.229,1 0.45,0.83 0.68,0.93 0.16,0.07 0.32,0.07 0.48,0.07 0,0 0,0 0.01,0 0.46,0 0.899,0.52 1.35,0.66 0.04,0.37 0.101,0.875 0.16,1.314 0.01,0.011 0.01,0.098 0.01,0.108 0.17,1.14 0.37,2.528 0.311,3.888 -0.09,2.18 -0.41,4.41 -1.16,6.44 -0.13,0.37 -3.58,0.359 -4.05,-0.391 -0.971,-1.54 -1.88,-4.184 -1.19,-5.524 2.82,-5.3 -2.67,-5.638 -4.09,-9.099 1.45,0.491 2.9,0.874 4.339,1.374 z m -4.74,69.859 c 0.561,0.01 1.07,0.01 1.53,0.01 0.79,0.01 1.45,0 2.021,-0.03 1.079,-0.07 1.85,-0.22 2.609,-0.59 0.67,-0.31 1.34,-0.79 2.22,-1.51 0.471,-0.38 0.99,-0.82 1.61,-1.35 -0.49,1.42 -0.51,2.05 -0.84,2.35 -0.04,0.03 -0.021,0.07 -0.06,0.11 -0.011,0.01 0.132,0.02 0.122,0.03 -1.109,1.02 -1.549,2.01 -1.549,3.02 v 0.24 c 0,0.01 0,0.01 0,0.02 v 0.39 c 0,0.67 -0.07,1.35 0.709,2.05 0,0.01 0.096,0.01 0.105,0.01 0.029,0.02 0.186,0.04 0.186,0.05 v 0.01 c 0,0.44 0.219,0.88 0.58,1.34 0.02,0.02 -0.049,0.04 -0.027,0.06 l -0.117,0.01 c 0.01,0.03 -0.041,0.05 -0.02,0.08 0.969,1.22 1.811,3.99 1.201,4.699 -1.211,1.371 -3.496,2.361 -5.385,2.471 -3.701,0.23 -5.643,-2.42 -3.912,-6.17 0.209,-0.43 0.357,-0.83 0.488,-1.2 0.648,-1.91 0.35,-3.02 -0.811,-3.81 -0.73,-0.49 -1.791,-0.86 -3.15,-1.22 0.832,-0.379 1.671,-1.079 2.49,-1.07 z m -5.06,120.531 c -0.45,0.02 -0.9,0.039 -1.35,0.06 -0.4,-1 -1.141,-2.03 -1.341,-3.011 -0.04,-0.219 -0.06,-0.439 -0.04,-0.649 0.551,-6.181 8.36,-15.09 14.301,-16.66 5.279,-1.39 12.819,2.24 15.409,7.22 0.5,0.94 0.811,1.94 0.9,2.961 -5.52,-4.08 -9.66,-11.17 -17.75,-6.351 -6.218,3.7 -9.439,9.19 -10.129,16.43 z m 8.54,-3.83 c 0.64,-0.971 2.07,-1.99 2.939,-2.98 1.03,1.16 2.051,2.33 3.53,4.029 -1.399,1.851 -2.41,3.211 -3.39,4.5 -0.141,0.191 -0.28,0.371 -0.42,0.561 -1.08,-1.699 -2.87,-3.35 -3,-5.119 -0.019,-0.321 0.111,-0.651 0.341,-0.991 z m 3.741,29.01 c -0.891,-1.01 -1.351,-2.27 -1.471,-3.811 3.33,1.44 6.971,4.44 9.891,3.86 2.91,-0.58 5.252,-4.771 8.393,-8.021 0.08,0.32 0.631,0.76 0.631,1.25 v 0.01 c 0,0.011 0,0.011 0,0.021 v 0.011 c 0,0.6 0.229,1.25 0.049,1.789 -1.77,4.98 -6.467,8.551 -10.008,8.041 -3.559,-0.511 -5.996,-1.48 -7.396,-3.07 -0.011,-0.03 -0.07,-0.051 -0.089,-0.08 z m 8.5,23.449 c -0.88,-1.359 -1.48,-3.039 -1.351,-4.41 0.08,-0.779 1.25,-1.959 2.05,-2.069 1.391,-0.2 2.931,1.021 3.931,2.91 0.01,0 0.01,0.01 0.02,0.021 0.681,1.289 1.11,2.879 1.08,4.539 -0.49,0.311 -1.439,1.37 -2.47,1.461 -1.04,0.09 -2.29,-0.98 -3.24,-2.42 -0.011,-0.011 -0.02,-0.021 -0.02,-0.032 z m 83.979,-110.969 c 2.73,1.76 5.24,3.369 7.67,4.939 1.351,0.869 2.681,1.73 4.01,2.59 -0.109,0.2 -0.229,0.42 -0.34,0.62 -1.12,-0.351 -2.239,-0.7 -3.739,-1.181 -0.37,-0.109 -0.771,-0.239 -1.2,-0.369 0.45,3.85 1,7.01 1.109,10.199 0.03,1.34 -0.85,2.721 -1.31,4.08 -1.13,-1.129 -2.62,-2.08 -3.28,-3.43 -0.71,-1.46 -0.97,-3.311 -0.88,-4.97 0.401,-6.859 0.481,-6.859 -2.04,-12.478 z m -38.89,-150.651 c 1.729,0.38 3.46,0.51 5.18,0.89 0.021,0 0.04,0.01 0.061,0.01 1.1,0.23 2.189,0.18 3.279,0.23 0.13,0.01 0.25,-0.3 0.38,-0.3 h 0.011 c 0.56,1 1.12,0.78 1.68,0.899 0.06,0.011 0.12,0.186 0.18,0.195 0.681,0.16 1.36,0.488 2.04,0.638 0.03,0.01 0.05,0.048 0.08,0.058 0.17,0.05 0.34,0.16 0.51,0.19 -0.08,0.39 -0.159,0.689 -0.239,1.079 -0.351,-0.09 -0.7,-0.625 -1.08,-0.714 -0.101,-0.02 -0.2,-0.345 -0.311,-0.345 -0.01,0 -0.01,0 -0.01,0 -0.93,0 -2.02,-0.03 -3.52,-0.4 0.3,0.67 0.56,1.436 0.77,1.886 0.01,0.02 0.021,0.127 0.03,0.147 0.31,0.61 0.51,1.138 0.63,1.618 0.38,1.48 0.99,3.09 0.77,4.51 -0.5,3.22 -3.52,5.569 -5.75,4.559 -3.13,-1.41 -3.729,-4.534 -2.37,-6.994 2.11,-3.81 0.971,-5.758 -2.869,-7.208 0.178,-0.31 0.368,-0.617 0.548,-0.948 z m -9.83,175.821 c 0.21,-0.44 0.42,-0.891 0.63,-1.33 1.15,0 2.39,-0.291 3.39,0.069 0.931,0.341 1.82,0.82 2.681,1.351 0.59,0.35 1.17,0.72 1.76,1.069 1.78,1.08 3.09,1.229 4.71,-0.659 0.84,-0.971 3.25,-1.431 4.53,-0.961 0.09,0.03 0.17,0.061 0.26,0.1 1.65,0.701 2.96,2.311 4.42,3.5 -0.25,0.311 -0.5,0.621 -0.75,0.921 -0.45,-0.19 -0.94,-0.31 -1.33,-0.58 -1.39,-0.95 -2.439,-1.62 -3.26,-1.97 -2.2,-0.961 -2.811,0.3 -4.24,4.34 -0.56,1.63 -1.7,3.1 -2.93,4.46 -0.51,0.579 -1.05,1.13 -1.561,1.67 -0.47,0.489 -2.76,0.239 -3.05,-0.3 -1.05,-1.95 -2.66,-4.5 -2.13,-6.221 0.97,-3.109 1.241,-4.979 -3.13,-5.459 z m -15.15,-56.17 c 0.181,-0.511 0.351,-1.031 0.53,-1.561 1.51,0.619 3.41,0.85 4.44,1.92 1.159,1.189 2.229,2.189 3.42,2.67 1.38,0.55 2.909,0.021 4.899,-1.359 0.05,-0.04 0.09,-0.49 0.15,-0.49 h 0.01 c 0.01,0 0.01,0.3 0.021,0.3 1.489,-0.98 3.88,-0.234 6,0.365 -0.61,0.25 -1.2,0.737 -1.841,0.837 -1.83,0.281 -3.3,0.619 -4.319,1.029 -0.04,0.02 0.072,0.06 0.033,0.079 -2.34,0.98 -2.51,2.729 -2.51,6.829 v 0.301 c 0,1.409 -0.631,2.83 -0.951,4.25 -0.529,0.139 -1.076,0.27 -1.607,0.409 -0.939,-1.88 -3.076,-4.12 -2.627,-5.56 1.76,-5.589 -1.427,-7.949 -5.648,-10.019 z m 22.771,-27.64 c 0.42,1.07 0.689,2.22 1.279,3.17 0.851,1.38 1.69,2.35 3.261,2.13 0.439,-0.06 0.93,-0.2 1.5,-0.46 1.229,-0.56 2.21,-0.43 2.87,0.17 0.83,0.75 1.159,2.25 0.869,4.131 -0.17,-0.101 -0.34,-0.201 -0.5,-0.291 -0.989,-0.59 -1.89,-1.13 -2.77,-1.66 -0.4,1.301 -1.147,2.69 -0.968,3.91 0.201,1.28 0.521,2.53 0.521,3.801 0,0 0,0 0,0.01 v 0.06 c 0,2.28 -0.75,4.601 -2.83,7.22 -1.012,-2.569 -2.488,-4.399 -2.348,-6.1 0.41,-5.13 1.973,-10.3 -3.068,-14.6 0.741,-0.502 1.443,-0.991 2.184,-1.491 z m -2.931,59.65 c 0.181,-0.12 0.351,-0.83 0.551,-0.83 h 0.069 c 0.181,0 0.351,0.21 0.551,0.08 0.22,-0.12 0.439,-0.015 0.68,-0.135 -0.45,0.399 -0.88,0.848 -1.311,1.098 -0.159,0.1 -0.319,0.248 -0.47,0.317 -0.189,0.11 -0.37,-0.005 -0.56,0.056 0.15,-0.131 0.32,-0.456 0.49,-0.586 z m -4.88,0.629 c 0.101,0.051 0.2,0.091 0.301,0.131 0.119,0.05 0.25,0.1 0.38,0.15 0.659,0.229 1.359,0.35 2.1,0.299 0.07,0 0.15,-0.01 0.21,-0.02 0.16,-0.01 0.33,-0.029 0.51,-0.07 0.28,-0.06 0.58,-0.14 0.87,-0.26 -0.14,0.12 -0.28,0.24 -0.399,0.35 -0.03,0.021 -0.051,0.051 -0.07,0.07 -0.25,0.26 -0.48,0.53 -0.67,0.811 -0.01,0.01 -0.021,0.02 -0.021,0.029 -0.09,0.141 -0.617,0.28 -0.688,0.42 -0.08,0.16 -0.648,0.301 -0.648,0.461 v 0.01 c 0,0.16 0.33,0.32 0.299,0.48 -0.039,0.149 0.143,0.279 0.133,0.43 -0.02,0.06 0.094,0.119 0.094,0.17 -0.1,1.039 0.199,2.22 0.789,3.63 0.371,0.88 0.232,1.979 -0.037,3.12 -0.25,1.029 -0.625,2.08 -0.855,3.05 -0.041,0.149 -2.473,0.149 -2.643,-0.261 -0.811,-1.939 -1.422,-4.01 -1.711,-6.09 -0.391,-2.819 -0.42,-5.68 -0.611,-8.619 0.779,0.609 1.678,1.26 2.667,1.709 z m -4,-123.759 c 1.351,0.73 3.08,1.15 3.98,2.25 0.399,0.49 0.79,0.92 1.189,1.28 0.841,0.75 1.7,1.17 2.681,1.16 0.479,-0.01 0.979,-0.12 1.52,-0.34 0.37,-0.15 0.76,-0.36 1.17,-0.63 0.46,-0.3 1.021,-0.42 1.641,-0.49 0.67,-0.08 1.399,-0.1 2.1,-0.22 -0.1,0.63 -0.1,1.08 -0.18,1.09 -0.57,0.11 -1.09,0.24 -1.561,0.4 -1.25,0.41 -2.3,1.01 -2.95,1.74 -0.05,0.05 0.063,0.1 0.022,0.15 -0.299,0.39 -0.738,0.82 -0.738,1.28 v 2.88 c 0,0.91 0.26,1.89 0.6,2.93 0.16,0.48 0.203,1.21 -0.059,1.55 -1.27,1.76 -2.707,3.43 -4.066,5.13 -0.98,-1.91 -2.039,-3.8 -2.939,-5.75 -0.189,-0.41 -0.088,-1.1 0.131,-1.55 2.35,-4.79 1.746,-8.79 -3.834,-11.53 0.438,-0.45 0.863,-0.89 1.293,-1.33 z m -11.25,47.69 c 0.721,0.43 1.471,0.82 2.24,1.17 0.86,0.4 1.73,0.75 2.62,1.05 2.64,0.89 4.52,0.08 6.36,-2.26 0.869,-1.11 1.72,-1.87 2.56,-2.29 2.13,-1.09 4.19,0.05 6.44,3.41 -2.841,-1.2 -4.94,-1.59 -6.391,-1.13 -1.45,0.45 -2.25,1.74 -2.52,3.89 -0.13,0.93 -0.141,2.02 -0.07,3.27 0.25,4.05 -0.43,4.66 -4.04,3.35 -0.25,0.87 -0.45,1.76 -0.79,2.59 -1.07,2.66 -2.99,2.72 -4.47,0.74 -1.09,-1.47 -2.07,-3.78 -1.7,-5.4 1.13,-4.96 -1.25,-6.82 -5.58,-7.49 1.642,-2.36 2.711,-2.45 5.341,-0.9 z m -0.62,198.739 c 1.521,-0.549 3.051,-1.1 4.58,-1.649 0.36,-0.13 0.71,-0.26 1.07,-0.39 -0.01,-0.35 -0.03,-0.711 -0.06,-1.07 -1.311,-0.391 -2.631,-0.8 -3.95,-1.18 -2.41,-0.7 -4.21,-1.57 -5.53,-2.77 0,0 -0.01,0 -0.01,-0.011 -1.88,-1.69 -2.8,-4.069 -3.11,-7.601 -0.76,-8.689 2.42,-16.449 6.641,-23.609 2.119,-3.58 5.75,-4.68 9.01,-3.561 1.75,0.601 3.41,1.851 4.66,3.69 3.659,5.39 4.8,13.14 3.58,20.261 -0.181,1.06 -0.41,2.1 -0.69,3.119 -0.91,3.26 -2.34,6.28 -4.28,8.74 l -0.01,0.01 c -0.14,0.18 -0.22,0.42 -0.25,0.68 -0.09,0.58 0.01,1.311 -0.05,1.91 0.83,-0.01 1.859,0.2 2.66,0.131 0.37,-0.021 0.689,-0.11 0.92,-0.311 1.52,-1.32 2.56,-3.199 4.18,-5.34 0.53,3.99 -1.11,6.92 -3.75,8.029 -1.32,0.57 -2.9,0.681 -4.59,0.24 -0.95,-0.25 -2.08,0.11 -3.16,0.391 -0.26,0.07 -0.52,0.13 -0.77,0.18 -2.261,0.43 -4.511,0.88 -6.771,1.33 -0.099,-0.409 -0.22,-0.809 -0.32,-1.219 z m 27.02,-66.859 c -0.51,0.48 -1.061,1.15 -1.59,1.75 -0.7,0.76 -1.36,1.391 -1.86,1.28 -1.649,-0.351 -3,-2.08 -5.12,-3.72 1.66,-1.82 3.12,-3.681 3.28,-3.58 0.42,0.279 0.83,0.57 1.229,0.879 1.401,1.06 2.712,2.25 4.061,3.391 z m -14.9,17.15 c 0.95,0.779 1.851,1.699 2.78,2.57 1.26,1.199 2.55,2.289 4.05,2.789 1.01,0.34 1.721,0.301 2.24,0.021 1.67,-0.88 1.44,-4.181 2.89,-5.5 0.45,0.13 1.08,0.239 1.521,0.36 -0.47,1.739 -0.958,3.75 -0.997,5.319 -0.01,0.07 0.141,0.14 0.141,0.2 v 0.01 c -1,0.37 -0.721,0.71 -0.971,1.01 -0.65,0.791 -2.277,1.381 -3.658,1.541 -0.029,0 -0.086,0.01 -0.117,0.01 -0.729,0.09 -1.488,0.05 -2.029,-0.131 -3.501,-1.199 -6.089,-3.83 -5.85,-8.199 z m 15.601,26.58 c -1.99,0 -4.021,-0.75 -3.65,-3.521 0.14,-0.96 0.95,-1.645 1.79,-2.444 1.26,-0.22 2.53,0.357 3.43,1.207 0.011,0.01 0.03,0.068 0.04,0.078 0.971,0.961 1.49,2.42 1.101,3.98 -0.2,0.79 -0.9,0.869 -1.811,1.309 -0.18,-0.039 -0.35,-0.609 -0.529,-0.609 z m 10.019,-44.74 c -3.109,-6.35 -5.29,-14.36 -13.99,-12.971 -1.239,0.201 -2.399,0.511 -3.489,0.931 -0.011,0 -0.03,0.01 -0.04,0.021 -4.511,1.75 -7.69,5.35 -9.09,10.609 -0.261,1 -0.471,2.05 -0.601,3.16 -2.93,-2.28 -3.02,-5.71 -0.26,-9.141 2.16,-2.699 5.46,-5.439 8.97,-7.109 0.01,0 0.021,-0.01 0.03,-0.01 3.729,-1.76 7.7,-2.301 10.8,-0.25 0.05,0.039 0.11,0.07 0.16,0.109 6.79,4.54 10.05,9.961 7.51,14.651 z m 2.49,-132.18 c -0.59,-1.82 -0.92,-4.07 -0.37,-5.84 1.34,-4.32 -0.41,-7.4 -3.1,-10.35 -0.41,-0.46 -0.65,-1.07 -0.96,-1.6 0.39,-0.4 0.779,-1.259 1.17,-1.66 1.819,1.939 3.649,3.37 5.47,5.37 h 5.83 c 0.29,0 0.22,1.29 0.51,1.71 -3.12,-0.25 -4.036,0.485 -4.978,1.545 -0.07,0.08 -0.059,0.315 -0.059,0.395 v 1.42 c 0,0.01 0,0.02 0,0.02 1,0.97 0.619,2.09 1.049,3.25 0.551,1.54 0.543,3.48 0.254,5.13 -0.201,1.22 -1.197,2.32 -1.867,3.46 -1.031,-0.94 -2.579,-1.69 -2.949,-2.85 z m 18.5,48.89 c -0.13,0.34 -0.29,0.67 -0.46,1 -0.45,0.899 -1.01,1.81 -1.59,2.909 -0.82,-0.859 -1.26,-1.959 -1.62,-3.1 -0.601,-1.91 -0.96,-3.939 -2.34,-5.209 -0.57,-0.521 -1.3,-0.921 -2.29,-1.131 -0.58,-0.119 -1.25,-0.18 -2.021,-0.17 0.91,1.641 1.58,2.66 2.061,3.78 1.13,2.649 2.43,5.271 3.12,8.04 0.319,1.23 -0.69,2.779 -1.101,4.17 -1.25,-0.79 -3.069,-1.32 -3.63,-2.46 -1.26,-2.54 -1.86,-5.4 -2.78,-8.11 -0.489,-1.46 -1.08,-2.89 -1.779,-4.74 1.71,-2.149 3.3,-3.22 5.17,-3.1 1.91,0.12 4.12,1.49 7.02,4.2 0.181,0.17 0.38,0.35 0.57,0.54 0.95,-0.5 1.88,-0.86 2.78,-1.07 1.27,-0.33 2.489,-0.37 3.619,-0.189 1.69,0.289 3.181,1.109 4.36,2.379 0.19,0.211 0.37,0.431 0.55,0.67 0,0 0,0.011 0.011,0.011 0.17,0.239 0.329,0.479 0.479,0.739 0.4,0.66 0.74,1.381 0.98,2.181 0.17,0.47 0.3,0.979 0.38,1.5 0.21,1.05 0.3,2.2 0.26,3.42 0,0 0,-0.01 -0.01,-0.01 -0.681,-0.96 -1.33,-1.95 -1.98,-2.95 -1.09,-1.66 -2.2,-3.29 -3.56,-4.71 -0.84,-0.88 -1.407,-1.47 -2.048,-1.78 -0.889,-0.43 -1.139,-0.33 -2.139,0.301 0,0 0,0 0,0.01 0,0 -0.16,0.01 -0.17,0.01 -0.978,0.539 -1.292,1.508 -1.842,2.869 z m 6.21,86.1 c -0.35,-0.74 -0.55,-1.461 -0.65,-2.181 -0.39,-1.84 -0.149,-3.75 0.74,-5.59 0.12,-0.22 0.21,-0.44 0.311,-0.65 0.1,-0.35 0.22,-0.7 0.33,-1.05 0.1,-0.279 0.17,-0.57 0.22,-0.859 0.1,-0.811 -0.07,-1.461 -0.53,-1.961 0,-0.01 0,-0.02 -0.01,-0.02 -0.42,-0.29 -1.84,-0.891 -2.58,-1.12 -0.01,-0.011 -0.021,-0.011 -0.03,-0.011 -0.14,-0.029 -0.29,-0.059 -0.45,-0.079 0.311,-2.82 1.381,-3.56 3.44,-1.49 1,1.021 1.83,2.24 2.72,3.39 0.33,0.43 0.65,0.86 1,1.271 0.351,0.399 0.71,0.67 1.101,1 0.01,0.01 0.02,-0.29 0.029,-0.29 0.601,0.49 1.271,0.57 2.04,0.57 h 0.011 c 0.21,0 0.42,-0.02 0.63,0.02 0.109,0.021 0.22,-0.02 0.34,-0.02 h 0.27 c 0.011,0 0.011,0 0.021,0 0.01,0 0.01,0 0.02,0 0.101,0 0.2,0.399 0.3,0.37 0.44,-0.101 0.841,0.025 1.25,-0.065 0.141,-0.04 0.271,0.008 0.41,-0.053 0.4,-0.199 1.11,-0.071 1.84,0.158 0.061,0.01 0.131,0.07 0.211,0.08 0.539,0.16 0.979,0.379 1.31,0.639 0.02,0.01 0.04,0.026 0.06,0.047 0.48,0.289 0.841,0.631 0.931,0.941 0.04,0.14 0.069,0.301 0.09,0.451 0.09,0.57 0.05,1.18 -0.061,1.801 -0.01,0.02 -0.01,0.041 -0.01,0.061 -0.12,0.949 -0.399,1.949 -0.649,2.891 -0.011,0.029 -0.011,0.059 -0.021,0.079 -0.04,0.19 -0.08,0.37 -0.1,0.56 -0.181,-0.039 -0.37,-0.08 -0.55,-0.119 -0.07,-0.01 -0.141,-0.01 -0.211,-0.04 -0.189,-0.03 -0.369,-0.08 -0.56,-0.12 0.021,-0.08 0.04,-0.17 0.06,-0.25 0,-0.01 0,-0.01 0.011,-0.02 0.04,-0.431 0.09,-0.971 0.09,-1.511 0,-0.7 -0.061,-1.42 -0.311,-2 -0.119,-0.229 -0.27,-0.45 -0.409,-0.63 -0.03,-0.04 -0.04,-0.061 -0.07,-0.08 -0.21,-0.189 -0.48,-0.33 -0.811,-0.39 -0.38,-0.08 -0.729,-0.05 -1.069,0.06 -0.28,0.131 -0.561,0.301 -0.82,0.48 -0.09,0.07 -0.189,0.16 -0.28,0.24 -0.04,0.039 -0.08,0.08 -0.119,0.119 -0.101,0.09 -0.19,0.2 -0.28,0.311 -0.021,0.05 -0.181,0.09 -0.21,0.14 -0.471,0.83 -0.337,1.69 -1.118,2.57 -0.068,0.069 -0.068,0.149 -0.068,0.22 v 0.01 c 0,0.59 -0.521,1.18 -0.771,1.78 -0.129,0.42 -0.297,0.87 -0.457,1.3 -0.01,0.021 0.105,0.041 0.096,0.061 -0.021,0.039 0.133,0.09 0.133,0.13 v 0.01 c 0,1 -1.07,1.88 -1.861,2.261 -0.029,0.029 -0.146,0.039 -0.176,0.049 -0.541,0.32 -1.158,0.291 -1.777,-0.06 -0.051,-0.021 -0.141,-0.06 -0.211,-0.101 -1.256,-0.671 -2.315,-2.261 -2.785,-3.31 z m 9.34,38.15 c -1.2,-1.71 -2.7,-3.31 -3.64,-5.149 -0.42,-0.801 -0.141,-2.07 0.05,-3.091 0.82,-4.46 -0.24,-5.56 -5.1,-5.729 1.22,-0.53 3,-1.471 3.55,-1.07 0.84,0.6 1.63,0.16 2.41,0.93 0.069,0.061 0.13,-0.109 0.189,-0.109 0,0 0,0 0.01,0 0.11,0 0.2,0 0.311,0 0,0 0,0 0.01,0 0.32,0 0.62,0.16 0.93,0.16 0.15,0 0.301,0.025 0.45,0.015 0.061,-0.01 0.12,0.008 0.19,-0.013 0,0 0.01,0.019 0.02,0.008 0.141,-0.02 0.28,-0.029 0.42,-0.06 0.181,-0.04 0.37,-0.091 0.551,-0.151 0.21,-0.06 0.42,-0.154 0.64,-0.244 l 0.12,-0.059 c 0.109,-0.049 0.22,-0.098 0.33,-0.158 0.14,-0.069 0.279,-0.149 0.439,-0.239 0.141,-0.08 0.28,-0.179 0.42,-0.279 0.12,-0.06 0.23,-0.14 0.341,-0.22 0.109,-0.08 0.229,-0.9 0.34,-0.99 0.02,-0.01 0.029,-0.77 0.05,-0.77 0,0 0,0 0.01,0 0.061,0 0.13,0.59 0.21,0.54 0.22,-0.21 0.47,-0.045 0.75,-0.245 -0.3,0.26 -0.58,0.797 -0.87,1.027 -0.04,0.01 -0.06,0.078 -0.09,0.108 -0.54,0.521 -0.93,1.069 -1.21,1.61 -0.29,0.569 -0.46,1.158 -0.54,1.748 -0.22,1.5 0.13,3.047 0.37,4.566 0.06,0.41 0.12,0.821 0.16,1.221 0.04,0.41 0.423,0.822 0.403,1.232 -0.01,0.29 0.24,0.581 0.24,0.871 0,0.01 0,0.01 0,0.01 0,0.141 -0.33,0.27 -0.4,0.41 -0.85,1.379 -1.503,2.74 -2.064,4.12 z"
     id="path246" /><path
     style="stroke-width:0.364001"
     fill-rule="evenodd"
     clip-rule="evenodd"
     fill="#e79a00"
     d="m 316.53959,334.74571 c -0.01,0.02 -0.01,0.04 -0.01,0.061 -0.12,0.949 -0.399,1.949 -0.649,2.89 -0.011,0.03 -0.011,0.06 -0.021,0.079 -0.04,0.191 -0.08,0.371 -0.1,0.561 -0.181,-0.04 -0.37,-0.08 -0.55,-0.119 -0.07,-0.011 -0.141,-0.011 -0.211,-0.041 -0.189,-0.029 -0.369,-0.08 -0.56,-0.119 0.021,-0.08 0.04,-0.17 0.06,-0.25 0,-0.011 0,-0.011 0.011,-0.021 0.04,-0.431 0.09,-0.97 0.09,-1.511 0.36,-0.869 0.899,-2.039 1.63,-2.92 0.12,-0.149 0.24,-0.289 0.37,-0.409 0.09,0.569 0.05,1.179 -0.06,1.799 z"
     id="path248" /><path
     style="stroke-width:0.364001"
     fill-rule="evenodd"
     clip-rule="evenodd"
     fill="#e79a00"
     d="m 307.72959,340.59571 v 0.01 c -0.39,1 -0.92,1.881 -1.71,2.261 -0.03,0.03 -0.07,0.04 -0.1,0.05 -0.54,0.32 -1.12,0.29 -1.74,-0.061 -0.05,-0.02 -0.12,-0.06 -0.19,-0.1 -1.25,-0.67 -2.29,-2.26 -2.76,-3.31 -0.35,-0.74 -0.55,-1.46 -0.65,-2.181 -0.39,-1.84 -0.149,-3.75 0.74,-5.59 0.12,-0.22 0.21,-0.439 0.311,-0.65 0.1,-0.35 0.22,-0.699 0.33,-1.049 0.1,-0.28 0.17,-0.57 0.22,-0.86 0.1,-0.81 -0.07,-1.46 -0.53,-1.96 0,-0.01 0,-0.02 -0.01,-0.02 -0.42,-0.291 -1.84,-0.891 -2.58,-1.121 -0.01,-0.01 -0.021,-0.01 -0.03,-0.01 -0.14,-0.029 -0.29,-0.06 -0.45,-0.08 0.311,-2.82 1.381,-3.56 3.44,-1.49 1,1.021 1.83,2.24 2.72,3.391 0.33,0.43 0.65,0.859 1,1.27 0.351,0.4 0.71,0.67 1.101,1 0.01,0.01 0.02,0.021 0.029,0.021 -0.699,2.12 -1.319,4.12 -1,6.271 0.101,0.75 0.311,1.51 0.681,2.289 0.248,0.559 0.658,1.269 1.178,1.919 z"
     id="path250" /><path
     style="stroke-width:0.364001"
     fill-rule="evenodd"
     clip-rule="evenodd"
     fill="#e79a00"
     d="m 189.87959,360.37571 c -0.271,-0.14 -0.521,-0.26 -0.74,-0.37 -1.25,-2.77 -2.53,-4.029 -3.99,-4 0.021,-0.01 0.05,-0.01 0.08,-0.01 h 0.01 c 1.75,0 3.2,0.92 4.64,4.38 z"
     id="path252" /><path
     style="stroke-width:0.364001"
     fill-rule="evenodd"
     clip-rule="evenodd"
     fill="#e79a00"
     d="m 184.74959,358.61571 c -0.329,2.56 -0.64,4.909 -1,7.61 -0.21,-0.19 -0.409,-0.371 -0.6,-0.551 0.33,-2.52 0.63,-4.8 0.96,-7.289 0.23,0.081 0.44,0.16 0.64,0.23 z"
     id="path254" /><path
     style="stroke-width:0.364001"
     fill-rule="evenodd"
     clip-rule="evenodd"
     fill="#e79a00"
     d="m 178.37959,372.11571 c 0.84,-1.29 0.56,-3.29 -0.011,-4.979 -0.63,-1.83 -1.779,-3.48 -2.699,-5.211 0.319,-0.289 0.649,-0.58 0.979,-0.88 0.12,0.11 0.23,0.21 0.35,0.32 -0.069,0.06 -0.14,0.13 -0.21,0.19 0.87,1.64 1.971,3.209 2.561,4.949 0.7,2.081 0.94,4.632 -0.97,5.611 z"
     id="path256" /><path
     style="stroke-width:0.364001"
     fill-rule="evenodd"
     clip-rule="evenodd"
     fill="#e79a00"
     d="m 158.55959,142.61571 c -0.65,-0.15 -1.64,-0.04 -3.08,0.24 -0.69,0.13 -1.41,0.19 -2.12,0.28 -0.09,-0.34 -0.18,-0.68 -0.27,-1.03 1.609,-0.44 3.22,-0.88 4.779,-1.31 0.03,0.15 0.07,0.3 0.12,0.45 0.151,0.5 0.341,0.96 0.571,1.37 z"
     id="path258" /><path
     style="stroke-width:0.364001"
     fill-rule="evenodd"
     clip-rule="evenodd"
     fill="#e79a00"
     d="m 166.31959,155.84571 c -3.05,0.34 -5.43,-1.12 -6.34,-4.11 -0.49,-1.58 -0.52,-3.39 -0.36,-5.06 0.101,-1.11 0.141,-1.96 0.061,-2.59 1.24,1.19 2.97,1.71 4.979,1.49 1.33,-0.15 2.36,-0.67 3.051,-1.44 1.029,2.04 2.149,4.13 2.529,6.3 0.45,2.68 -0.88,5.07 -3.92,5.41 z"
     id="path260" /><path
     style="stroke-width:0.364001"
     fill-rule="evenodd"
     clip-rule="evenodd"
     fill="#e79a00"
     d="m 171.90959,172.74571 c -0.04,0.08 -0.05,0.18 -0.02,0.31 -0.53,-0.78 -1.09,-1.56 -1.561,-2.37 -0.119,-0.2 -0.13,-0.52 -0.09,-0.77 0.04,-0.23 0.221,-0.45 0.851,-1.75 0.17,0.2 0.34,0.4 0.51,0.61 0.24,0.31 0.49,0.63 0.74,0.95 0.14,0.18 0.279,0.36 0.42,0.53 -0.11,0.77 -0.38,1.6 -0.85,2.49 z"
     id="path262" /><path
     style="stroke-width:0.364001"
     fill-rule="evenodd"
     clip-rule="evenodd"
     fill="#e79a00"
     d="m 182.61959,174.92571 c -0.01,0.01 -0.02,0.02 -0.029,0.02 -0.36,0.17 -0.721,0.33 -1.101,0.47 -2.72,1 -3.71,2.48 -2.3,5.43 0.6,1.25 0.35,3.04 0.04,4.5 -0.08,0.4 -2.22,0.96 -2.64,0.58 -1.391,-1.24 -3.74,-3.56 -3.38,-4.24 1.47,-2.82 0.88,-4.98 -0.25,-6.96 0.76,0.87 1.76,1.82 2.5,2.48 0.439,0.4 2.689,-0.19 2.779,-0.61 0.09,-0.43 0.181,-0.89 0.24,-1.36 0.67,0.2 1.37,0.27 2.15,0.19 0.22,-0.01 0.449,-0.05 0.68,-0.1 0.229,-0.05 0.46,-0.12 0.7,-0.19 0.201,-0.06 0.401,-0.13 0.611,-0.21 z"
     id="path264" /><path
     style="stroke-width:0.364001"
     fill-rule="evenodd"
     clip-rule="evenodd"
     fill="#e79a00"
     d="m 262.21959,315.67571 c -0.51,0.58 -1.05,1.131 -1.561,1.67 -0.47,0.49 -2.76,0.24 -3.05,-0.3 -1.05,-1.95 -2.66,-4.5 -2.13,-6.22 0.97,-3.109 1.24,-4.98 -3.13,-5.46 0.21,-0.44 0.42,-0.89 0.63,-1.33 1.15,0 2.39,-0.29 3.39,0.069 0.931,0.341 1.82,0.82 2.681,1.351 0.05,0.851 -0.23,1.89 -0.61,3.12 -0.56,1.811 1.13,4.49 2.23,6.54 0.15,0.29 0.85,0.489 1.55,0.56 z"
     id="path266" /><path
     style="stroke-width:0.364001"
     fill-rule="evenodd"
     clip-rule="evenodd"
     fill="#e79a00"
     d="m 207.55559,292.48171 c -0.305,-0.711 -1.004,-1.318 -2.009,-1.963 -0.756,-0.471 -0.978,-1.762 -1.447,-2.674 0.939,0.193 1.935,0.286 2.839,0.608 0.138,0.046 0.268,0.102 0.404,0.147 1.015,1.025 1.181,2.149 0.213,3.882 z"
     id="path268" /><path
     style="stroke-width:0.364001"
     fill-rule="evenodd"
     clip-rule="evenodd"
     fill="#e79a00"
     d="m 213.72959,298.31571 v 0.027 c 0,0 0,0 0,0.009 v 0.276 c 0,0.452 0.055,0.876 -0.092,1.244 -0.709,1.724 -2.198,3.125 -3.358,4.664 -1.31,-1.078 -3.243,-1.926 -3.749,-3.3 -0.518,-1.373 -0.57,-3.364 -0.036,-4.783 0.019,0.82 0.171,1.632 0.419,2.304 0.535,1.447 2.492,2.342 3.865,3.475 0.996,-1.318 1.951,-2.534 2.951,-3.916 z"
     id="path270" /><path
     style="stroke-width:0.364001"
     fill-rule="evenodd"
     clip-rule="evenodd"
     fill="#e79a00"
     d="m 247.72959,259.81571 v 0.3 c 0,1.409 -0.48,2.83 -0.8,4.25 -0.53,0.14 -1,0.271 -1.53,0.409 -0.939,-1.879 -3.04,-4.119 -2.59,-5.559 1.76,-5.591 -1.39,-7.951 -5.61,-10.021 0.181,-0.511 0.351,-1.03 0.53,-1.56 1.51,0.619 3.41,0.85 4.44,1.92 1.159,1.189 2.229,2.189 3.42,2.67 -0.061,0.64 -0.21,1.33 -0.45,2.069 -0.44,1.432 1.54,3.622 2.59,5.522 z"
     id="path272" /><path
     style="stroke-width:0.364001"
     fill-rule="evenodd"
     clip-rule="evenodd"
     fill="#e79a00"
     d="m 265.72959,236.45571 c 0,0 0,0 0,0.011 v 0.059 c 0,2.281 -0.6,4.601 -2.68,7.221 -1.011,-2.57 -2.41,-4.4 -2.271,-6.1 0.41,-5.131 2.01,-10.3 -3.03,-14.601 0.74,-0.5 1.48,-0.99 2.221,-1.49 0.42,1.07 0.689,2.22 1.279,3.17 0.851,1.38 1.69,2.35 3.261,2.13 -0.13,1.57 -0.37,3.16 -0.49,4.75 -0.12,1.419 0.79,2.93 1.71,4.85 z"
     id="path274" /><path
     style="stroke-width:0.364001"
     fill-rule="evenodd"
     clip-rule="evenodd"
     fill="#e79a00"
     d="m 281.25959,203.84571 c -0.2,1.22 -1.16,2.32 -1.83,3.46 -1.03,-0.94 -2.54,-1.69 -2.91,-2.85 -0.59,-1.82 -0.92,-4.07 -0.37,-5.84 1.34,-4.32 -0.41,-7.4 -3.1,-10.35 -0.41,-0.46 -0.65,-1.07 -0.96,-1.6 0.39,-0.4 0.779,-0.95 1.17,-1.35 1.819,1.94 3.649,3.68 5.47,5.68 h 1.33 c -0.2,0.87 -0.22,1.83 -0.12,2.79 -0.07,0.08 -0.14,0.16 -0.21,0.24 v 1.42 c 0,0.01 0,0.02 0,0.02 1,0.97 0.77,2.09 1.2,3.25 0.55,1.54 0.62,3.48 0.33,5.13 z"
     id="path276" /><path
     style="stroke-width:0.364001"
     fill-rule="evenodd"
     clip-rule="evenodd"
     fill="#e79a00"
     d="m 257.49959,173.10571 c -1.27,1.76 -2.67,3.43 -4.029,5.13 -0.98,-1.91 -2.021,-3.8 -2.92,-5.75 -0.19,-0.41 -0.08,-1.1 0.14,-1.55 2.35,-4.79 1.75,-8.79 -3.83,-11.53 0.44,-0.45 0.87,-0.89 1.3,-1.33 1.351,0.73 3.08,1.15 3.98,2.25 0.399,0.49 0.79,0.92 1.189,1.28 -0.18,0.46 -0.25,1.09 -0.069,1.47 0.95,2.05 2.04,4.04 3.069,6.05 0.131,-0.17 0.271,-0.33 0.4,-0.5 0,0.91 0.41,1.89 0.75,2.93 0.16,0.48 0.28,1.21 0.02,1.55 z"
     id="path278" /><path
     style="stroke-width:0.364001"
     fill-rule="evenodd"
     clip-rule="evenodd"
     fill="#e79a00"
     d="m 222.29959,193.47571 c -1.551,1.27 -4.471,1.81 -6.44,1.31 -1.05,-0.28 -1.41,-3.42 -1.95,-5.3 -0.14,-0.44 0.04,-1.1 0.301,-1.52 2.409,-3.89 0.829,-6.1 -3.011,-7.49 -0.66,-0.24 -1.229,-0.82 -1.85,-1.26 1.62,-1.89 3.55,-0.37 5.34,0.64 0.03,0.02 0.05,0.03 0.08,0.05 -0.11,0.36 -0.16,0.75 -0.07,1.05 0.57,1.97 0.931,5.28 2.03,5.57 1.67,0.43 3.97,0.14 5.65,-0.69 0.01,0.03 0.02,0.05 0.029,0.08 0.25,0.62 0.36,1.24 0.561,1.88 0.55,1.75 0.41,4.77 -0.67,5.68 z"
     id="path280" /><path
     style="stroke-width:0.364001"
     fill-rule="evenodd"
     clip-rule="evenodd"
     fill="#e79a00"
     d="m 178.42959,209.43571 c -1.521,1.25 -3.8,2.16 -5.72,2.06 -0.801,-0.04 -2.431,-3.28 -2.011,-4.49 1.37,-3.99 -2.88,-3.62 -4.42,-6.35 1.04,0.05 2.08,0.19 3.101,0.29 0.39,1.45 1.409,3.13 2,3.16 1.5,0.07 3.21,-0.43 4.649,-1.24 0.17,0.63 0.61,1.28 1.23,2.02 0.961,1.15 1.721,4.1 1.171,4.55 z"
     id="path282" /><path
     style="stroke-width:0.364001"
     fill-rule="evenodd"
     clip-rule="evenodd"
     fill="#e79a00"
     d="m 189.11959,257.75571 c -0.949,3.01 -1.87,5.971 -2.8,8.94 -2.399,-2.479 -1.64,-6.931 -6.38,-5.55 -0.39,2.24 -0.43,4.51 -1.2,6.49 -0.93,2.369 -3.319,3.739 -5.39,2.049 -1.09,-0.91 -2.021,-3.66 -1.84,-4.979 0.18,0.24 0.359,0.45 0.55,0.601 2.17,1.779 4.689,0.34 5.66,-2.16 0.569,-1.471 0.77,-3.101 0.97,-4.771 0.09,-0.68 0.17,-1.37 0.29,-2.05 0.65,-0.189 1.2,-0.27 1.67,-0.27 0.12,0 0.23,0.01 0.34,0.02 1.21,0.109 1.86,0.85 2.37,1.83 0.05,0.09 0.09,0.18 0.14,0.27 0.051,0.1 0.101,0.211 0.15,0.32 0.061,0.141 0.12,0.279 0.18,0.43 0.021,0.03 0.04,0.07 0.061,0.12 0.46,1.06 0.93,2.21 1.81,3.11 0.36,-1.17 0.73,-2.33 1.09,-3.5 0.779,-0.2 1.559,-0.5 2.329,-0.9 z"
     id="path284" /><path
     style="stroke-width:0.364001"
     fill-rule="evenodd"
     clip-rule="evenodd"
     fill="none"
     d="m 151.90959,79.60771 c -4.174,-1.523 -3.132,-4.44 -2.816,-7.733 3.745,1.77 3.009,4.573 2.816,7.733 z"
     id="path286" /><path
     style="stroke-width:0.364001"
     fill-rule="evenodd"
     clip-rule="evenodd"
     fill="none"
     d="m 278.87359,464.94471 c 0.102,-1.71 0.202,-3.421 0.304,-5.132 0.388,-0.188 0.775,-0.375 1.162,-0.562 0.728,0.989 2.128,2.06 2.018,2.946 -0.147,1.207 -1.446,2.274 -2.251,3.401 -0.412,-0.216 -0.823,-0.435 -1.233,-0.653 z"
     id="path288" /><path
     style="stroke-width:0.364001"
     fill-rule="evenodd"
     clip-rule="evenodd"
     fill="none"
     d="m 260.13859,76.95371 c -4.35,0.262 -4.881,-1.155 -2.447,-6.183 0.894,2.26 1.597,4.034 2.447,6.183 z"
     id="path290" /><path
     style="stroke-width:0.364001"
     fill-rule="evenodd"
     clip-rule="evenodd"
     fill="none"
     d="m 292.92259,463.00471 c 5.494,-0.326 3.49,2.167 2.212,5.297 -0.944,-2.262 -1.578,-3.779 -2.212,-5.297 z"
     id="path292" /><path
     style="stroke-width:0.364001"
     fill-rule="evenodd"
     clip-rule="evenodd"
     fill="none"
     d="m 269.49159,453.10371 c 1.003,2.469 -1.094,2.985 -4.033,3.009 0.742,-1.279 1.484,-2.558 2.227,-3.838 0.601,0.278 1.203,0.553 1.806,0.829 z"
     id="path294" /><path
     style="stroke-width:0.364001"
     fill-rule="evenodd"
     clip-rule="evenodd"
     fill="none"
     d="m 136.58959,78.81171 c 0.745,1.643 1.491,3.287 2.236,4.93 -0.574,0.261 -1.149,0.521 -1.723,0.782 -0.737,-1.646 -1.474,-3.292 -2.21,-4.938 0.566,-0.257 1.133,-0.515 1.697,-0.774 z"
     id="path296" /><path
     style="stroke-width:0.364001"
     fill-rule="evenodd"
     clip-rule="evenodd"
     d="m 247.38959,396.95571 c 0.02,0.38 0.03,0.75 0.05,1.13 -0.28,0.33 -0.55,0.62 -0.9,0.79 -0.52,0.05 -1.159,0.06 -1.64,0.06 -0.15,-0.049 -0.3,-0.119 -0.45,-0.189 -0.16,-0.08 -0.31,-0.18 -0.46,-0.27 -0.33,-0.811 -0.71,-1.74 -1.09,-2.701 -1.11,-2.779 -2.24,-5.709 -2.11,-5.989 0.391,-0.38 1.21,-0.521 1.891,-0.62 2.02,-0.32 3.25,-0.51 3.96,-0.311 1.12,0.311 1.02,1.57 0.76,4.74 -0.091,1.121 -0.061,2.24 -0.011,3.36 z"
     id="path436" /><path
     style="stroke-width:0.364001"
     fill-rule="evenodd"
     clip-rule="evenodd"
     d="m 258.60959,397.68471 c -1.7,2.25 -2.79,4.23 -4.39,5.621 -0.49,0.42 -1.391,0.369 -2.32,0.279 -0.5,-0.04 -1,-0.1 -1.45,-0.09 0.07,-0.73 -0.08,-1.641 0.101,-2.29 0.05,-0.17 0.12,-0.319 0.22,-0.44 6.99,-8.85 7.72,-24.59 1.47,-33.789 -1.88,-2.771 -4.62,-4.25 -7.31,-4.311 -2.7,-0.07 -5.351,1.28 -7.07,4.18 -4.439,7.53 -7.78,15.69 -6.979,24.83 0.21,2.37 0.68,4.25 1.51,5.76 0,0.011 0.01,0.011 0.01,0.011 1.37,2.521 3.75,4.03 7.58,5.14 0.3,0.09 0.59,0.17 0.89,0.27 1.091,0.311 2.181,0.65 3.261,0.98 0.01,0.131 0.02,0.25 0.02,0.381 0.021,0.25 0.04,0.5 0.05,0.739 -1.979,0.72 -3.97,1.431 -5.95,2.149 0.11,0.431 0.23,0.851 0.341,1.281 2.37,-0.471 4.739,-0.951 7.12,-1.4 1.38,-0.26 2.89,-0.92 4.13,-0.6 5.306,1.389 9.606,-2.39 8.766,-8.701 z m -15.2,2.311 h -0.029 c -1.5,0 -3.181,-0.279 -4.141,-0.529 -0.3,-0.091 -0.59,-0.281 -0.859,-0.41 -0.431,-0.211 -0.851,-0.521 -1.23,-0.82 -0.11,-0.08 -0.22,-0.19 -0.32,-0.29 -0.05,-0.05 -0.1,-0.091 -0.149,-0.15 -0.04,-0.04 -0.08,-0.079 -0.12,-0.12 -0.01,0 -0.021,-0.01 -0.03,-0.02 -0.12,-0.12 -0.24,-0.25 -0.35,-0.391 0.01,-0.01 0.01,-0.01 0,-0.01 -0.141,-0.15 -0.26,-0.31 -0.37,-0.48 -0.1,-0.149 -0.19,-0.309 -0.28,-0.469 -0.3,-0.511 -0.55,-1.08 -0.75,-1.69 -2.39,-7.25 -0.229,-14.011 2.5,-20.61 1.09,-2.619 2.51,-5.31 4.44,-7.34 2.37,-2.5 5.22,-2.52 7.2,0.891 0.18,0.319 0.359,0.629 0.529,0.949 0.46,0.86 0.88,1.75 1.25,2.65 0.13,0.3 0.25,0.609 0.36,0.91 0.16,0.41 0.3,0.83 0.439,1.24 0.11,0.33 0.211,0.649 0.301,0.979 1.18,3.96 1.62,8.19 1.37,12.33 -0.19,3.25 -0.82,6.45 -1.86,9.43 -0.5,1.431 -2.08,2.521 -3.37,3.12 -0.69,0.33 -1.29,0.52 -1.6,0.551 -0.391,0.058 -1.581,0.279 -2.931,0.279 z"
     id="path438" /><path
     style="stroke-width:0.364001"
     fill-rule="evenodd"
     clip-rule="evenodd"
     d="m 312.10959,251.10471 c -0.09,-0.549 -0.229,-1.08 -0.399,-1.58 -0.261,-0.84 -0.61,-1.6 -1.03,-2.289 -0.16,-0.27 -0.33,-0.53 -0.51,-0.78 -0.011,0 -0.011,-0.01 -0.011,-0.01 -0.189,-0.25 -0.38,-0.479 -0.58,-0.7 -2.64,-2.87 -6.819,-3.561 -11.31,-1.18 -6.43,-6.2 -9.67,-6.461 -13.43,-1.73 0.739,1.95 1.359,3.45 1.88,4.99 0.96,2.85 1.6,5.859 2.92,8.529 0.59,1.201 2.5,1.75 3.82,2.591 0.43,-1.47 1.489,-3.101 1.159,-4.39 -0.729,-2.91 -2.1,-5.67 -3.29,-8.461 -0.5,-1.17 -1.21,-2.25 -2.159,-3.97 7.659,-0.149 5.5,6.74 8.699,10.11 0.841,-1.59 1.62,-2.811 2.141,-4.12 1.71,-4.25 3.359,-4.8 6.529,-1.479 1.431,1.489 2.601,3.209 3.75,4.949 0.69,1.051 1.37,2.1 2.08,3.11 0.011,0 0.011,0.01 0.011,0.01 0.04,-1.289 -0.05,-2.499 -0.27,-3.6 z m -22.04,-2.548 c 0.7,1.77 1.42,3.549 2.13,5.33 -0.5,0.159 -0.989,0.31 -1.479,0.469 -0.63,-1.779 -1.25,-3.569 -1.88,-5.35 0.409,-0.151 0.819,-0.3 1.229,-0.449 z"
     id="path440" /><path
     style="stroke-width:0.364001"
     fill-rule="evenodd"
     clip-rule="evenodd"
     d="m 189.13959,360.00571 c -1.25,-2.77 -2.53,-4.029 -3.99,-4 -0.05,0.01 -0.1,0.01 -0.15,0.02 -0.97,0.07 -2.02,0.711 -3.199,1.851 -0.73,0.71 -2.051,1.03 -3.19,1.12 -0.11,0.01 -0.21,0.02 -0.31,0.02 -3.08,0.121 -6.15,0.07 -9.23,0.061 -0.66,-0.01 -1.33,-0.01 -1.99,-0.01 3.17,2.02 3.971,4.59 3.431,7.92 -0.141,0.89 0.06,2.22 0.64,2.75 1.61,1.47 3.78,3.93 5.24,3.63 0.96,-0.19 1.6,-0.64 1.99,-1.25 0.84,-1.29 0.56,-3.29 -0.011,-4.979 -0.63,-1.83 -1.779,-3.48 -2.699,-5.211 0.319,-0.289 0.649,-0.58 0.979,-0.88 0.12,0.11 0.23,0.21 0.35,0.32 1.761,1.61 3.551,3.25 5.99,5.47 0.05,-0.39 0.101,-0.779 0.16,-1.16 0.33,-2.52 0.63,-4.8 0.96,-7.289 0.23,0.08 0.44,0.159 0.64,0.229 0.79,0.28 1.391,0.489 1.98,0.739 0.75,0.32 1.47,0.711 2.71,1.33 -0.101,-0.241 -0.201,-0.461 -0.301,-0.681 z m -12.72,10.09 c -0.46,0.19 -0.921,0.381 -1.391,0.57 -0.74,-1.66 -1.479,-3.311 -2.22,-4.97 0.46,-0.21 0.92,-0.41 1.38,-0.62 0.741,1.68 1.491,3.35 2.231,5.02 z"
     id="path442" /><path
     style="stroke-width:0.364001"
     fill-rule="evenodd"
     clip-rule="evenodd"
     fill="#e79a00"
     d="m 178.60959,358.99571 c -0.11,0.01 -0.21,0.02 -0.31,0.02 -3.08,0.121 -6.15,0.07 -9.23,0.061 -0.03,-0.03 -0.07,-0.051 -0.1,-0.08 0,0 0,0 -0.01,0 -0.11,0 -0.221,-0.08 -0.341,-0.17 3.341,-10e-4 6.651,0.169 9.991,0.169 z"
     id="path444" /><path
     style="stroke-width:0.364001"
     fill-rule="evenodd"
     clip-rule="evenodd"
     d="m 277.94959,335.71671 c -3.279,-6.681 -5.569,-15.101 -14.72,-13.641 -7.75,1.24 -12.84,6.65 -13.9,15.48 -3.08,-2.391 -3.18,-6 -0.279,-9.61 4.699,-5.851 14.489,-11.94 20.83,-7.75 7.249,4.79 10.759,10.55 8.069,15.521 z"
     id="path446" /><path
     style="stroke-width:0.364001"
     fill-rule="evenodd"
     clip-rule="evenodd"
     d="m 225.51959,331.32571 c -5.8,-4.29 -10.15,-11.75 -18.66,-6.68 -6.55,3.89 -9.93,9.66 -10.66,17.279 -0.47,0.021 -0.939,0.041 -1.42,0.061 -0.51,-1.28 -1.56,-2.62 -1.45,-3.85 0.58,-6.5 8.79,-15.871 15.04,-17.521 6.61,-1.739 16.59,4.001 17.15,10.711 z"
     id="path448" /><path
     style="stroke-width:0.364001"
     fill-rule="evenodd"
     clip-rule="evenodd"
     fill="#e79a00"
     d="m 263.51959,313.25571 c -0.62,0.15 -1.24,0.301 -1.87,0.45 -0.4,-1.819 -0.81,-3.63 -1.21,-5.45 0.57,-0.14 1.15,-0.279 1.72,-0.42 0.45,1.81 0.91,3.62 1.36,5.42 z"
     id="path450" /><path
     style="stroke-width:0.364001"
     fill-rule="evenodd"
     clip-rule="evenodd"
     d="m 185.53959,322.36571 c -1.27,-1.181 -2.319,-2.22 -3.43,-3.13 -1.13,-0.92 -2.38,-1.721 -4.38,-3.141 v 7.15 c -2,-1.63 -2.95,-2.561 -4.05,-3.34 -1.04,-0.74 -2.181,-1.33 -3.28,-1.99 -0.289,0.221 -0.56,0.45 -0.85,0.68 0.77,1.98 1.745,3.91 2.215,5.95 0.26,1.15 -0.338,2.49 -0.547,3.74 -1.09,-0.79 -2.739,-1.351 -3.18,-2.42 -1.829,-4.39 -3.279,-8.92 -4.96,-13.62 0.561,0.09 1.592,-0.05 1.941,0.37 3.479,4.3 7.42,4.43 12.15,2.069 3.431,-1.698 8.841,3.123 8.371,7.682 z"
     id="path452" /><path
     style="stroke-width:0.364001"
     fill-rule="evenodd"
     clip-rule="evenodd"
     d="m 261.81959,151.82571 c -2.979,1.93 -4.87,0.96 -6.899,-1.54 -0.94,-1.16 -2.761,-1.6 -4.181,-2.37 -0.46,0.47 -0.91,0.93 -1.37,1.4 5.87,2.88 6.5,7.09 4.03,12.13 -0.03,0.05 -0.05,0.1 -0.07,0.16 -0.18,0.46 -0.25,1.09 -0.069,1.47 0.95,2.05 2.04,4.04 3.069,6.05 0.131,-0.17 0.271,-0.33 0.4,-0.5 1.3,-1.62 2.64,-3.22 3.85,-4.9 0.19,-0.26 0.2,-0.72 0.12,-1.15 -0.02,-0.17 -0.06,-0.33 -0.109,-0.48 -0.091,-0.27 -0.181,-0.53 -0.25,-0.79 -1.351,-4.6 -0.42,-8.01 5.229,-9.08 0.08,-0.01 0.08,-0.48 0.18,-1.14 -1.41,0.24 -2.92,0.09 -3.93,0.74 z m -3.91,13.82 c -0.39,0.05 -0.79,0.09 -1.18,0.15 -0.12,0.01 -0.23,0.02 -0.35,0.04 -0.131,-1.02 -0.25,-2.05 -0.37,-3.07 -0.05,-0.4 -0.101,-0.8 -0.15,-1.2 0.51,-0.07 1.021,-0.14 1.54,-0.21 0.04,0.36 0.08,0.71 0.13,1.07 0.07,0.63 0.15,1.26 0.22,1.89 0.05,0.44 0.11,0.89 0.16,1.33 z"
     id="path454" /><path
     style="stroke-width:0.364001"
     fill-rule="evenodd"
     clip-rule="evenodd"
     d="m 285.44959,190.73571 c 0.58,1.62 0.53,3.62 0.23,5.36 -0.22,1.28 -1.29,2.42 -1.99,3.62 -1.09,-0.99 -2.74,-1.8 -3.13,-3.02 -0.29,-0.9 -0.521,-1.91 -0.62,-2.91 -0.1,-0.96 -0.08,-1.92 0.12,-2.79 0.03,-0.15 0.07,-0.3 0.11,-0.44 1.409,-4.54 -0.431,-7.78 -3.261,-10.89 -0.43,-0.48 -0.68,-1.12 -1.01,-1.68 0.41,-0.42 0.82,-0.77 1.23,-1.19 1.92,2.04 3.84,4.2 5.76,6.2 h 6.13 c 0.31,0 0.62,0.8 0.93,1.24 -7.019,-0.55 -5.869,2.7 -4.499,6.5 z"
     id="path456" /><path
     style="stroke-width:0.364001"
     fill-rule="evenodd"
     clip-rule="evenodd"
     d="m 152.00959,319.63671 c 0.25,-0.111 0.5,-0.261 0.77,-0.42 -0.28,0.138 -0.54,0.279 -0.77,0.42 z m -0.08,0.048 c -0.83,0.4 -1.58,0.61 -2.28,0.66 -0.13,0.01 -0.25,0.021 -0.38,0.021 -0.37,0 -0.73,-0.04 -1.07,-0.13 -0.109,-0.02 -0.229,-0.051 -0.34,-0.09 -0.58,-0.18 -1.13,-0.471 -1.66,-0.82 -0.26,-0.18 -0.51,-0.37 -0.77,-0.57 -0.13,-0.1 -0.26,-0.21 -0.38,-0.31 l -1.11,-0.99 c -0.24,-0.229 -0.49,-0.45 -0.74,-0.67 -0.13,-0.11 -0.25,-0.21 -0.38,-0.319 -1.35,-1.121 -3.149,-1.691 -4.75,-2.5 -0.22,0.409 -0.439,0.829 -0.66,1.25 0.891,0.76 1.75,1.549 2.67,2.26 3.04,2.35 6.65,4.199 3.221,9.209 -0.78,1.141 0.93,4.471 2.189,6.311 0.54,0.8 3.96,0.891 4.17,0.43 0.88,-1.91 1.04,-4.15 1.44,-6.279 0.04,-0.24 -0.07,-0.561 -0.21,-0.791 -0.25,-0.439 -0.48,-0.879 -0.66,-1.31 -0.12,-0.29 -0.22,-0.569 -0.3,-0.85 -0.04,-0.14 -0.08,-0.28 -0.101,-0.41 -0.229,-1.14 -0.029,-2.2 0.92,-3.17 0.301,-0.321 0.691,-0.631 1.181,-0.932 z m -4.39,12.282 c -0.609,-1.961 -1.22,-3.921 -1.829,-5.881 l 1.649,-0.57 c 0.7,1.931 1.4,3.86 2.101,5.791 -0.641,0.218 -1.281,0.439 -1.921,0.66 z"
     id="path458" /><path
     style="stroke-width:0.364001"
     fill-rule="evenodd"
     clip-rule="evenodd"
     d="m 169.08959,220.84571 c 0.899,-0.37 1.67,-1.04 2.5,-1.58 -3.391,0.46 -6.511,2.5 -9.511,2.34 -2.909,-0.16 -5.689,-2.58 -8.529,-4.01 -0.24,0.51 -0.49,1.02 -0.74,1.53 0.54,0.58 1.01,1.29 1.66,1.71 3.17,2.05 5.17,4.13 1.649,7.76 -0.63,0.65 0.12,2.641 0.23,4.01 2.12,-0.229 4.42,-0.049 6.29,-0.859 1.16,-0.5 2.68,-2.971 2.32,-3.76 -2.179,-4.661 0.931,-5.801 4.131,-7.141 z m -8.74,9.98 c -0.47,-0.59 -1.32,-1.17 -1.311,-1.75 0.011,-0.57 0.82,-1.5 1.391,-1.58 0.54,-0.08 1.21,0.721 2.24,1.42 -1,0.82 -1.66,1.359 -2.32,1.91 z"
     id="path460" /><path
     style="stroke-width:0.364001"
     fill-rule="evenodd"
     clip-rule="evenodd"
     d="m 158.22959,285.60471 c -1.43,2.271 -3.01,5.08 -4.92,7.641 -0.9,1.21 -2.36,2.2 -3.771,2.75 -0.56,0.21 -2.439,-1.07 -2.409,-1.58 0.109,-1.51 0.439,-3.48 1.46,-4.34 2.729,-2.29 2.149,-4.17 -0.051,-6.15 -2.319,-2.08 -4.729,-4.07 -7.1,-6.1 0.09,-0.34 0.17,-0.68 0.25,-1.02 1.39,0.239 2.93,0.189 4.13,0.81 1.44,0.739 2.73,1.92 3.811,3.149 2.63,3.001 4.83,6.711 8.6,4.84 z"
     id="path462" /><path
     style="stroke-width:0.364001"
     fill-rule="evenodd"
     clip-rule="evenodd"
     d="m 318.30959,284.92571 c -1.47,-0.459 -2.93,-0.92 -5.19,-1.63 0.471,4.05 1.051,7.38 1.16,10.729 0.04,1.41 -0.89,2.861 -1.38,4.291 -1.18,-1.19 -2.75,-2.18 -3.439,-3.6 -0.75,-1.541 -1.03,-3.49 -0.931,-5.23 0.42,-7.221 0.5,-7.221 -2.149,-13.131 4.46,2.871 8.369,5.391 12.29,7.92 -0.121,0.211 -0.241,0.442 -0.361,0.651 z"
     id="path464" /><path
     style="stroke-width:0.364001"
     fill-rule="evenodd"
     clip-rule="evenodd"
     d="m 210.99959,221.78571 c -2.27,-2.84 -2.739,-5.23 0.15,-7.81 0.34,-0.31 0.37,-0.97 0.88,-2.47 -4.41,3.76 -4.41,3.71 -10.51,3.65 -0.86,-0.01 -1.74,0.73 -2.61,1.13 4.17,1.11 5.61,2.26 3.641,6.55 -1.811,3.94 0.22,6.73 4.109,6.49 1.98,-0.12 4.36,-1.16 5.63,-2.6 0.65,-0.75 -0.27,-3.66 -1.29,-4.94 z m -4.14,5.55 c -0.85,-1.68 -1.39,-3.53 -2.02,-5.32 0.85,-0.32 1.699,-0.64 2.55,-0.96 0.78,1.89 1.56,3.78 2.35,5.67 -1,0.22 -2.76,0.84 -2.88,0.61 z"
     id="path466" /><path
     style="stroke-width:0.364001"
     fill-rule="evenodd"
     clip-rule="evenodd"
     d="m 178.19959,171.86571 c 0.45,0.94 0.45,2.18 0.28,3.37 -0.06,0.47 -0.15,0.93 -0.24,1.36 -0.09,0.42 -2.34,1.01 -2.779,0.61 -0.74,-0.66 -1.74,-1.61 -2.5,-2.48 -0.57,-0.66 -1,-1.27 -1.07,-1.67 -0.03,-0.13 -0.021,-0.23 0.02,-0.31 0.471,-0.89 0.74,-1.72 0.851,-2.49 0.55,-3.61 -2.181,-6.16 -3.88,-9.07 -0.131,-0.22 -0.141,-0.55 -0.101,-0.81 0.05,-0.25 0.23,-0.48 0.9,-1.85 0.18,0.21 0.35,0.43 0.53,0.65 0.26,0.32 0.52,0.66 0.779,0.99 0.601,0.77 1.2,1.55 1.82,2.28 0.18,0.21 0.35,0.41 0.53,0.61 0.72,0.8 1.479,1.51 2.3,2.05 0.2,0.14 0.41,0.26 0.62,0.37 0,0 0,0.01 0.01,0.01 0.32,0.17 0.64,0.31 0.979,0.42 0.75,0.26 1.561,0.36 2.461,0.26 0.229,-0.01 0.47,-0.05 0.72,-0.11 0.229,-0.04 0.479,-0.11 0.729,-0.19 0.2,-0.06 0.4,-0.13 0.61,-0.21 -0.38,0.18 -0.76,0.35 -1.15,0.5 -2.869,1.05 -3.909,2.61 -2.419,5.71 z"
     id="path468" /><path
     style="stroke-width:0.364001"
     fill-rule="evenodd"
     clip-rule="evenodd"
     d="m 183.35959,164.88571 c -0.2,0.12 -0.399,0.22 -0.6,0.32 -0.16,0.09 -0.33,0.17 -0.49,0.23 -0.12,0.06 -0.23,0.11 -0.35,0.15 0.029,-0.01 0.05,-0.03 0.079,-0.04 0.451,-0.22 0.911,-0.45 1.361,-0.66 z"
     id="path470" /><path
     style="stroke-width:0.364001"
     fill-rule="evenodd"
     clip-rule="evenodd"
     d="m 279.57959,120.94571 c -4.699,-1.01 -9.399,-2.02 -14.1,-3.03 -0.19,0.34 -0.39,0.67 -0.58,1 4.04,1.52 5.24,3.57 3.021,7.58 -1.431,2.58 -0.801,5.89 2.489,7.37 2.351,1.06 5.53,-1.39 6.051,-4.77 0.229,-1.5 -0.41,-3.16 -0.811,-4.71 -0.22,-0.9 -0.74,-1.73 -1.5,-3.44 2.42,0.59 3.8,0.92 5.17,1.25 0.09,-0.41 0.17,-0.83 0.26,-1.25 z m -7.43,11.5 c -3.29,-2.57 -2.49,-4.99 -0.29,-8.06 2.55,3.02 3.22,5.4 0.29,8.06 z"
     id="path472" /><path
     style="stroke-width:0.364001"
     fill-rule="evenodd"
     clip-rule="evenodd"
     d="m 174.10959,397.85471 c 0.03,0.291 -3.06,1.591 -3.81,1.091 -1.641,-1.101 -3.011,-2.91 -3.931,-4.71 -1.05,-2.07 -1.489,-4.44 -2.29,-6.98 2.641,-1.189 5.86,-2.66 9.091,-4.13 0.3,0.341 0.6,0.67 0.899,1.011 -0.89,0.5 -1.93,0.85 -2.63,1.539 -1.67,1.66 -2.52,3.43 0.271,4.94 0.35,0.19 0.8,0.489 0.899,0.83 0.611,2.111 1.301,4.239 1.501,6.409 z"
     id="path474" /><path
     style="stroke-width:0.364001"
     fill-rule="evenodd"
     clip-rule="evenodd"
     d="m 177.38959,199.86571 c -0.12,-0.49 -0.3,-1.02 -0.51,-1.49 -0.21,-0.48 -0.45,-0.92 -0.71,-1.23 -1.521,-1.83 -2.04,-3.11 -0.2,-4.88 0.58,-0.56 0.89,-1.41 1.319,-2.12 -0.25,-0.48 -0.489,-0.96 -0.729,-1.44 -2.41,6.11 -7.18,4.23 -11.94,4 1.62,2.87 6.091,2.48 4.65,6.67 -0.13,0.38 -0.07,0.95 0.11,1.57 0.39,1.45 1.409,3.13 2,3.16 1.5,0.07 3.21,-0.43 4.649,-1.24 0.5,-0.28 0.96,-0.59 1.37,-0.93 0.291,-0.23 0.241,-1.1 -0.009,-2.07 z m -3.99,2.62 c -0.189,-0.49 -0.37,-0.99 -0.56,-1.48 -0.21,-0.56 -0.42,-1.11 -0.63,-1.67 0.42,-0.18 0.829,-0.36 1.25,-0.54 0.3,0.6 0.6,1.21 0.89,1.82 0.21,0.42 0.42,0.85 0.63,1.28 -0.53,0.2 -1.06,0.39 -1.58,0.59 z"
     id="path476" /><path
     style="stroke-width:0.364001"
     fill-rule="evenodd"
     clip-rule="evenodd"
     d="m 212.46959,143.88571 c -3.37,-1.13 -6.95,-2.34 -10.521,-3.54 1.49,3.64 7.261,3.89 4.3,9.47 -0.729,1.4 0.23,4.18 1.25,5.8 0.49,0.79 4.12,0.81 4.261,0.42 0.79,-2.13 1.12,-4.48 1.22,-6.77 0.08,-1.99 -0.36,-4.01 -0.51,-5.38 z m -3.03,10.18 c -0.35,-1.27 -0.7,-2.54 -1.05,-3.81 0.51,-0.15 1.02,-0.31 1.52,-0.46 0.34,1.28 0.681,2.56 1.021,3.85 -0.501,0.14 -1.001,0.28 -1.491,0.42 z"
     id="path478" /><path
     style="stroke-width:0.364001"
     fill-rule="evenodd"
     clip-rule="evenodd"
     d="m 151.87959,177.11571 c -0.131,0.1 -0.261,0.2 -0.37,0.31 -0.12,0.11 -0.23,0.22 -0.33,0.34 -0.101,0.1 -0.19,0.21 -0.26,0.32 -0.011,0.01 -0.021,0.03 -0.03,0.04 -0.07,0.1 -0.141,0.21 -0.19,0.32 -0.02,0.02 -0.04,0.05 -0.04,0.07 -0.06,0.11 -0.109,0.23 -0.149,0.34 -0.061,0.13 -0.09,0.26 -0.12,0.39 -0.03,0.11 -0.05,0.23 -0.07,0.35 -0.12,0.87 0.09,1.87 0.55,3.05 0.41,1.05 -0.67,3.25 -1.72,4.16 -0.93,0.8 -3.11,1.11 -4.13,0.55 -1.021,-0.56 -2.16,-2.91 -1.75,-3.73 1.84,-3.71 0.06,-6.19 -2.24,-9.11 3.899,-0.52 6.779,4.11 10.849,2.6 z"
     id="path480" /><path
     style="stroke-width:0.364001"
     fill-rule="evenodd"
     clip-rule="evenodd"
     d="m 153.75959,176.01571 c -0.641,0.51 -1.261,0.86 -1.851,1.09 0,0 0,0 -0.01,0 0.19,-0.16 0.41,-0.3 0.64,-0.44 0.361,-0.22 0.761,-0.44 1.221,-0.65 z"
     id="path482" /><path
     style="stroke-width:0.364001"
     fill-rule="evenodd"
     clip-rule="evenodd"
     d="m 258.61959,278.59571 c 0.301,-0.06 0.61,-0.149 0.92,-0.27 -0.149,0.12 -0.29,0.24 -0.42,0.37 -0.029,0.021 -0.05,0.05 -0.069,0.069 -0.28,0.271 -0.521,0.561 -0.71,0.851 -0.011,0.01 -0.021,0.021 -0.021,0.03 -0.109,0.149 -0.239,0.3 -0.319,0.449 -0.09,0.16 -0.271,0.32 -0.271,0.48 v 0.01 c 0,0.17 -0.069,0.33 -0.1,0.51 -0.04,0.15 -0.045,0.301 -0.055,0.45 -0.021,0.06 -0.009,0.12 -0.009,0.181 -0.109,1.09 0.157,2.33 0.777,3.81 0.74,1.75 -0.438,4.34 -0.957,6.489 -0.04,0.16 -2.619,0.16 -2.799,-0.27 -0.851,-2.039 -1.499,-4.22 -1.8,-6.41 -0.409,-2.959 -0.448,-5.97 -0.648,-9.06 0.82,0.64 1.76,1.319 2.8,1.8 0.24,0.11 0.47,0.2 0.72,0.29 0.69,0.24 1.431,0.37 2.21,0.32 0.07,0 0.15,-0.011 0.221,-0.021 0.17,-0.008 0.35,-0.037 0.53,-0.078 z"
     id="path484" /><path
     style="stroke-width:0.364001"
     fill-rule="evenodd"
     clip-rule="evenodd"
     d="m 262.01959,276.72571 c -0.64,0.58 -1.26,1.02 -1.87,1.319 -0.2,0.11 -0.4,0.2 -0.6,0.271 l 0.01,-0.01 c 0.16,-0.141 0.34,-0.271 0.52,-0.4 0.181,-0.131 0.381,-0.26 0.58,-0.4 0.21,-0.13 0.42,-0.26 0.65,-0.39 0.23,-0.13 0.46,-0.261 0.71,-0.39 z"
     id="path486" /><path
     style="stroke-width:0.364001"
     fill-rule="evenodd"
     clip-rule="evenodd"
     d="m 227.32959,363.26571 c -1.859,5.24 -6.71,8.99 -10.43,8.461 -6.16,-0.891 -8.99,-3.09 -9.33,-7.33 3.51,1.52 7.33,4.68 10.4,4.06 3.06,-0.61 5.359,-5.01 8.649,-8.431 0.181,0.74 1.071,2.21 0.711,3.24 z"
     id="path488" /><path
     style="stroke-width:0.364001"
     fill-rule="evenodd"
     clip-rule="evenodd"
     d="m 319.78959,362.02471 c -0.079,0.061 -0.149,0.131 -0.22,0.211 0.03,-0.03 0.061,-0.061 0.101,-0.08 0.3,-0.24 0.6,-0.5 0.909,-0.77 -0.29,0.21 -0.55,0.421 -0.79,0.639 z m -0.64,0.511 c -0.11,0.09 -0.229,0.17 -0.35,0.239 -0.15,0.101 -0.301,0.201 -0.45,0.291 -0.16,0.09 -0.311,0.18 -0.46,0.25 -0.16,0.09 -0.311,0.16 -0.47,0.229 -0.23,0.101 -0.45,0.19 -0.681,0.261 -0.189,0.06 -0.38,0.119 -0.569,0.149 -0.15,0.04 -0.301,0.069 -0.45,0.08 -0.01,0.01 -0.021,0 -0.021,0 -0.069,0.021 -0.13,0.021 -0.2,0.03 -0.159,0.01 -0.31,0.02 -0.47,0.02 -1.3,0 -2.63,-0.48 -4.069,-1.52 -0.58,-0.42 -2.471,0.979 -3.75,1.539 5.109,0.181 6.199,1.341 5.34,6.031 -0.2,1.069 -0.561,2.409 -0.12,3.25 1,1.93 2.46,3.619 3.729,5.409 0.771,-1.899 2.09,-3.771 2.17,-5.69 0.04,-0.84 -0.069,-1.699 -0.21,-2.569 -0.449,-2.8 -1.229,-5.67 1.391,-8.261 -0.12,0.092 -0.24,0.182 -0.36,0.262 z m -3.92,12.649 c -0.23,-1.569 -0.46,-3.129 -0.69,-4.699 0.4,-0.08 0.811,-0.17 1.21,-0.26 0.381,1.549 0.771,3.09 1.15,4.64 -0.56,0.101 -1.11,0.21 -1.67,0.319 z"
     id="path490" /><path
     style="stroke-width:0.364001"
     fill-rule="evenodd"
     clip-rule="evenodd"
     d="m 264.97959,355.07571 c -0.63,2.34 -0.68,5.16 -2.09,6.87 -1.061,1.3 -4.16,2.069 -5.811,1.5 -3.68,-1.261 -6.33,-4.03 -6.08,-8.63 2.37,1.949 4.461,4.74 7.181,5.64 4.45,1.479 3.399,-3.94 5.399,-5.76 0.471,0.13 0.931,0.25 1.401,0.38 z"
     id="path492" /><path
     style="stroke-width:0.364001"
     fill-rule="evenodd"
     clip-rule="evenodd"
     d="m 224.07959,394.11571 c -0.51,0.319 -1.51,1.44 -2.59,1.53 -2.13,0.189 -5.14,-4.24 -4.85,-7.211 0.08,-0.819 1.31,-2.06 2.149,-2.18 2.471,-0.359 5.381,3.52 5.291,7.861 z"
     id="path494" /><path
     style="stroke-width:0.364001"
     fill-rule="evenodd"
     clip-rule="evenodd"
     d="m 270.25959,382.09571 c -0.21,0.83 -0.95,1.43 -1.91,1.891 -2.32,-0.561 -5.22,-1.02 -4.78,-4.37 0.141,-1.021 1,-2.011 1.88,-2.851 2.8,-0.491 5.62,2.169 4.81,5.33 z"
     id="path496" /><path
     style="stroke-width:0.364001"
     fill-rule="evenodd"
     clip-rule="evenodd"
     d="m 211.98959,338.99571 c -1.68,2.23 -2.84,3.779 -4.01,5.33 -1.13,-1.79 -3.02,-3.53 -3.15,-5.391 -0.09,-1.299 2.221,-2.77 3.45,-4.17 1.08,1.221 2.15,2.452 3.71,4.231 z"
     id="path498" /><path
     style="stroke-width:0.364001"
     fill-rule="evenodd"
     clip-rule="evenodd"
     d="m 266.66959,336.78571 c -1.221,1.14 -2.681,3.38 -3.631,3.181 -1.729,-0.371 -3.149,-2.181 -5.38,-3.91 1.74,-1.91 3.28,-3.871 3.45,-3.761 1.971,1.32 3.741,2.94 5.561,4.49 z"
     id="path500" /><path
     style="stroke-width:0.364001"
     fill-rule="evenodd"
     clip-rule="evenodd"
     fill="#e79a00"
     d="m 252.47959,389.73571 c -0.91,3.26 -2.34,6.279 -4.28,8.74 -0.21,-0.061 -0.43,-0.131 -0.64,-0.19 -0.05,-0.44 -0.11,-0.88 -0.17,-1.33 -0.05,-1.12 -0.08,-2.239 0.01,-3.36 0.26,-3.17 0.36,-4.43 -0.76,-4.74 -0.46,-1.189 -1.641,-0.889 -4.811,-0.08 -0.649,0.171 -1.319,0.32 -2.29,0.551 1.131,2.17 2.23,4.279 3.36,6.449 0.38,0.961 0.76,1.891 1.09,2.701 0.15,0.09 0.3,0.189 0.46,0.27 l 0.36,0.689 c -3.66,0.69 -6.36,0.07 -8.13,-1.64 -0.04,-0.04 -0.08,-0.079 -0.12,-0.12 -0.13,-0.14 -0.25,-0.27 -0.38,-0.41 0.01,-0.01 0.01,-0.01 0,-0.01 -0.24,-0.3 -0.45,-0.609 -0.65,-0.949 -0.3,-0.511 -0.55,-1.08 -0.75,-1.69 -2.39,-7.25 -0.229,-14.011 2.5,-20.61 1.09,-2.619 2.51,-5.31 4.44,-7.34 2.37,-2.5 5.22,-2.52 7.2,0.891 0.18,0.319 0.359,0.629 0.529,0.949 0.46,0.86 0.88,1.75 1.25,2.65 0.13,0.3 0.25,0.609 0.36,0.91 0.16,0.41 0.3,0.83 0.439,1.24 0.11,0.33 0.211,0.649 0.301,0.979 1.452,5.03 1.492,10.21 0.682,15.45 z"
     id="path702" /><path
     style="stroke-width:0.364001"
     fill-rule="evenodd"
     clip-rule="evenodd"
     fill="none"
     d="m 244.44959,398.74571 c -0.16,-0.08 -0.31,-0.18 -0.46,-0.27 -0.33,-0.811 -0.71,-1.74 -1.09,-2.701 0.51,0.971 1.02,1.961 1.55,2.971 z"
     id="path704" /><path
     style="stroke-width:0.364001"
     fill-rule="evenodd"
     clip-rule="evenodd"
     fill="none"
     d="m 247.39959,393.59571 c -0.09,1.121 -0.06,2.24 -0.01,3.36 -0.19,-1.399 -0.41,-2.8 -0.43,-4.21 -0.03,-1.96 -0.051,-3.189 -0.32,-3.891 1.12,0.311 1.02,1.571 0.76,4.741 z"
     id="path706" /><path
     style="stroke-width:0.364001"
     fill-rule="evenodd"
     clip-rule="evenodd"
     fill="none"
     d="m 250.69959,371.15571 c -0.37,-0.9 -0.79,-1.79 -1.25,-2.65 0.47,0.87 0.89,1.76 1.25,2.65 z"
     id="path708" /><path
     style="stroke-width:0.364001"
     fill-rule="evenodd"
     clip-rule="evenodd"
     fill="none"
     d="m 252.47959,389.73571 c -0.22,1.449 -0.51,2.9 -0.85,4.359 -0.381,1.65 -1.94,3.03 -2.95,4.53 -0.16,-0.05 -0.32,-0.101 -0.48,-0.149 1.94,-2.46 3.37,-5.48 4.28,-8.74 z"
     id="path710" /><path
     style="stroke-width:0.364001"
     fill-rule="evenodd"
     clip-rule="evenodd"
     fill="none"
     d="m 290.71959,254.35271 c -0.627,-1.781 -1.254,-3.564 -1.881,-5.346 0.408,-0.152 0.817,-0.305 1.227,-0.456 0.709,1.779 1.42,3.558 2.13,5.337 -0.492,0.155 -0.984,0.311 -1.476,0.465 z"
     id="path712" /><path
     style="stroke-width:0.364001"
     fill-rule="evenodd"
     clip-rule="evenodd"
     fill="#e79a00"
     d="m 176.41959,370.09571 c -0.46,0.19 -0.921,0.381 -1.391,0.57 -0.74,-1.66 -1.479,-3.311 -2.22,-4.97 0.46,-0.21 0.92,-0.41 1.38,-0.62 0.741,1.68 1.491,3.35 2.231,5.02 z"
     id="path714" /><path
     style="stroke-width:0.364001"
     fill-rule="evenodd"
     clip-rule="evenodd"
     fill="#e79a00"
     d="m 310.70959,334.07571 c -0.101,0.09 -0.19,0.199 -0.28,0.311 -0.021,0.049 -0.181,0.09 -0.21,0.139 -0.471,0.83 -0.49,1.691 -1.271,2.57 -0.37,-1.89 -0.739,-3.77 -1.109,-5.66 0.72,-0.14 1.439,-0.289 2.159,-0.439 h 0.16 c 0.181,1.028 0.361,2.06 0.551,3.079 z"
     id="path716" /><path
     style="stroke-width:0.364001"
     fill-rule="evenodd"
     clip-rule="evenodd"
     fill="none"
     d="m 310.15959,330.99571 h -0.16 c 0.051,-0.01 0.101,-0.02 0.15,-0.029 0,0.009 0,0.019 0.01,0.029 z"
     id="path718" /><path
     style="stroke-width:0.364001"
     fill-rule="evenodd"
     clip-rule="evenodd"
     fill="none"
     d="m 311.59959,339.05671 c -0.73,0.149 -1.46,0.299 -2.18,0.449 -0.16,-0.8 -0.32,-1.609 -0.471,-2.41 0.78,-0.879 0.8,-1.74 1.271,-2.57 0.029,-0.049 0.189,-0.09 0.21,-0.139 0.09,-0.111 0.18,-0.221 0.28,-0.311 0.29,1.66 0.59,3.32 0.89,4.981 z"
     id="path720" /><path
     style="stroke-width:0.364001"
     fill-rule="evenodd"
     clip-rule="evenodd"
     fill="none"
     d="m 175.50459,257.92271 c 0,1.803 0,3.606 0,5.409 -0.729,-0.122 -2.046,-0.14 -2.089,-0.383 -0.291,-1.651 -0.315,-3.351 -0.424,-5.035 0.839,0.003 1.676,0.006 2.513,0.009 z"
     id="path722" /><path
     style="stroke-width:0.364001"
     fill-rule="evenodd"
     clip-rule="evenodd"
     fill="#e79a00"
     d="m 166.11959,141.33571 c -0.029,0.2 -0.09,0.42 -0.17,0.64 -0.029,0.09 -0.06,0.17 -0.1,0.24 -0.12,0.28 -0.271,0.54 -0.45,0.72 -0.04,0.05 -0.09,0.09 -0.14,0.13 -0.011,0.01 -0.021,0.02 -0.03,0.02 -0.05,0.04 -0.11,0.07 -0.17,0.09 -0.7,0.21 -2.22,-0.31 -2.45,-0.89 -0.189,-0.46 -0.36,-0.93 -0.53,-1.4 -0.13,-0.38 -0.26,-0.76 -0.38,-1.14 0.99,-0.27 1.95,-0.53 2.851,-0.78 0.499,0.79 1.049,1.57 1.569,2.37 z"
     id="path724" /><path
     style="stroke-width:0.364001"
     fill-rule="evenodd"
     clip-rule="evenodd"
     fill="none"
     d="m 166.15959,140.88571 c 0.011,0.14 0,0.29 -0.04,0.45 -0.52,-0.8 -1.069,-1.58 -1.569,-2.37 -0.9,0.25 -1.86,0.51 -2.851,0.78 -0.149,-0.45 -0.3,-0.91 -0.439,-1.37 -0.011,-0.03 -0.021,-0.05 -0.03,-0.08 -0.13,-0.43 -0.26,-0.86 -0.39,-1.3 -0.271,-0.92 -0.54,-1.84 -0.83,-2.75 5.229,0.41 5.959,3.41 6.149,6.64 z"
     id="path726" /><path
     style="stroke-width:0.364001"
     fill-rule="evenodd"
     clip-rule="evenodd"
     fill="none"
     d="m 256.37859,165.83371 c -0.175,-1.423 -0.347,-2.847 -0.521,-4.27 0.513,-0.068 1.024,-0.137 1.536,-0.205 0.172,1.427 0.344,2.854 0.516,4.282 -0.51,0.065 -1.02,0.129 -1.531,0.193 z"
     id="path728" /><path
     style="stroke-width:0.364001"
     fill-rule="evenodd"
     clip-rule="evenodd"
     fill="#e79a00"
     d="m 221.54959,183.50571 c -0.061,0.09 -0.141,0.19 -0.21,0.28 -0.03,0.04 -0.061,0.08 -0.101,0.12 -0.05,0.07 -0.109,0.15 -0.17,0.22 -0.28,0.33 -0.57,0.67 -0.78,0.99 -0.81,-0.66 -2.199,-1.22 -2.31,-1.98 -0.15,-1.03 -0.12,-2.09 -0.04,-3.16 0.771,-0.32 0.7,-0.78 0.91,-1.42 0.731,1.57 1.751,3.22 2.701,4.95 z"
     id="path730" /><path
     style="stroke-width:0.364001"
     fill-rule="evenodd"
     clip-rule="evenodd"
     fill="none"
     d="m 221.96959,182.55571 c 0,0.07 -0.01,0.14 -0.03,0.21 -0.06,0.23 -0.2,0.48 -0.39,0.74 -0.95,-1.73 -1.971,-3.38 -2.7,-4.95 -0.21,0.64 -0.14,1.1 -0.91,1.42 0.03,-0.41 0.06,-0.82 0.1,-1.23 0.03,-0.41 0.061,-0.82 0.08,-1.22 0.511,-0.15 1.021,-0.3 1.54,-0.45 0.801,1.77 1.86,3.48 2.29,5.33 0.01,0.05 0.02,0.1 0.02,0.15 z"
     id="path732" /><path
     style="stroke-width:0.364001"
     fill-rule="evenodd"
     clip-rule="evenodd"
     fill="none"
     d="m 147.54259,331.96271 c -0.61,-1.958 -1.222,-3.916 -1.832,-5.873 0.552,-0.19 1.103,-0.38 1.653,-0.57 0.697,1.93 1.396,3.859 2.093,5.789 -0.637,0.218 -1.276,0.436 -1.914,0.654 z"
     id="path734" /><path
     style="stroke-width:0.364001"
     fill-rule="evenodd"
     clip-rule="evenodd"
     fill="none"
     d="m 162.66759,228.91171 c -0.994,0.821 -1.656,1.365 -2.315,1.91 -0.474,-0.584 -1.319,-1.171 -1.313,-1.75 0.005,-0.566 0.822,-1.496 1.387,-1.58 0.539,-0.079 1.21,0.723 2.241,1.42 z"
     id="path736" /><path
     style="stroke-width:0.364001"
     fill-rule="evenodd"
     clip-rule="evenodd"
     fill="#e79a00"
     d="m 212.35759,299.28271 c -0.765,0.185 -1.521,0.359 -2.286,0.545 -0.377,-2.213 -0.766,-4.425 -1.152,-6.627 0.628,-0.148 1.245,-0.286 1.862,-0.424 0.526,2.165 1.051,4.331 1.576,6.506 z"
     id="path738" /><path
     style="stroke-width:0.364001"
     fill-rule="evenodd"
     clip-rule="evenodd"
     fill="none"
     d="m 207.38559,221.05471 c 0.784,1.889 1.567,3.778 2.352,5.668 -0.998,0.225 -2.758,0.839 -2.874,0.613 -0.858,-1.681 -1.392,-3.529 -2.027,-5.324 0.85,-0.319 1.7,-0.638 2.549,-0.957 z"
     id="path740" /><path
     style="stroke-width:0.364001"
     fill-rule="evenodd"
     clip-rule="evenodd"
     fill="none"
     d="m 271.86359,124.38171 c 2.544,3.02 3.221,5.408 0.286,8.061 -3.29,-2.569 -2.491,-4.991 -0.286,-8.061 z"
     id="path742" /><path
     style="stroke-width:0.364001"
     fill-rule="evenodd"
     clip-rule="evenodd"
     fill="none"
     d="m 173.39659,202.48771 c -0.394,-1.052 -0.789,-2.103 -1.184,-3.155 0.415,-0.18 0.831,-0.359 1.246,-0.539 0.506,1.033 1.013,2.066 1.519,3.099 -0.527,0.199 -1.054,0.397 -1.581,0.595 z"
     id="path744" /><path
     style="stroke-width:0.364001"
     fill-rule="evenodd"
     clip-rule="evenodd"
     fill="none"
     d="m 315.23359,375.18171 c -0.23,-1.563 -0.461,-3.127 -0.691,-4.691 0.401,-0.088 0.803,-0.175 1.204,-0.262 0.385,1.545 0.769,3.089 1.153,4.633 -0.556,0.106 -1.11,0.213 -1.666,0.32 z"
     id="path746" /><path
     style="stroke-width:0.364001"
     fill-rule="evenodd"
     clip-rule="evenodd"
     d="m 347.72959,349.15571 c -1.4,-14.66 -3.2,-29.28 -4.89,-43.9 -1.38,-11.859 -2.811,-23.71 -4.311,-35.55 -1.359,-10.739 -2.47,-21.53 -4.37,-32.181 -2.38,-13.349 -4.84,-26.75 -8.41,-39.809 -3.109,-11.34 -8.199,-22.15 -9.06,-34.09 -0.6,-8.44 -0.81,-16.93 -1.74,-25.33 -1.75,-15.83 -7.29,-30.06 -18.34,-41.94 -4.07,-4.38 -9.81,-7.73 -9.3,-15.29 0.18,-2.61 -2.69,-2.8 -4.74,-0.46 -0.72,0.83 -1.8,1.33 -2.729,1.98 -0.551,-1.13 -1.38,-2.22 -1.62,-3.42 -0.54,-2.72 -0.58,-5.55 -1.26,-8.23 -0.36,-1.41 -1.65,-2.58 -2.521,-3.86 -0.93,1.23 -2.24,2.34 -2.71,3.73 -0.77,2.3 -1,4.79 -1.44,7.12 -4.699,0.26 -8.14,-0.71 -8.77,-5.97 -0.16,-1.25 -1.11,-2.51 -1.96,-3.56 -1.68,-2.1 -4.26,-1.66 -4.54,0.45 -0.9,6.71 -6.47,11.03 -8.25,16.88 -2.41,7.89 -2.92,16.34 -4.37,24.53 -0.47,2.69 -0.99,5.47 -2.17,7.88 -0.68,1.36 -2.65,2.53 -4.21,2.81 -0.73,0.13 -2.55,-1.98 -2.68,-3.2 -0.25,-2.32 -0.07,-4.89 0.71,-7.07 1.27,-3.53 1.479,-6.63 -0.801,-9.82 -4.229,-5.92 -16.63,-6.94 -23.05,-2.13 -3.51,2.63 -2.979,5.88 -2.55,9.36 0.87,7.02 -1.78,10.28 -8.689,10.83 -2.771,0.22 -5.53,0.52 -8.301,0.79 -6.88,0.67 -10.689,-1.68 -13.449,-8.01 -2.37,-5.46 -4.66,-10.98 -7.48,-16.21 -3.83,-7.1 -4.5,-9.46 -4.22,-17.32 0.06,-1.77 -1.141,-3.58 -1.761,-5.37 -1.27,1.31 -2.619,2.55 -3.779,3.95 -1.11,1.34 -2.01,2.85 -3,4.29 -0.63,-1.7 -1.26,-3.4 -1.88,-5.1 -0.091,-0.26 -0.12,-0.54 -0.181,-0.82 -0.739,-3.08 -1.83,-6.61 -5.42,-6.38 -3.34,0.2 -3.37,3.85 -3.67,6.61 -0.04,0.42 -0.01,0.84 -0.06,1.25 -0.46,3.45 -2.73,4.37 -5.521,2.23 -1.43,-1.09 -2.729,-2.39 -4.26,-3.3 -2.43,-1.45 -4.31,-0.82 -3.89,2.24 0.46,3.25 1.67,6.4 2.43,9.62 0.34,1.4 1.03,3.21 0.479,4.26 -5.569,10.53 -6,22.1 -7.489,33.54 -1.37,10.44 -4.19,20.7 -5.37,31.15 -1.891,16.67 -2.97,33.43 -4.351,50.16 -1.079,13.15 -2.079,26.311 -3.17,39.46 -0.859,10.38 -2.42,20.75 -2.59,31.14 -0.359,22.791 3.08,45.141 9.01,67.17 5.341,19.78 11.98,39.131 22.311,56.771 8.33,14.22 18.1,27.649 27.92,40.92 7.68,10.38 17.99,17.95 30.67,21.13 6.56,1.65 12.05,3.35 13.89,10.79 0.25,1.021 2.78,1.479 4.25,2.2 0.42,-1.43 1.19,-2.88 1.15,-4.311 -0.05,-2.189 -0.67,-4.359 -1.05,-6.549 3.3,1.359 5.42,3.399 7.93,4.659 1.48,0.74 3.58,0.24 5.41,0.31 -0.39,-1.479 -0.34,-3.34 -1.24,-4.359 -2.67,-3.01 -2.25,-5.471 0.9,-7.439 1.39,-0.871 3.229,-1.24 4.899,-1.391 1.771,-0.15 3.58,0.24 5.37,0.391 0.25,-0.42 0.49,-0.841 0.74,-1.271 -1.13,-1.761 -2.2,-3.57 -3.42,-5.28 -1.26,-1.76 -3.7,-3.359 -3.82,-5.15 -0.489,-6.979 -4.26,-12.18 -8.92,-16.469 -5.8,-5.33 -12.609,-9.541 -18.609,-14.671 -3.9,-3.329 -9.5,-5.19 -10.851,-10.95 -0.359,-1.56 -0.35,-4.119 0.55,-4.789 1.011,-0.761 3.61,-0.471 4.851,0.359 2.75,1.83 5.21,4.16 7.569,6.5 7.03,6.98 14.73,12.84 24.931,14.02 21.399,2.48 38.02,-6.31 51.26,-22.489 1.49,-1.82 2.21,-4.261 3.31,-6.479 3.73,2.84 4.641,9.959 1.48,14.469 -3.81,5.42 -8.22,10.42 -12.37,15.601 -4.67,5.819 -10.02,11.229 -13.82,17.569 -3.58,5.971 1.62,14.23 -5.18,19.98 0.54,0.45 1.09,0.91 1.63,1.36 2.67,-0.97 5.311,-2.08 8.03,-2.87 1.14,-0.33 2.729,-0.391 3.65,0.18 0.909,0.57 1.529,2.02 1.76,3.19 0.229,1.17 -0.12,2.479 -0.32,3.71 -0.56,3.68 1.42,4.561 4.41,3.71 1.31,-0.37 2.4,-1.601 3.53,-2.521 1.359,-1.1 2.659,-2.279 3.989,-3.42 1,1.5 1.87,3.1 3.03,4.461 1.24,1.459 2.75,2.68 4.14,4.01 1.49,-1.631 4.061,-3.121 4.261,-4.891 0.39,-3.51 2.18,-5.119 4.96,-6.47 1.47,-0.72 2.99,-1.61 4.09,-2.79 5.17,-5.55 10.1,-11.33 15.3,-16.84 7.71,-8.16 12.9,-17.78 15.76,-28.471 2.4,-8.939 3.37,-18.26 5.761,-27.199 3.052,-11.35 3.702,-22.791 2.602,-34.331 z m -90.04,-278.38 c 0.9,2.26 1.6,4.03 2.45,6.18 -4.35,0.26 -4.88,-1.16 -2.45,-6.18 z m -108.6,1.1 c 3.75,1.77 3.01,4.57 2.819,7.73 -4.169,-1.52 -3.129,-4.44 -2.819,-7.73 z m -14.2,7.71 c 0.57,-0.26 1.14,-0.52 1.7,-0.77 0.75,1.64 1.489,3.28 2.239,4.93 -0.58,0.26 -1.149,0.52 -1.729,0.78 -0.73,-1.65 -1.47,-3.29 -2.21,-4.94 z m 130.57,376.53 c 0.739,-1.28 1.479,-2.56 2.229,-3.841 0.6,0.281 1.2,0.551 1.8,0.83 1.001,2.471 -1.089,2.981 -4.029,3.011 z m 14.65,9.48 c -0.42,-0.209 -0.83,-0.43 -1.24,-0.649 0.11,-1.71 0.21,-3.421 0.311,-5.13 0.38,-0.19 0.77,-0.381 1.16,-0.561 0.729,0.99 2.13,2.061 2.02,2.94 -0.151,1.21 -1.451,2.28 -2.251,3.4 z m 15.03,2.711 c -0.95,-2.271 -1.58,-3.781 -2.22,-5.301 5.5,-0.33 3.49,2.17 2.22,5.301 z m 44.19,-86.34 c -1.569,9.559 -3.06,19.25 -5.92,28.479 -4.79,15.46 -14.529,28.079 -26.239,38.979 -8.98,8.36 -26.33,6.59 -34.61,-2.789 -2.59,-2.931 -2.69,-6.211 -0.39,-9.121 0.989,-1.25 2.04,-2.449 3.119,-3.64 0,0 0.011,-0.01 0.011,-0.021 2.64,-2.92 5.399,-5.75 7.77,-8.879 5.73,-7.59 12,-15.01 16.18,-23.42 0.961,-1.91 1.04,-4.32 0.761,-6.871 -0.3,-2.799 -1.04,-5.77 -1.54,-8.42 -0.33,-1.779 -3.25,-4.35 -4.891,-4.279 -2.229,0.1 -4.77,2.01 -6.409,3.84 -1.9,2.109 -2.62,5.26 -4.46,7.439 -2.91,3.44 -5.95,7.01 -9.62,9.53 -7.21,4.96 -14.98,8.79 -23.98,9.81 -13.81,1.561 -24.49,-3.949 -33.76,-13.569 -2.54,-2.63 -5.46,-5.19 -8.69,-6.81 -4.609,-2.311 -9.479,-0.621 -12.92,3.49 -0.75,0.899 -1.38,1.84 -1.85,2.809 -1.67,3.361 -1.57,7.031 1.06,10.171 3.78,4.53 8.48,8.319 12.99,12.18 5.79,4.97 12,9.479 17.61,14.63 1.96,1.811 3.46,4.301 4.68,6.811 0.25,0.5 0.48,1.01 0.71,1.51 2.94,6.54 0.59,11.279 -6.35,12.74 -14.29,3 -26.78,-1.19 -37.341,-10.78 -17.67,-16.04 -30.14,-36.04 -40.189,-57.3 -9.19,-19.42 -17.26,-39.5 -20.59,-60.98 -2.53,-16.3 -4.59,-32.68 -6.42,-45.85 1.84,-18.02 3.63,-32.66 4.76,-47.35 1.36,-17.621 1.87,-35.311 3.3,-52.92 1.271,-15.77 2.32,-31.55 6.64,-46.99 2.221,-7.94 2.271,-16.48 3.431,-24.74 1.26,-9 5.18,-16.99 9.979,-24.52 0.62,-0.99 3.58,-1.55 4.73,-0.93 3.1,1.65 6.78,3.46 8.49,6.27 4.449,7.26 8.42,14.91 11.75,22.76 4.279,10.08 12.34,11.48 20.729,10.8 3.04,-0.24 6.07,-0.69 9.101,-0.71 8.43,-0.05 14.369,-7.07 13.239,-15.44 -0.29,-2.14 -0.13,-5.81 1.011,-6.37 2.649,-1.32 6.149,-1.92 9.079,-1.43 3.681,0.62 5.08,5.13 3.23,8.86 -0.92,1.86 -1.79,4.16 -0.79,6.5 v 0.01 c 0,0.75 0,1.5 0.18,2.24 0.011,0.02 0.011,0.05 0.021,0.07 0.84,3.54 2.72,6.85 5.399,8.45 0.7,0.41 1.5,0.73 2.301,0.78 4.5,0.29 9.93,-3.55 12.77,-8.07 0,-0.01 0.01,-0.03 0.021,-0.04 0.109,-0.18 0.22,-0.36 0.31,-0.54 0.84,-1.46 1.37,-2.99 1.51,-4.46 0.45,-4.63 0.49,-9.29 1.37,-13.91 0.04,-0.21 0.08,-0.41 0.12,-0.62 0,-0.01 0,-0.01 0,-0.02 0,-2.33 0.64,-4.66 1.03,-6.97 1.67,-9.85 5.71,-12.31 15.58,-9.99 8.479,2 14.67,7.51 20.58,13.56 14.109,14.47 20.199,32.3 20.3,51.91 0.1,17.87 4.31,34.5 10.149,51.14 3.471,9.91 5.771,20.36 7.391,30.75 3.42,22.1 6.22,44.31 8.97,66.5 2.57,20.83 5.18,41.67 6.86,62.58 0.617,7.61 -1.013,15.491 -2.263,23.151 z"
     id="path794" /><path
     style="stroke-width:0.364001"
     fill-rule="evenodd"
     clip-rule="evenodd"
     d="m 260.16959,199.21571 c -7.261,-3.07 -9.891,-1.09 -9.44,6.34 0.26,4.26 -0.46,4.9 -4.25,3.52 -0.27,0.92 -0.48,1.85 -0.83,2.73 -1.13,2.79 -3.15,2.86 -4.7,0.77 -1.149,-1.54 -2.18,-3.97 -1.79,-5.68 1.181,-5.21 -1.319,-7.17 -5.87,-7.87 1.721,-2.49 2.851,-2.58 5.61,-0.95 1.61,0.95 3.35,1.74 5.12,2.33 2.77,0.94 4.75,0.09 6.68,-2.37 3.25,-4.14 6.18,-3.75 9.47,1.18 z"
     id="path796" /><path
     style="stroke-width:0.364001"
     fill-rule="evenodd"
     clip-rule="evenodd"
     d="m 321.63959,330.37571 c -0.021,-0.021 -0.04,-0.03 -0.061,-0.04 -0.35,-0.27 -0.81,-0.5 -1.38,-0.66 -0.08,-0.02 -0.149,-0.039 -0.22,-0.05 -0.83,-0.19 -1.59,-0.101 -2.36,0.06 -0.43,0.09 -0.859,0.19 -1.319,0.291 -2.101,0.439 -3.54,-0.57 -4.79,-1.94 -0.07,-0.09 -0.141,-0.17 -0.21,-0.25 -0.37,-0.431 -0.71,-0.88 -1.061,-1.33 -0.93,-1.21 -1.8,-2.489 -2.859,-3.569 -2.16,-2.181 -3.29,-1.4 -3.61,1.569 0,-0.05 0.19,-0.01 0.47,0.08 0.01,0 0.021,0 0.03,0.01 0.78,0.25 2.27,0.88 2.71,1.181 0.01,0 0.02,0.01 0.02,0.02 0.04,0.02 0.061,0.04 0.08,0.061 0.54,0.6 0.601,1.299 0.471,2.01 -0.051,0.3 -0.13,0.6 -0.23,0.9 -0.12,0.369 -0.24,0.739 -0.35,1.1 -0.03,0.1 -0.07,0.199 -0.101,0.3 -0.699,2.12 -1.319,4.12 -1,6.271 0.101,0.75 0.311,1.51 0.681,2.289 0.25,0.561 0.66,1.271 1.18,1.92 v 0.01 c 0.5,0.631 1.08,1.211 1.73,1.551 0.069,0.04 0.14,0.08 0.199,0.109 0.48,0.211 0.99,0.291 1.511,0.17 0.109,-0.029 0.22,-0.06 0.319,-0.109 0.04,-0.01 0.07,-0.03 0.101,-0.051 1.239,-0.59 1.859,-2.399 2.33,-3.959 0.189,-0.641 0.359,-1.24 0.54,-1.69 0.039,-0.11 0.09,-0.229 0.14,-0.351 0.36,-0.869 0.899,-2.039 1.63,-2.92 0.12,-0.149 0.24,-0.289 0.37,-0.409 0.02,-0.021 0.03,-0.03 0.05,-0.05 0.1,-0.09 0.2,-0.18 0.3,-0.25 0.271,-0.23 0.561,-0.391 0.86,-0.5 0.35,-0.121 0.72,-0.15 1.12,-0.07 0.35,0.07 0.63,0.21 0.85,0.41 0.03,0.029 0.05,0.05 0.08,0.09 0.18,0.18 0.32,0.4 0.43,0.66 0.46,1.08 0.32,2.65 0.23,3.689 -0.01,0.01 -0.01,0.01 -0.01,0.021 -0.011,0.09 -0.011,0.17 -0.021,0.25 0.181,0.06 0.36,0.11 0.55,0.14 0.07,0.03 0.141,0.04 0.221,0.051 0.18,0.039 0.359,0.069 0.54,0.09 0.04,-0.181 0.09,-0.371 0.14,-0.561 0.01,-0.02 0.01,-0.05 0.021,-0.08 0.26,-0.99 0.56,-2.04 0.689,-3.04 0,-0.021 0,-0.04 0.01,-0.06 0.159,-1.334 -0.001,-2.555 -1.021,-3.364 z m -12.22,9.13 c -0.16,-0.8 -0.32,-1.609 -0.471,-2.41 -0.37,-1.89 -0.739,-3.77 -1.109,-5.66 0.72,-0.14 1.439,-0.289 2.159,-0.439 0.051,-0.01 0.101,-0.02 0.15,-0.029 0,0.01 0,0.02 0.01,0.029 0.181,1.029 0.36,2.061 0.551,3.08 0.289,1.66 0.59,3.32 0.89,4.98 -0.73,0.149 -1.46,0.298 -2.18,0.449 z"
     id="path798" /><path
     style="stroke-width:0.364001"
     fill-rule="evenodd"
     clip-rule="evenodd"
     d="m 167.90959,250.79571 c 2.5,1.851 4.721,3.341 4.16,5.74 -0.07,0.34 -0.21,0.7 -0.41,1.08 -0.29,0.56 -0.72,1.18 -1.319,1.86 -0.66,0.75 0.09,3.699 1.17,5.22 0.01,0.01 0,0.01 0,0.01 0.18,0.24 0.359,0.45 0.55,0.601 2.17,1.779 4.689,0.34 5.66,-2.16 0.569,-1.471 0.77,-3.101 0.97,-4.771 0.09,-0.68 0.17,-1.37 0.29,-2.05 0.65,-0.189 1.2,-0.27 1.67,-0.27 0.12,0 0.23,0.01 0.34,0.02 1.21,0.109 1.86,0.85 2.37,1.83 0.05,0.09 0.101,0.18 0.14,0.27 0.051,0.1 0.101,0.211 0.15,0.32 0.061,0.141 0.12,0.279 0.18,0.43 0.021,0.03 0.04,0.07 0.061,0.12 0.46,1.06 0.93,2.21 1.81,3.11 0.36,-1.17 0.73,-2.33 1.09,-3.5 0.61,-1.95 1.221,-3.92 1.851,-5.9 -6.523,3.42 -13.443,-0.47 -20.733,-1.96 z m 7.82,12.54 c -0.07,-0.01 -0.15,-0.02 -0.22,-0.02 -0.94,-0.11 -1.94,-0.141 -1.98,-0.37 -0.05,-0.31 -0.1,-0.62 -0.13,-0.94 -0.1,-0.88 -0.13,-1.77 -0.17,-2.66 -0.02,-0.479 -0.05,-0.915 -0.08,-1.395 0.79,0 1.57,0.045 2.36,0.045 h 0.22 z"
     id="path800" /><path
     style="stroke-width:0.364001"
     fill-rule="evenodd"
     clip-rule="evenodd"
     d="m 168.77959,139.88571 c -0.439,-2.54 -1.85,-4.96 -3.02,-7.33 -0.83,-1.68 -1.98,-3.2 -2.96,-4.74 -3.521,0.97 -7.79,2.14 -12.051,3.31 0.091,0.36 0.19,0.72 0.28,1.08 0.75,-0.1 1.5,-0.16 2.23,-0.3 4.25,-0.82 4.739,-0.29 4.35,4.02 -0.149,1.6 -0.13,3.32 0.26,4.87 0.03,0.15 0.07,0.3 0.12,0.45 0.15,0.5 0.34,0.96 0.57,1.37 0.31,0.57 0.68,1.06 1.12,1.47 1.24,1.19 2.97,1.71 4.979,1.49 1.33,-0.15 2.36,-0.67 3.051,-1.44 0.991,-1.07 1.351,-2.61 1.071,-4.25 z m -2.83,2.09 c -0.029,0.09 -0.06,0.17 -0.1,0.24 -0.12,0.28 -0.271,0.54 -0.45,0.72 -0.04,0.05 -0.09,0.09 -0.14,0.13 -0.011,0.01 -0.021,0.02 -0.03,0.02 -0.05,0.04 -0.11,0.07 -0.17,0.09 -0.7,0.21 -2.22,-0.31 -2.45,-0.89 -0.189,-0.46 -0.36,-0.93 -0.53,-1.4 -0.13,-0.38 -0.26,-0.76 -0.38,-1.14 -0.149,-0.45 -0.3,-0.91 -0.439,-1.37 -0.011,-0.03 -0.021,-0.05 -0.03,-0.08 -0.13,-0.43 -0.26,-0.86 -0.39,-1.3 -0.271,-0.92 -0.54,-1.84 -0.83,-2.75 5.229,0.41 5.96,3.41 6.149,6.64 0.011,0.14 0,0.29 -0.04,0.45 -0.03,0.2 -0.09,0.42 -0.17,0.64 z"
     id="path802" /><path
     style="stroke-width:0.364001"
     fill-rule="evenodd"
     clip-rule="evenodd"
     d="m 273.75959,302.34571 c -1.351,-0.49 -3.88,-0.01 -4.761,1.01 -1.71,1.99 -3.09,1.83 -4.96,0.701 -1.52,-0.92 -3.02,-1.951 -4.67,-2.551 -1.05,-0.38 -2.359,-0.07 -3.56,-0.07 -0.22,0.461 -0.45,0.931 -0.67,1.391 2.88,0.32 3.84,1.199 3.91,2.63 0.05,0.851 -0.23,1.89 -0.61,3.12 -0.56,1.811 1.13,4.49 2.23,6.54 0.149,0.29 0.85,0.489 1.55,0.56 0.7,0.08 1.42,0.01 1.66,-0.24 1.83,-1.93 3.88,-4.02 4.729,-6.449 0.28,-0.811 0.54,-1.51 0.78,-2.11 0.32,-0.8 0.609,-1.42 0.92,-1.87 1.16,-1.66 2.54,-1 6.18,1.49 0.41,0.279 0.931,0.41 1.4,0.609 0.26,-0.319 0.53,-0.649 0.79,-0.969 -1.618,-1.322 -3.058,-3.132 -4.918,-3.792 z m -12.11,11.36 c -0.4,-1.819 -0.81,-3.63 -1.21,-5.45 0.57,-0.14 1.15,-0.279 1.72,-0.42 0.45,1.811 0.91,3.62 1.36,5.42 -0.62,0.15 -1.24,0.301 -1.87,0.45 z"
     id="path804" /><path
     style="stroke-width:0.364001"
     fill-rule="evenodd"
     clip-rule="evenodd"
     d="m 224.13959,179.17571 c -1.08,-3.49 -2.96,-6.73 -4.351,-9.72 -2,6.03 -6.59,-3.07 -9.819,0.7 0.649,0.46 1.2,1.07 1.89,1.32 4.04,1.46 5.69,3.79 3.16,7.88 -0.1,0.16 -0.19,0.35 -0.25,0.55 -0.11,0.36 -0.16,0.75 -0.07,1.05 0.57,1.97 0.931,5.28 2.03,5.57 1.67,0.43 3.97,0.14 5.65,-0.69 0.409,-0.2 0.779,-0.43 1.1,-0.69 1.14,-0.95 1.23,-4.13 0.66,-5.97 z m -2.8,4.61 c -0.03,0.04 -0.061,0.08 -0.101,0.12 -0.05,0.07 -0.109,0.15 -0.17,0.22 -0.28,0.33 -0.57,0.67 -0.78,0.99 -0.81,-0.66 -2.199,-1.22 -2.31,-1.98 -0.15,-1.03 -0.12,-2.09 -0.04,-3.16 0.03,-0.41 0.06,-0.82 0.1,-1.23 0.03,-0.41 0.061,-0.81 0.08,-1.22 0.511,-0.15 1.021,-0.3 1.54,-0.45 0.801,1.77 1.86,3.48 2.29,5.33 0.011,0.05 0.021,0.1 0.021,0.15 0,0.07 -0.01,0.14 -0.03,0.21 -0.06,0.23 -0.2,0.48 -0.39,0.74 -0.06,0.09 -0.14,0.19 -0.21,0.28 z"
     id="path806" /><path
     style="stroke-width:0.364001"
     fill-rule="evenodd"
     clip-rule="evenodd"
     d="m 214.66959,293.65571 c -0.23,-2.2 -0.33,-4.41 -0.44,-5.96 -1.86,-0.74 -4.21,-1.74 -6.6,-2.601 -1.03,-0.369 -2.16,-0.47 -3.24,-0.689 0.54,1.04 0.8,2.51 1.66,3.05 0.64,0.41 1.17,0.8 1.569,1.21 1.101,1.109 1.28,2.33 0.23,4.21 -0.101,0.181 -0.21,0.37 -0.33,0.56 -0.61,0.961 -0.86,2.381 -0.81,3.75 0.02,0.891 0.18,1.771 0.449,2.5 0.58,1.57 2.79,2.541 4.28,3.771 1.08,-1.431 2.4,-2.75 3.29,-4.25 0.21,-0.351 0.39,-0.71 0.54,-1.08 0.492,-1.201 -0.438,-2.951 -0.598,-4.471 z m -4.09,7.19 c -0.409,-2.399 -0.83,-4.8 -1.25,-7.189 0.681,-0.16 1.351,-0.311 2.021,-0.46 0.57,2.35 1.14,4.7 1.71,7.06 -0.831,0.199 -1.651,0.389 -2.481,0.589 z"
     id="path808" /><path
     style="stroke-width:0.364001"
     fill-rule="evenodd"
     clip-rule="evenodd"
     d="m 259.68959,245.94571 c -0.64,0.26 -1.27,0.649 -1.94,0.75 -4.819,0.739 -6.579,1.489 -7.079,4.29 -0.101,0.56 -0.15,1.21 -0.16,1.96 -0.021,0.659 -0.011,1.409 0.029,2.25 0.061,1.489 -0.63,3.01 -0.97,4.51 -0.56,0.149 -1.12,0.29 -1.67,0.431 -0.05,-0.111 -0.11,-0.211 -0.17,-0.32 -1.05,-1.9 -3.03,-4.09 -2.59,-5.521 0.24,-0.739 0.39,-1.43 0.45,-2.069 0.54,-4.431 -2.5,-6.57 -6.38,-8.471 0.189,-0.539 0.369,-1.09 0.56,-1.64 1.58,0.649 3.58,0.89 4.67,2.021 2.63,2.699 4.86,4.479 8.75,1.779 1.55,-1.08 4.17,-0.63 6.5,0.03 z"
     id="path810" /><path
     style="stroke-width:0.364001"
     fill-rule="evenodd"
     clip-rule="evenodd"
     d="m 273.43959,224.29571 c -1.25,-0.74 -2.35,-1.4 -3.44,-2.05 -0.42,1.37 -1.35,2.83 -1.149,4.11 0.01,0.07 0.02,0.14 0.03,0.21 0.199,1.29 0.369,2.56 0.369,3.84 -0.01,2.39 -0.64,4.85 -2.829,7.619 -0.221,-0.549 -0.45,-1.069 -0.69,-1.559 0,-0.011 0,-0.011 0,-0.011 -0.92,-1.92 -1.83,-3.431 -1.71,-4.851 0.12,-1.59 0.36,-3.18 0.49,-4.75 0.319,-3.76 0.05,-7.41 -3.69,-10.6 0.78,-0.53 1.561,-1.05 2.34,-1.57 0.44,1.12 0.721,2.33 1.34,3.33 1.15,1.85 2.261,3 5.011,1.76 2.878,-1.308 4.488,0.932 3.928,4.522 z"
     id="path812" /><path
     style="stroke-width:0.364001"
     fill-rule="evenodd"
     clip-rule="evenodd"
     fill="none"
     d="m 209.91159,149.79171 c 0.34,1.283 0.678,2.566 1.018,3.85 -0.498,0.142 -0.995,0.285 -1.492,0.427 -0.349,-1.271 -0.695,-2.542 -1.044,-3.813 0.505,-0.155 1.012,-0.309 1.518,-0.464 z"
     id="path814" /></g><g
   transform="translate(-161.27041,-482.00429)"
   id="Layer_2">
</g>

<path
   style="fill:#fbfbfb;fill-opacity:1;stroke:#000000;stroke-width:12;stroke-linecap:round;stroke-linejoin:round;stroke-miterlimit:4;stroke-dasharray:12, 24;stroke-dashoffset:0;stroke-opacity:1"
   d="M 47.515,272.2975 98.685,146.2 301.5375,80.41 420.325,60.3075 612.2125,133.4075 782.84366,30.176201 1064.7508,117.78939 1312.6698,21.885771 1631.4379,21.765287 1692.265,-171.785 1762.9146,-294.41952 -129.7525,-84.065 Z"
   id="path1316"
   sodipodi:nodetypes="ccccccccccccc" /></svg>
