<?xml version="1.0" encoding="UTF-8" standalone="no"?>
<svg
   xmlns:dc="http://purl.org/dc/elements/1.1/"
   xmlns:cc="http://creativecommons.org/ns#"
   xmlns:rdf="http://www.w3.org/1999/02/22-rdf-syntax-ns#"
   xmlns:svg="http://www.w3.org/2000/svg"
   xmlns="http://www.w3.org/2000/svg"
   xmlns:sodipodi="http://sodipodi.sourceforge.net/DTD/sodipodi-0.dtd"
   xmlns:inkscape="http://www.inkscape.org/namespaces/inkscape"
   version="1.0"
   x="0px"
   y="0px"
   width="300"
   height="400"
   viewBox="0 0 300 400"
   enable-background="new 0 0 1686 1462"
   xml:space="preserve"
   id="svg914"
   sodipodi:docname="green_tail.svg"
   inkscape:version="1.0 (4035a4fb49, 2020-05-01)"><metadata
   id="metadata920"><rdf:RDF><cc:Work
       rdf:about=""><dc:format>image/svg+xml</dc:format><dc:type
         rdf:resource="http://purl.org/dc/dcmitype/StillImage" /><dc:title></dc:title></cc:Work></rdf:RDF></metadata><defs
   id="defs918">
	
	

	
		
		
		
		
		
		
		
		
		
		
		
		
		
		
		
		
		
		
		
		
		
		
		
		
		
		
		
		
		
		
		
		
		
		
		
		
		
		
		
		
		
		
		
		
		
		
		
		
		
		
		
		
		
		
		
		
		
		
		
		
		
		
		
		
		
		
		
		
		
		
		
		
		
		
		
		
		
		
		
		
		
		
		
		
		
		
		
		
		
		
		
		
		
		
		
		
		
		
		
		
		
		
		
		
		
		
		
		
		
		
		
		
		
		
		
		
		
		
		
		
		
		
		
		
		
		
		
		
		
		
		
		
		
		
		
		
		
		
		
		
		
		
		
		
		
		
		
		
		
		
		
		
		
		
		
		
		
		
		
		
		
		
		
		
		
		
		
		
		
		
		
		
		
		
		
		
		
		
		
		
		
		
		
		
		
		
		
		
		
		
		
		
		
		
		
		
		
		
		
		
		
		
		
		
		
		
		
		
		
		
		
		
		
		
		
		
		
		
		
		
		
		
		
		
		
		
		
		
		
		
		
		
		
		
		
		
		
		
		
		
		
		
		
		
		
		
		
		
		
		
		
		
		
		
		
		
		
		
		
		
		
		
		
		
		
		
		
		
		
		
		
		
		
		
		
		
		
		
		
		
		
		
		
		
		
		
		
		
		
		
		
		
		
		
		
		
		
		
		
		
		
		
		
		
		
		
		
		
		
		
		
		
		
		
		
		
		
		
		
		
		
		
		
		
		
		
		
		
		
		
		
		
		
		
		
		
		
		
		
		
		
		
		
		
		
		
		
		
		
		
		
		
		
		
		
		
		
		
		
		
		
		
		
		
		
		
		
		
		
		
		
		
		
		
		
		
		
		
		
		
		
		
		
		
		
		
		
		
		
		
		
		
		
		
		
		
		
		
		
		
		
		
		
		
		
		
		
		
		
		
		
		
		
		
		
		
		
		
		
		
		
		
		
		
		
		
		
		
		
		
		
		
		
		
		
		
		
		
		
		
		
		
		
		
		
		
		
		
		
		
		
		
		
		
	</defs><sodipodi:namedview
   inkscape:document-rotation="0"
   pagecolor="#ffffff"
   bordercolor="#666666"
   borderopacity="1"
   objecttolerance="10"
   gridtolerance="10"
   guidetolerance="10"
   inkscape:pageopacity="0"
   inkscape:pageshadow="2"
   inkscape:window-width="1920"
   inkscape:window-height="986"
   id="namedview916"
   showgrid="false"
   fit-margin-top="0"
   fit-margin-left="0"
   fit-margin-right="0"
   fit-margin-bottom="0"
   inkscape:zoom="0.54719562"
   inkscape:cx="681.72959"
   inkscape:cy="395.19571"
   inkscape:window-x="-11"
   inkscape:window-y="-11"
   inkscape:window-maximized="1"
   inkscape:current-layer="svg914" />
<g
   id="Layer_2"
   transform="translate(-161.27041,-482.00429)">
</g>

<g
   style="stroke-width:0.594907"
   transform="matrix(0,1.680931,-1.680931,0,418.0197,-2231.2679)"
   id="g2234"><path
     style="stroke-width:0.516923"
     id="path96"
     d="m 1414.2786,311.25571 c -0.35,0.09 -0.149,0.11 0,0 z m 0,0 c -0.35,0.09 -0.149,0.11 0,0 z"
     fill="none"
     clip-rule="evenodd"
     fill-rule="evenodd" /><path
     style="stroke-width:0.516923"
     id="path98"
     d="m 1557.9816,462.16471 c -2.765,1.817 -4.66,3.063 -6.545,4.31 -0.763,0.428 -0.626,1.598 -0.948,2.636 -0.323,1.065 -1.084,2.007 -1.65,3.005 -0.812,-0.732 -2.111,-1.331 -2.346,-2.216 -1.582,-5.841 -3.028,-11.72 -4.288,-17.637 -0.186,-0.876 0.819,-1.999 1.27,-2.998 0.547,0.99 1.357,1.921 1.603,2.978 0.674,2.912 1.114,5.87 1.641,8.819 2.306,-3.092 -0.693,-7.486 4.006,-9.732 0.664,1.903 1.212,3.463 1.837,5.241 0.439,-0.476 0.674,-0.627 0.771,-0.846 0.615,-1.322 1.202,-2.664 1.808,-3.996 0.869,1.389 1.759,2.777 2.628,4.177 0.84,1.341 1.66,2.692 2.49,4.034 0.597,-0.238 1.183,-0.485 1.778,-0.723 -0.85,-3.444 -1.788,-6.869 -2.529,-10.332 -1.71,-7.991 -4.289,-15.953 -4.661,-24.012 -0.302,-6.498 2.228,-13.091 3.265,-19.684 0.938,-5.86 1.553,-11.758 2.305,-17.647 -0.41,-0.075 -0.812,-0.151 -1.222,-0.228 -1.311,3.301 -2.627,6.603 -3.946,9.903 -0.39,-0.105 -0.782,-0.199 -1.172,-0.305 1.337,-5.327 2.823,-10.626 3.985,-15.982 1.213,-5.612 0.88,-11.083 -2.961,-15.84 -2.119,-2.635 -2.529,-5.336 -1.084,-8.466 2.462,-5.318 2.59,-10.208 -2.179,-14.793 -3.419,-3.292 -4.688,-7.85 -2.617,-12.264 4.366,-9.294 1.475,-17.428 -2.657,-25.962 -4.682,-9.655 -6.624,-19.721 1.064,-29.233 0.458,-0.562 0.176,-1.894 -0.079,-2.77 -1.815,-6.174 -4.151,-12.223 -5.49,-18.483 -2.608,-12.226 -3.643,-24.849 -7.239,-36.75 -4.357,-14.412 -2.88,-28.055 0.978,-42.049 2.013,-7.315 2.031,-14.898 -2.257,-21.615 -1.318,-2.054 -4.104,-4.137 -6.468,-4.451 -4.004,-0.532 -8.342,-0.218 -12.298,0.704 -8.109,1.912 -16.433,4.223 -20.76,12.025 -2.608,4.699 -4.056,10.035 -5.844,15.145 -2.51,7.192 -7.221,11.987 -14.829,14.193 -4.777,1.389 -7.68,-1.416 -11.118,-3.595 -4.054,-2.569 -4.386,-6.347 -4.112,-10.304 0.654,-9.695 1.456,-19.388 2.334,-29.063 0.216,-2.455 -0.712,-3.33 -3.126,-3.635 -7.991,-1.009 -15.387,0.522 -22.586,3.957 -2.912,1.389 -3.537,2.873 -2.774,5.889 2.218,8.752 3.058,17.667 1.572,26.637 -1.973,11.893 -12.094,14.689 -20.075,11.378 -7.27,-3.016 -12.447,-8.731 -14.83,-16.609 -3.098,-10.284 -9.857,-18.151 -18.669,-24.373 -2.912,-2.064 -5.745,-1.808 -8.295,0.913 -4.815,5.167 -8.196,10.76 -6.634,18.143 0.558,2.587 1.076,5.214 1.31,7.848 0.635,6.888 1.983,13.861 1.406,20.673 -0.732,8.743 -2.676,17.448 -4.775,26.019 -5.503,22.366 -8.773,45.055 -11.129,67.906 -1.739,16.8 -1.074,33.516 0.644,50.297 2.327,22.841 7.31,45.083 14.5,66.897 2.608,7.905 6.086,15.631 7.736,23.717 1.524,7.458 1.926,15.335 1.417,22.937 -0.938,13.984 1.553,27.417 5.256,40.717 2.306,8.314 6.966,15.354 16.109,17.409 9.74,2.188 18.815,-0.2 17.536,-12.558 -0.705,-6.735 -1.847,-13.461 -3.263,-20.102 -1.738,-8.124 -3.985,-16.088 2.784,-23.261 4.221,-4.48 6.896,-4.622 11.137,-0.065 0.675,0.732 1.329,1.475 2.07,2.302 2.433,-2.835 4.748,-5.527 7.055,-8.229 0.371,0.285 0.723,0.572 1.095,0.866 -2.307,3.892 -4.612,7.792 -6.908,11.692 0.361,0.208 0.724,0.419 1.086,0.627 1.112,-0.561 2.227,-1.121 3.887,-1.959 -1.104,3.253 -2.394,5.755 -2.716,8.372 -0.4,3.225 0.166,6.555 0.029,9.836 -0.136,3.31 1.251,4.861 4.65,5.119 7.649,0.569 14.684,2.92 21.042,7.152 0.685,0.458 1.574,0.629 2.316,0.924 3.507,-5.766 4.592,-18.351 2.032,-23.374 -4.895,2.025 -9.037,0.189 -11.997,-3.436 -2.334,-2.854 -3.888,-6.23 -8.049,-7.012 -0.089,-0.018 -0.099,-0.455 -0.352,-1.825 5.002,0 9.905,-0.466 14.663,0.134 4.894,0.617 8.177,3.976 9.057,8.703 1.64,8.753 2.149,17.543 -1.261,26.134 -0.313,0.779 0.049,2.482 0.655,2.835 6.281,3.605 12.592,7.088 20.378,3.995 2.014,-0.799 2.541,-1.626 2.169,-3.604 -1.173,-6.051 -2.54,-12.101 -3.155,-18.219 -0.508,-5.061 -0.987,-10.198 2.013,-15.078 4.925,-8.039 13.373,-6.896 20.984,-8.315 -0.82,1.332 -1.944,2.246 -2.961,3.254 -0.634,0.638 -1.455,1.38 -1.602,2.179 -1.426,7.953 -6.389,12.025 -15.182,12.063 -0.127,8.542 0.234,16.972 4.016,25.334 3.077,-1.503 5.734,-2.74 8.322,-4.082 2.62,-1.369 5.141,-2.911 7.766,-4.262 5.043,-2.597 7.231,-6.545 6.528,-12.11 -0.205,-1.598 -0.284,-3.435 0.342,-4.861 1.309,-3.016 0.625,-5.547 -0.802,-8.258 -1.035,-1.959 -1.593,-4.157 -2.364,-6.25 0.546,-0.256 1.104,-0.523 1.652,-0.781 1.416,2.322 2.822,4.644 4.229,6.965 0.342,-0.133 0.675,-0.267 1.006,-0.399 -0.235,-0.799 -0.42,-1.617 -0.723,-2.397 -0.743,-1.883 -1.652,-3.71 -2.247,-5.632 -0.186,-0.618 0.391,-1.455 0.615,-2.197 0.714,0.381 1.749,0.58 2.071,1.17 0.84,1.514 1.377,3.196 2.013,4.756 7.219,-1.369 12.182,2.617 12.708,9.98 0.325,4.527 0.07,9.151 0.94,13.564 0.88,4.491 1.522,10.114 4.553,12.882 8,7.335 13.599,4.776 19.362,-2.674 5.422,-7.002 4.425,-15.61 5.627,-23.621 0.616,-4.158 0.704,-8.458 -4.327,-8.191 z m -111.264,15.621 c 1.613,0.151 3.264,0.751 4.689,1.521 0.957,0.515 1.574,1.637 3.322,3.587 -2.854,0.258 -5.394,0.895 -7.757,0.513 -1.017,-0.171 -1.866,-2.387 -2.364,-3.805 -0.126,-0.37 1.436,-1.883 2.11,-1.816 z m 52.571,9.485 c -0.44,0.646 -2.346,0.854 -3.313,0.532 -0.791,-0.257 -1.192,-1.627 -2.188,-3.148 2.433,-2.179 4.67,-4.157 6.897,-6.146 0.615,0.731 1.895,1.684 1.739,2.149 -0.801,2.303 -1.788,4.596 -3.135,6.613 z m -8.95,-297.262 c 1.915,-5.156 3.966,-10.303 6.516,-15.185 1.083,-2.063 3.438,-3.671 6.038,-1.084 0.292,0.297 0.918,0.381 1.396,0.391 3.573,0.038 3.573,0.029 4.523,3.729 2.267,-0.037 4.073,-4.803 6.682,-0.542 1.173,-0.713 2.072,-1.616 3.098,-1.788 0.908,-0.153 2.461,0.219 2.853,0.865 1.553,2.531 -0.48,13.195 -3.536,16.516 0.302,-4.928 0.546,-8.961 0.78,-12.995 -0.38,-0.096 -0.762,-0.19 -1.152,-0.285 -1.251,2.92 -2.373,5.907 -3.811,8.742 -0.575,1.142 -1.837,1.96 -2.784,2.931 -0.06,-1.181 -0.322,-2.389 -0.137,-3.53 0.401,-2.33 1.036,-4.613 0.704,-7.306 -1.26,2.569 -2.395,5.204 -3.829,7.667 -0.587,1.01 -1.809,1.656 -2.746,2.464 -0.146,-1.055 -0.488,-2.13 -0.41,-3.177 0.175,-2.501 0.558,-4.984 0.919,-7.972 -4.26,3.414 -1.887,10.026 -7.553,12.852 -0.692,-6.316 5.051,-11.044 2.296,-17.723 -4.913,5.907 -7.054,12.177 -7.326,19.208 -0.508,0.085 -1.016,0.171 -1.524,0.256 -0.372,-1.352 -1.407,-2.95 -0.997,-4.034 z m -12.388,62.474 c 2.316,-4.691 6.106,-4.415 9.175,-0.114 0.272,0.39 0.645,0.723 1.073,1.188 1.427,-2.102 2.452,-4.328 4.123,-5.918 2.462,-2.33 4.426,-0.913 5.646,1.723 5.452,-4.814 5.901,-4.747 8.744,1.483 1.553,-1.797 2.969,-3.529 4.484,-5.166 1.465,-1.597 2.939,-1.389 4.221,0.248 2.491,3.188 2.422,13.898 -0.479,17.714 -0.537,-5.395 -1.026,-10.332 -1.523,-15.269 -0.509,-0.076 -1.017,-0.152 -1.525,-0.229 -1.65,3.596 -3.331,7.191 -4.933,10.817 -0.4,0.913 -0.342,2.063 -0.868,2.873 -0.45,0.694 -1.447,1.063 -2.19,1.578 -0.321,-0.817 -0.918,-1.636 -0.907,-2.445 0.049,-3.14 0.322,-6.269 0.41,-9.398 0.01,-0.562 -0.449,-1.132 -1.173,-2.845 -1.67,3.234 -2.95,5.67 -4.2,8.125 -1.027,2.006 0.508,5.717 -3.938,6.002 0.37,-4.719 0.674,-8.647 0.978,-12.566 -0.567,-0.152 -1.124,-0.285 -1.69,-0.429 -2.237,5.185 -4.476,10.38 -6.714,15.573 -0.301,-0.19 -0.594,-0.39 -0.896,-0.58 -0.41,-3.815 -0.752,-7.63 -1.28,-11.426 -0.107,-0.751 -0.898,-1.427 -1.368,-2.121 -4.563,2.579 -6.095,6.936 -6.397,16.039 -0.607,-0.77 -1.828,-1.646 -1.71,-2.292 0.749,-4.251 1.071,-8.789 2.937,-12.565 z m -52.022,65.85 c 0.821,3.283 1.114,6.698 1.428,10.085 0.204,2.093 0.038,4.232 0.038,6.344 -0.469,0.087 -0.948,0.182 -1.416,0.268 -1.095,-5.86 -2.179,-11.721 -3.265,-17.58 -0.487,-0.058 -0.985,-0.114 -1.482,-0.172 -0.803,2.636 -1.643,5.252 -2.387,7.906 -0.262,0.96 -0.066,2.102 -0.506,2.968 -0.42,0.827 -1.388,1.408 -2.11,2.092 -0.392,-0.789 -1.007,-1.54 -1.143,-2.368 -0.586,-3.71 -0.959,-7.458 -1.584,-11.168 -0.195,-1.122 -0.928,-2.149 -1.416,-3.226 -0.489,0.01 -0.978,0.028 -1.466,0.038 -0.664,4.139 -1.357,8.276 -1.993,12.416 -0.106,0.74 0.244,1.606 -0.019,2.254 -0.576,1.428 -1.417,2.759 -2.149,4.129 -0.459,-1.332 -1.339,-2.684 -1.289,-3.996 0.194,-4.5 0.116,-8.809 -4.847,-13.023 -0.811,4.51 -1.553,8.21 -2.12,11.929 -0.224,1.485 0.099,3.055 -0.176,4.529 -0.165,0.903 -0.977,1.692 -1.494,2.53 -0.557,-0.838 -1.427,-1.607 -1.623,-2.521 -0.878,-4.157 -1.513,-8.362 -2.383,-12.52 -0.214,-1.037 -0.997,-1.96 -1.513,-2.939 -0.489,0.038 -0.988,0.076 -1.478,0.114 0,3.51 -0.096,7.021 0.021,10.521 0.195,5.612 0.594,11.216 0.751,16.83 0.021,0.74 -0.742,1.787 -1.445,2.158 -0.43,0.219 -1.817,-0.418 -2.071,-0.98 -0.459,-0.989 -0.528,-2.216 -0.488,-3.329 0.243,-7.952 0.546,-15.897 0.879,-23.849 0.048,-0.99 0.108,-2.132 0.614,-2.932 0.684,-1.074 1.684,-2.34 2.796,-2.645 0.674,-0.18 2.051,1.142 2.706,2.064 1.005,1.427 1.66,3.083 2.638,4.976 4.474,-7.021 4.816,-7.087 10.053,-2.598 2.042,-2.055 4.054,-4.1 6.076,-6.136 1.925,2.064 3.849,4.129 6.037,6.47 1.622,-1.418 3.215,-2.864 4.815,-4.31 1.039,1.885 2.503,3.664 3.011,5.671 z m -25.507,-62.855 c 3.38,-4.033 3.38,-4.033 8.685,1.627 0.614,-1.864 0.938,-3.72 1.826,-5.279 0.615,-1.075 1.935,-2.255 3.068,-2.397 0.801,-0.095 2.314,1.331 2.638,2.341 1.748,5.631 3.234,11.329 4.806,17.01 -0.536,0.209 -1.083,0.418 -1.631,0.628 -1.905,-5.29 -3.801,-10.579 -5.705,-15.869 -0.439,0.029 -0.88,0.048 -1.318,0.076 -0.421,5.156 -0.851,10.304 -1.28,15.449 -0.283,0.19 -0.567,0.382 -0.852,0.562 -0.593,-0.913 -1.386,-1.77 -1.758,-2.759 -1.317,-3.539 -2.48,-7.124 -3.702,-10.692 -0.546,0.124 -1.085,0.247 -1.632,0.371 0,3.549 0.089,7.097 -0.038,10.636 -0.059,1.293 -0.636,2.568 -0.978,3.854 -0.742,-1.238 -1.738,-2.39 -2.178,-3.721 -0.996,-3.025 -1.721,-6.126 -2.551,-9.19 -0.46,0.077 -0.907,0.144 -1.368,0.22 0.274,3.396 0.527,6.802 0.841,10.198 0.067,0.742 0.585,1.493 0.488,2.188 -0.118,0.866 -0.655,1.664 -1.016,2.501 -0.636,-0.751 -1.533,-1.406 -1.866,-2.273 -1.973,-5.032 -3.8,-10.112 -5.725,-15.174 -0.098,-0.257 -0.566,-0.37 -2.179,-1.369 1.261,8.714 2.364,16.372 3.546,24.534 -0.508,-0.371 -2.101,-0.932 -2.197,-1.692 -1.025,-7.83 -1.876,-15.688 -2.589,-23.556 -0.06,-0.694 1.113,-2.083 1.748,-2.103 0.929,-0.038 2.15,0.694 2.755,1.465 1.134,1.428 1.925,3.13 2.854,4.719 0.976,-2.045 1.825,-3.824 2.677,-5.594 1.535,1.092 3.079,2.186 4.631,3.289 z m -28.174,-75.829 c 1.248,0.618 2.569,1.132 3.722,1.893 0.693,0.467 1.112,1.313 1.837,2.207 1.074,-3.654 6.036,-6.212 9.729,-5.774 1.134,-1.39 2.121,-2.578 3.106,-3.767 1.065,1.274 2.58,2.396 3.126,3.852 1.651,4.396 2.922,8.924 4.339,13.395 -0.431,0.171 -0.859,0.344 -1.299,0.523 -1.623,-3.271 -3.254,-6.535 -4.886,-9.798 -0.254,-0.01 -0.508,-0.02 -0.762,-0.02 0.487,3.995 0.967,7.991 1.446,11.987 -0.431,0.123 -0.859,0.247 -1.3,0.371 -3.37,-3.055 -1.592,-8.429 -5.276,-11.559 0.558,2.272 1.222,4.519 1.612,6.82 0.234,1.313 0.02,2.701 0,4.063 -0.82,-0.971 -1.836,-1.837 -2.424,-2.931 -0.868,-1.637 -1.445,-3.425 -2.138,-5.146 -0.372,0.105 -0.743,0.21 -1.114,0.313 0.85,2.684 1.817,5.338 2.512,8.059 0.253,1.008 -0.128,2.168 -0.216,3.263 -0.832,-0.79 -1.904,-1.456 -2.462,-2.407 -1.837,-3.129 -3.487,-6.354 -5.208,-9.551 -0.565,0.275 -1.133,0.542 -1.709,0.818 l 6.331,14.612 c -0.146,0.229 -0.284,0.466 -0.43,0.703 -1.222,-1.046 -3.01,-1.854 -3.566,-3.168 -2.002,-4.757 -3.712,-9.646 -5.275,-14.574 -0.4,-1.245 0.177,-2.786 0.305,-4.184 z m 0.106,116.804 c 5.267,-9.542 4.622,-18.997 1.848,-28.986 -1.368,-4.891 -1.525,-10.18 -1.563,-15.298 -0.02,-2.151 1.699,-4.319 2.627,-6.479 0.4,0.114 0.812,0.238 1.212,0.353 0.186,0.409 0.654,0.942 0.527,1.218 -3.42,7.544 -2.129,15.154 0.186,22.536 2.883,9.181 2.217,17.914 -1.973,26.468 -2.394,4.898 -2.131,9.398 1.27,13.813 5.295,6.859 6.33,14.546 3.858,22.633 -2.344,7.647 -0.722,14.555 3.929,20.786 4.386,5.878 5.528,12.614 6.505,19.502 0.303,2.103 1.114,4.138 1.563,6.231 1.269,5.869 3.244,11.729 3.508,17.657 0.313,6.733 -0.791,13.556 -1.573,20.311 -0.234,1.94 -1.485,3.775 -2.267,5.66 -0.352,-0.124 -0.693,-0.238 -1.046,-0.361 0.527,-3.273 1.173,-6.536 1.573,-9.827 1.348,-11.359 1.71,-22.643 -2.891,-33.535 -0.685,-1.607 -1.095,-3.387 -1.28,-5.128 -0.909,-8.8 -3.801,-16.8 -8.96,-24.192 -3.184,-4.575 -3.32,-10.103 -2.062,-15.383 2.209,-9.267 2.199,-17.914 -4.482,-25.752 -3.136,-3.685 -2.57,-8.489 -0.509,-12.227 z m 10.737,118.858 c 0,-2.644 -0.117,-5.288 0.029,-7.934 0.361,-6.593 -1.534,-12.528 -4.055,-18.646 -1.984,-4.833 -2.687,-10.579 -2.276,-15.803 0.498,-6.383 -1.231,-11.034 -6.341,-14.773 -5.812,-4.253 -6.856,-7.077 -4.63,-13.689 2.326,-6.868 3.703,-13.451 -0.479,-20.34 -1.447,-2.378 -1.221,-5.869 -1.28,-8.856 -0.146,-7.697 -0.048,-15.382 -0.019,-23.08 0.019,-3.406 0.116,-6.81 0.136,-10.227 0.04,-6.659 0.05,-13.309 0.069,-19.968 0,-0.751 -0.079,-1.503 -0.05,-2.254 0.011,-0.191 0.285,-0.382 0.431,-0.562 0.42,-0.105 0.83,-0.19 1.25,-0.296 0.518,3.254 1.485,6.507 1.475,9.76 -0.049,14.869 -0.224,29.739 -0.683,44.6 -0.177,5.45 0.381,10.588 3.126,15.346 1.934,3.377 1.758,6.734 0.498,10.207 -0.176,0.466 -0.293,0.971 -0.509,1.427 -3.428,7.221 -3.359,13.414 4.484,18.256 4.534,2.797 5.774,7.554 5.138,12.7 -0.878,7.212 0.245,14.003 3.811,20.512 3.723,6.783 3.38,14.106 2.023,21.423 -0.146,0.799 -0.78,1.503 -2.148,2.197 z m 21.356,60.048 c -0.011,0.886 -1.016,2.313 -1.778,2.465 -0.781,0.151 -1.876,-0.876 -2.745,-1.503 -0.469,-0.334 -0.761,-0.896 -2.043,-2.474 0.558,5.213 -2.294,6.668 -5.518,8.076 -2.141,0.932 -3.898,0.79 -4.23,-1.341 -1.104,-7.088 -1.848,-14.231 -2.629,-21.366 -0.058,-0.495 0.685,-1.076 1.66,-2.503 1.026,7.688 1.916,14.25 2.796,20.825 0.438,0.009 0.878,0.019 1.317,0.028 0.42,-4.081 0.851,-8.163 1.378,-13.233 3.38,2.625 5.978,4.633 9.026,7.002 0.226,-7.554 0.45,-15.069 0.676,-22.575 0.722,0.019 1.445,0.048 2.168,0.067 0,8.848 0.059,17.695 -0.078,26.532 z m 22.91,-97.681 c -0.479,2.836 -1.027,5.67 -1.389,8.523 -0.166,1.236 0.244,2.56 0,3.768 -0.156,0.789 -1.006,1.446 -1.554,2.169 -0.518,-0.733 -1.348,-1.397 -1.522,-2.197 -0.655,-3.064 -0.978,-6.203 -1.7,-9.247 -0.333,-1.389 -1.318,-2.626 -2.013,-3.929 -0.42,0.066 -0.84,0.132 -1.25,0.199 0.155,3.253 0.458,6.508 0.429,9.761 -0.019,2.255 1.837,5.128 -1.787,6.469 -0.577,-2.121 -1.162,-4.243 -1.72,-6.374 -1.007,-3.833 -1.885,-7.705 -3.088,-11.473 -0.271,-0.885 -2.061,-2.188 -2.422,-1.998 -1.133,0.6 -2.58,1.741 -2.716,2.816 -0.488,3.823 -0.508,7.715 -0.665,11.577 -0.029,0.686 0.147,1.369 0.225,2.064 -0.233,0.143 -0.478,0.295 -0.712,0.438 -0.694,-0.714 -1.77,-1.342 -2.003,-2.179 -1.427,-5.063 -1.232,-10.075 1.788,-14.564 2.783,-4.158 5.422,-4.158 8.548,-0.305 0.468,0.58 0.899,1.188 1.533,2.025 4.522,-3.768 6.214,0.133 8.363,3.149 2.618,-2.483 5.118,-5.09 8.567,-1.77 5.128,-3.415 6.809,-2.959 9.495,3.102 -1.954,-1.112 -3.38,-1.922 -5.539,-3.149 -0.498,2.531 -1.035,4.643 -1.288,6.783 -0.157,1.359 0.39,2.845 0.077,4.139 -0.234,0.979 -1.329,1.76 -2.052,2.625 -0.499,-0.847 -1.279,-1.655 -1.426,-2.56 -0.254,-1.474 0.205,-3.091 -0.146,-4.527 -0.479,-1.902 -1.437,-3.691 -2.198,-5.527 -0.605,0.059 -1.221,0.125 -1.835,0.192 z m 18.044,62.815 c -0.93,0.542 -1.975,0.886 -2.961,1.323 -0.439,0.199 -0.879,0.399 -1.31,0.6 -0.41,-2.54 -1.201,-5.1 -1.115,-7.62 0.09,-2.589 2.669,-3.463 4.301,-1.456 1.269,1.55 1.699,3.786 2.315,5.765 0.098,0.332 -0.703,1.084 -1.23,1.388 z m 9.368,1.903 c -0.566,0.114 -1.124,0.238 -1.68,0.361 -0.421,-1.503 -1.193,-2.996 -1.213,-4.5 -0.155,-9.922 -4.611,-17.685 -12.397,-23.755 -1.183,-0.922 -2.882,-1.235 -4.337,-1.825 -0.156,1.521 -0.399,3.044 -0.469,4.565 -0.333,8.011 -0.566,16.021 -0.979,24.03 -0.067,1.18 -0.927,2.321 -1.416,3.482 -0.449,-0.076 -0.898,-0.143 -1.348,-0.219 0,-0.962 -0.185,-1.96 0.029,-2.864 2.032,-8.466 2.385,-16.942 0.782,-25.543 -0.313,-1.692 0.332,-4.586 1.533,-5.251 1.437,-0.809 4.426,-0.533 5.892,0.466 9.72,6.641 15.455,15.669 16.012,27.446 0.049,1.201 -0.273,2.408 -0.409,3.607 z m 0.547,-51.894 c -0.225,2.054 -1.642,4.242 -4.239,4.071 2.705,-10.266 3.202,-20.226 -3.185,-29.254 -3.274,-4.613 -3.918,-9.142 -2.308,-14.27 3.946,-12.538 1.906,-24.554 -4.444,-35.713 -3.819,-6.697 -3.625,-12.529 0.391,-18.798 1.681,-2.626 2.716,-5.652 3.997,-8.515 2.919,-6.555 1.133,-12.72 -2.286,-18.399 -3.791,-6.278 -5.882,-12.852 -5.618,-20.12 0.254,-6.907 0.292,-13.832 0.947,-20.71 0.292,-3.055 1.798,-6.022 2.95,-8.962 0.284,-0.723 1.339,-1.16 2.043,-1.731 0.321,0.865 0.984,1.778 0.878,2.578 -0.234,1.607 -0.811,3.187 -1.387,4.729 -4.387,11.854 -3.283,23.869 -0.724,35.808 0.713,3.349 2.678,6.545 4.505,9.561 4.271,7.002 3.585,13.956 0.282,20.967 -1.074,2.274 -2.364,4.462 -3.605,6.669 -2.52,4.472 -3.252,8.981 -0.527,13.662 6.058,10.436 8.412,21.623 7.056,33.543 -0.06,0.505 0.105,1.095 -0.11,1.504 -4.016,7.601 -1.464,14.089 2.815,20.834 4.377,6.886 3.41,14.877 2.569,22.546 z m -0.919,-160.756 c 1.76,-4.596 4.2,-8.943 6.487,-13.319 0.419,-0.798 1.583,-1.245 2.403,-1.854 0.38,0.257 0.771,0.505 1.163,0.76 -1.427,3.074 -2.687,6.242 -4.328,9.2 -5.228,9.4 -5.92,18.561 0.664,27.722 1.992,2.778 3.448,5.918 5.07,8.942 3.946,7.345 1.309,14.499 -0.762,21.662 -0.488,1.703 -0.958,3.416 -1.633,5.042 -1.689,4.129 -1.25,7.906 1.76,11.292 3.683,4.148 4.464,8.592 2.042,13.671 -1.076,2.264 -1.544,4.804 -2.297,7.221 -1.671,5.423 -0.967,10.283 2.628,14.992 3.283,4.301 4.192,9.371 3.059,14.766 -0.87,4.139 -0.362,7.991 1.387,12.12 1.485,3.501 1.661,7.934 1.066,11.758 -0.714,4.519 -2.854,8.838 -4.446,13.214 -0.371,1.009 -1.065,1.913 -1.612,2.873 -0.42,-0.408 -0.83,-0.818 -1.24,-1.228 1.27,-4.194 2.54,-8.391 3.801,-12.576 1.514,-5.032 1.602,-9.989 -1.056,-14.707 -1.778,-3.158 -2.109,-6.395 -1.26,-9.865 1.396,-5.689 0.859,-11.255 -2.873,-15.896 -4.923,-6.118 -3.85,-12.435 -1.709,-18.989 0.469,-1.446 0.889,-2.921 1.534,-4.29 2.13,-4.5 1.592,-8.667 -1.778,-12.302 -3.83,-4.119 -3.478,-8.465 -1.867,-13.374 2.57,-7.849 6.185,-15.783 2.434,-24.184 -1.797,-4.034 -4.044,-7.915 -6.467,-11.626 -4.378,-6.727 -4.954,-13.786 -2.17,-21.025 z m 23.544,268.38 c -0.604,0.751 -2.832,0.931 -3.965,0.484 -1.643,-0.646 -2.961,-2.084 -4.594,-3.311 0.753,-0.941 1.036,-1.722 1.506,-1.836 2.462,-0.59 4.963,-1.065 7.473,-1.427 0.4,-0.057 1.378,0.79 1.319,1.046 -0.419,1.742 -0.674,3.711 -1.739,5.044 z m 0.46,-62.778 c -1.603,2.435 -2.247,5.868 -6.584,6.067 -0.499,-8.494 -0.998,-17.419 -1.496,-25.419 h -1.591 v 26.238 c -1,0.058 -0.777,0.125 -1.217,0.182 -8.686,-9.989 -7.965,-22.386 -9.059,-35.009 5.373,1.132 4.57,5.897 7.189,8.789 0.35,-2.653 0.521,-4.984 1.041,-7.229 0.234,-1.018 1.188,-1.884 1.813,-2.816 0.84,0.771 2.104,1.408 2.426,2.341 0.898,2.606 1.4,5.337 2.357,9.21 1.006,-4.14 1.768,-7.27 2.521,-10.4 0.137,-0.607 -0.012,-1.389 0.332,-1.835 0.684,-0.903 1.611,-1.627 2.442,-2.426 0.604,0.99 1.632,1.932 1.729,2.969 0.196,1.901 -0.157,3.853 0.36,5.973 1.319,-1.978 2.648,-3.956 3.958,-5.926 3.741,1.228 3.068,3.985 2.668,6.146 -1.513,8.217 -4.21,16.047 -8.889,23.145 z m 18.767,2.757 c -0.499,0.125 -1.005,0.248 -1.505,0.362 -1.132,-1.608 -2.892,-3.12 -3.185,-4.87 -0.224,-1.275 1.163,-3.245 2.402,-4.226 1.779,-1.417 3.704,-0.79 3.646,1.675 -0.059,2.361 -0.87,4.71 -1.358,7.059 z m 15.181,-22.631 c -1.798,5.09 -4.337,9.952 -5.91,15.097 -1.174,3.882 -1.311,8.068 -1.915,12.121 -0.43,0.066 -0.85,0.144 -1.28,0.209 -0.391,-1.969 -1.514,-4.129 -1.045,-5.879 1.768,-6.508 4.045,-12.891 6.154,-19.313 0.235,-0.703 0.899,-1.35 0.92,-2.035 0.048,-1.446 0.253,-3.226 -0.499,-4.224 -0.46,-0.608 -2.646,-0.285 -3.946,0.037 -8.109,1.998 -12.408,7.659 -14.86,15.013 -1.085,3.233 -2.08,6.497 -3.213,9.713 -0.489,1.36 -1.231,2.636 -2.727,3.806 -0.049,-0.733 -0.322,-1.531 -0.117,-2.188 1.807,-5.642 3.556,-11.312 5.588,-16.886 2.813,-7.668 9.466,-10.655 16.91,-12.302 4.075,-0.904 7.356,2.844 5.94,6.831 z m 3.33,-36.828 c 0,0.211 0.051,0.42 -1.949,1.457 v -16.781 c 0,-0.086 -1.246,-0.161 -1.863,-0.238 -0.857,2.626 -1.801,5.232 -2.582,7.878 -0.605,2.045 -0.936,4.176 -1.639,6.183 -0.244,0.704 -1.252,1.161 -1.916,1.722 -0.324,-0.817 -0.99,-1.673 -0.922,-2.463 0.383,-4.006 1.104,-7.972 1.379,-11.978 0.107,-1.456 -0.676,-2.959 -1.281,-5.347 -4.084,4.272 -5.041,8.609 -5.803,13.052 -0.43,2.465 -0.85,4.947 -1.494,7.363 -0.176,0.629 -1.194,1.046 -1.817,1.552 -0.4,-0.676 -1.213,-1.398 -1.144,-2.036 0.224,-2.369 0.732,-4.709 1.161,-7.06 0.704,-3.909 0.606,-7.687 -2.228,-11.968 -6.389,7.592 -7.755,15.802 -8.059,25.249 -0.753,-0.903 -1.866,-1.693 -2.199,-2.721 -1.611,-5.109 3.419,-19.884 7.699,-23.052 3.077,-2.265 4.835,-1.712 7.521,2.407 1.836,-1.417 3.488,-3.559 5.55,-4.015 1.592,-0.361 3.684,1.38 5.559,2.188 0.146,0.553 0.293,1.095 0.439,1.646 0.41,-0.78 0.636,-1.74 1.251,-2.313 2.13,-1.968 4.35,-1.369 4.496,1.237 0.324,5.996 -0.024,12.018 -0.159,18.038 z m 5.951,-51.836 c -0.508,0 -1.017,0 -1.533,-0.011 -0.354,-4.29 -0.704,-8.571 -1.056,-12.861 -0.518,-0.095 -1.036,-0.19 -1.553,-0.285 -1.212,2.388 -2.308,4.833 -3.675,7.126 -0.575,0.97 -1.728,1.616 -2.617,2.405 -0.303,-1.046 -0.82,-2.083 -0.87,-3.129 -0.117,-3.035 -0.039,-6.07 -0.039,-9.104 -0.606,-0.143 -1.211,-0.275 -1.816,-0.419 -1.212,2.046 -2.688,3.987 -3.586,6.155 -1.357,3.264 -2.217,6.717 -3.516,9.999 -0.313,0.799 -1.516,1.274 -2.307,1.903 -0.331,-0.848 -0.938,-1.686 -0.958,-2.54 -0.098,-4.025 -0.048,-8.059 -0.048,-12.082 -0.723,-0.105 -1.446,-0.22 -2.169,-0.324 -0.919,2.958 -1.925,5.897 -2.745,8.896 -0.801,2.901 -1.312,5.888 -2.188,8.771 -0.225,0.723 -1.368,1.189 -2.081,1.778 -0.43,-0.789 -1.319,-1.636 -1.212,-2.349 0.381,-2.731 1.32,-5.403 1.613,-8.134 0.293,-2.74 0.057,-5.537 0.057,-8.306 -0.614,-0.124 -1.229,-0.238 -1.845,-0.352 -4.368,6.487 -7.905,13.29 -8.285,22.223 -0.625,-0.809 -1.826,-1.646 -1.778,-2.416 0.177,-2.854 0.322,-5.831 1.289,-8.495 1.358,-3.768 3.089,-7.497 5.277,-10.874 2.578,-3.978 4.903,-4.034 8.45,-0.99 5.558,-3.69 5.558,-3.69 9.418,1.761 7.54,-9.675 8.058,-9.779 12.103,-2.426 0.234,-0.02 0.509,0.019 0.724,-0.066 1.7,-0.686 4.318,-2.407 4.913,-1.895 1.456,1.266 2.638,3.512 2.756,5.434 0.205,3.51 -0.441,7.067 -0.723,10.607 z m 14.625,74.745 c -0.332,-0.161 -0.654,-0.313 -0.977,-0.476 1.143,-3.147 2.548,-6.239 3.39,-9.464 2.128,-8.173 4.073,-16.393 5.958,-24.611 0.958,-4.148 0.167,-8.097 -2.617,-11.427 -5.099,-6.097 -4.973,-12.898 -3.43,-20.082 1.065,-4.908 2.247,-9.894 2.374,-14.859 0.147,-6.146 -3.595,-10.979 -7.845,-15.154 -3.761,-3.691 -4.846,-8.239 -2.998,-12.548 5.734,-13.376 2.412,-26.4 -0.118,-39.69 -1.202,-6.355 -0.595,-13.032 -0.742,-19.559 -0.011,-0.647 0.439,-1.294 1.572,-2.018 0.303,1.181 1.036,2.445 0.841,3.549 -1.661,9.36 0.929,18.331 2.823,27.294 2.021,9.589 2.784,18.96 -0.986,28.264 -2.364,5.852 -1.662,10.854 3.212,15.478 7.944,7.563 8.228,16.887 5.541,26.704 -0.733,2.664 -1.24,5.395 -1.68,8.114 -0.842,5.319 0.838,9.989 4.19,14.138 2.97,3.663 3.38,7.98 2.727,12.234 -1.77,11.369 -4.866,22.394 -10.17,32.744 -0.254,0.504 -0.703,0.914 -1.065,1.369 z"
     fill="#156c56"
     clip-rule="evenodd"
     fill-rule="evenodd" /><path
     style="stroke-width:0.516923"
     id="path100"
     d="m 1559.0796,362.96571 c -3.029,-2.77 -4.64,-5.819 -2.85,-9.77 2.9,-6.41 1.95,-11.94 -2.99,-17.08 -2.99,-3.11 -3.76,-7.57 -2.02,-11.21 4.6,-9.641 1.87,-18.25 -2.26,-27.01 -4.061,-8.61 -6.58,-17.45 -2.221,-26.801 0.16,-0.359 0.28,-0.75 0.49,-1.069 0.13,-0.2 0.41,-0.311 0.619,-0.46 7.572,11.99 14.931,73.76 11.232,93.4 z"
     fill="#156c56"
     clip-rule="evenodd"
     fill-rule="evenodd" /><path
     style="stroke-width:0.516923"
     id="path102"
     d="m 1487.9416,465.74171 c 0.759,1.856 1.516,3.71 2.794,6.84 -2.535,-0.599 -5.36,-0.891 -5.385,-1.338 -0.104,-1.84 0.645,-3.726 1.082,-5.594 0.503,0.032 1.006,0.061 1.509,0.092 z"
     fill="none"
     clip-rule="evenodd"
     fill-rule="evenodd" /><path
     style="stroke-width:0.516923"
     id="path104"
     d="m 1494.1846,467.99271 c -0.347,-1.753 -0.893,-3.501 -0.938,-5.262 -0.016,-0.636 1.182,-1.3 1.823,-1.95 0.485,0.645 1.422,1.326 1.372,1.925 -0.152,1.815 -0.685,3.599 -1.07,5.394 -0.395,-0.036 -0.79,-0.071 -1.187,-0.107 z"
     fill="none"
     clip-rule="evenodd"
     fill-rule="evenodd" /><path
     style="stroke-width:0.516923"
     id="path106"
     d="m 1448.7216,468.45871 c -0.727,-1.461 -1.453,-2.924 -2.549,-5.131 1.697,0 2.703,0 3.709,0 0,1.717 0,3.436 0,5.152 -0.386,-0.007 -0.772,-0.013 -1.16,-0.021 z"
     fill="none"
     clip-rule="evenodd"
     fill-rule="evenodd" /><path
     style="stroke-width:0.516923"
     id="path108"
     d="m 1455.8816,465.51571 c 2.746,3.143 3.457,4.936 -0.974,6.141 0.319,-2.016 0.563,-3.556 0.974,-6.141 z"
     fill="none"
     clip-rule="evenodd"
     fill-rule="evenodd" /><path
     style="stroke-width:0.516923"
     id="path342"
     d="m 1482.4486,404.82571 c -1.339,2.07 -2.699,4.15 -4.049,6.229 -0.53,-2.229 -0.17,-4.279 -0.37,-6.279 -0.101,-1.09 -1.149,-2.08 -1.77,-3.12 -0.851,0.84 -1.8,1.6 -2.5,2.55 -0.351,0.47 -0.2,1.29 -0.34,1.93 -0.771,3.29 -1.551,6.58 -2.58,10.931 -0.98,-4.07 -1.49,-6.94 -2.411,-9.681 -0.329,-0.979 -1.619,-1.649 -2.48,-2.46 -0.639,0.98 -1.608,1.891 -1.849,2.96 -0.53,2.36 -0.69,4.811 -1.05,7.601 -2.681,-3.04 -1.83,-8.05 -7.33,-9.24 1.12,13.27 0.6,26.3 9.49,36.8 0.449,-0.06 0.52,-0.13 1.52,-0.189 v -27.862 h 1.08 c 0.51,9 1.02,17.93 1.53,26.859 4.438,-0.209 5.1,-3.689 6.739,-6.249 4.79,-7.46 7.551,-15.686 9.101,-24.325 0.41,-2.27 1.099,-5.165 -2.731,-6.455 z m -20.569,27.71 c -0.891,-4.51 -1.79,-9.021 -2.69,-13.53 0.46,-0.1 0.92,-0.2 1.38,-0.3 1.01,4.5 2.021,9 3.021,13.5 -0.571,0.11 -1.142,0.22 -1.711,0.33 z m 16.41,-7.21 c -0.47,-0.14 -0.949,-0.28 -1.42,-0.43 1.07,-3.351 2.141,-6.71 3.21,-10.061 0.471,0.141 0.95,0.29 1.42,0.43 -1.071,3.361 -2.14,6.711 -3.21,10.061 z"
     clip-rule="evenodd"
     fill-rule="evenodd" /><path
     style="stroke-width:0.516923"
     id="path344"
     d="m 1470.6596,370.83571 c -0.73,4.75 -2.92,9.29 -4.55,13.891 -0.38,1.06 -1.09,2.01 -1.649,3.02 -0.431,-0.43 -0.851,-0.86 -1.271,-1.29 1.3,-4.41 2.6,-8.82 3.89,-13.22 1.551,-5.29 1.641,-10.5 -1.08,-15.46 -1.819,-3.32 -2.159,-6.721 -1.289,-10.37 1.43,-5.98 0.88,-11.83 -2.94,-16.71 -5.04,-6.431 -3.94,-13.07 -1.75,-19.96 0.479,-1.521 0.909,-3.07 1.57,-4.51 2.18,-4.73 1.63,-9.11 -1.82,-12.931 -3.92,-4.33 -3.56,-8.899 -1.91,-14.06 2.63,-8.25 6.33,-16.59 2.49,-25.42 -1.84,-4.24 -4.14,-8.32 -6.62,-12.221 -4.48,-7.069 -5.07,-14.489 -2.22,-22.1 1.8,-4.83 4.3,-9.4 6.64,-14 0.43,-0.84 1.62,-1.31 2.46,-1.95 0.39,0.271 0.79,0.53 1.19,0.8 -1.46,3.23 -2.75,6.561 -4.431,9.67 -5.35,9.881 -6.06,19.511 0.681,29.141 2.04,2.92 3.529,6.22 5.189,9.399 4.039,7.721 1.34,15.24 -0.779,22.771 -0.5,1.79 -0.98,3.59 -1.671,5.3 -1.729,4.34 -1.279,8.311 1.801,11.87 3.77,4.36 4.569,9.03 2.09,14.37 -1.101,2.38 -1.58,5.05 -2.351,7.59 -1.71,5.7 -0.989,10.81 2.69,15.76 3.36,4.521 4.29,9.851 3.13,15.521 -0.89,4.35 -0.371,8.399 1.42,12.74 1.52,3.679 1.7,8.339 1.09,12.359 z"
     clip-rule="evenodd"
     fill-rule="evenodd" /><path
     style="stroke-width:0.516923"
     id="path346"
     d="m 1452.4486,388.47571 c -0.229,2.159 -1.679,4.46 -4.339,4.279 2.771,-10.79 3.28,-21.26 -3.26,-30.75 -3.351,-4.85 -4.01,-9.609 -2.36,-15 4.04,-13.18 1.95,-25.81 -4.55,-37.54 -3.91,-7.04 -3.71,-13.17 0.4,-19.76 1.72,-2.76 2.779,-5.94 4.089,-8.95 2.991,-6.89 1.161,-13.37 -2.339,-19.34 -3.88,-6.6 -6.021,-13.51 -5.75,-21.15 0.26,-7.26 0.3,-14.539 0.97,-21.77 0.3,-3.21 1.84,-6.33 3.02,-9.42 0.29,-0.76 1.369,-1.22 2.091,-1.82 0.329,0.91 1.009,1.87 0.899,2.71 -0.24,1.69 -0.83,3.351 -1.42,4.971 -4.49,12.46 -3.36,25.09 -0.74,37.64 0.73,3.52 2.74,6.88 4.61,10.05 4.37,7.36 3.67,14.67 0.29,22.04 -1.1,2.39 -2.42,4.69 -3.69,7.01 -2.58,4.7 -3.33,9.44 -0.54,14.36 6.2,10.97 8.61,22.729 7.221,35.26 -0.061,0.53 0.109,1.15 -0.11,1.58 -4.11,7.99 -1.5,14.811 2.88,21.9 4.479,7.24 3.489,15.64 2.628,23.7 z"
     clip-rule="evenodd"
     fill-rule="evenodd" /><path
     style="stroke-width:0.516923"
     id="path348"
     d="m 1389.9696,416.53571 c -0.24,2.04 -1.521,3.97 -2.32,5.95 -0.36,-0.13 -0.71,-0.25 -1.07,-0.38 0.54,-3.44 1.199,-6.87 1.61,-10.33 1.38,-11.94 1.75,-23.8 -2.96,-35.25 -0.7,-1.69 -1.12,-3.561 -1.31,-5.391 -0.931,-9.25 -3.891,-17.659 -9.171,-25.43 -3.26,-4.81 -3.399,-10.62 -2.109,-16.17 2.26,-9.74 2.25,-18.83 -4.59,-27.07 -3.21,-3.87 -2.63,-8.92 -0.521,-12.85 5.391,-10.03 4.73,-19.97 1.891,-30.47 -1.4,-5.141 -1.561,-10.7 -1.601,-16.08 -0.02,-2.261 1.74,-4.54 2.69,-6.811 0.41,0.12 0.83,0.25 1.239,0.37 0.19,0.43 0.671,0.99 0.54,1.28 -3.5,7.93 -2.18,15.93 0.19,23.689 2.949,9.65 2.27,18.83 -2.02,27.82 -2.45,5.15 -2.182,9.88 1.3,14.521 5.42,7.21 6.479,15.29 3.95,23.79 -2.4,8.039 -0.74,15.3 4.02,21.85 4.49,6.18 5.66,13.26 6.66,20.5 0.309,2.21 1.14,4.35 1.6,6.55 1.3,6.17 3.32,12.33 3.59,18.561 0.322,7.081 -0.808,14.251 -1.608,21.351 z"
     clip-rule="evenodd"
     fill-rule="evenodd" /><path
     style="stroke-width:0.516923"
     id="path350"
     d="m 1546.7996,364.23571 c -1.811,11.95 -4.98,23.54 -10.41,34.42 -0.26,0.53 -0.72,0.96 -1.09,1.439 -0.34,-0.17 -0.67,-0.33 -1,-0.5 1.17,-3.31 2.609,-6.56 3.47,-9.949 2.179,-8.591 4.17,-17.23 6.1,-25.87 0.979,-4.36 0.17,-8.511 -2.68,-12.011 -5.22,-6.409 -5.091,-13.56 -3.51,-21.109 1.09,-5.16 2.3,-10.4 2.43,-15.62 0.15,-6.46 -3.681,-11.54 -8.03,-15.93 -3.85,-3.88 -4.96,-8.66 -3.069,-13.19 5.87,-14.06 2.47,-27.75 -0.12,-41.72 -1.23,-6.681 -0.611,-13.7 -0.76,-20.561 -0.011,-0.68 0.449,-1.359 1.609,-2.12 0.311,1.24 1.061,2.57 0.859,3.73 -1.699,9.84 0.951,19.27 2.891,28.69 2.07,10.079 2.851,19.93 -1.01,29.71 -2.42,6.149 -1.701,11.409 3.29,16.27 8.13,7.95 8.42,17.75 5.67,28.07 -0.75,2.8 -1.27,5.67 -1.72,8.529 -0.86,5.591 0.859,10.5 4.29,14.86 3.04,3.852 3.46,8.392 2.79,12.862 z"
     clip-rule="evenodd"
     fill-rule="evenodd" /><path
     style="stroke-width:0.516923"
     id="path352"
     d="m 1423.8696,329.88571 c -0.479,0.091 -0.97,0.19 -1.449,0.28 -1.12,-6.16 -2.23,-12.32 -3.341,-18.479 -0.5,-0.061 -1.01,-0.12 -1.52,-0.181 -0.82,2.771 -1.68,5.521 -2.44,8.311 -0.27,1.01 -0.069,2.21 -0.52,3.12 -0.43,0.869 -1.42,1.479 -2.16,2.199 -0.4,-0.83 -1.03,-1.62 -1.17,-2.489 -0.6,-3.9 -0.98,-7.841 -1.62,-11.74 -0.201,-1.18 -0.951,-2.26 -1.451,-3.391 -0.5,0.011 -1,0.03 -1.5,0.04 -0.679,4.351 -1.389,8.7 -2.039,13.051 -0.109,0.779 0.25,1.689 -0.02,2.37 -0.59,1.5 -1.45,2.899 -2.2,4.34 -0.47,-1.4 -1.37,-2.82 -1.32,-4.2 0.2,-4.73 0.12,-9.26 -4.96,-13.69 -0.83,4.74 -1.59,8.63 -2.17,12.54 -0.229,1.561 0.101,3.21 -0.18,4.761 -0.17,0.949 -1,1.779 -1.531,2.659 -0.568,-0.88 -1.459,-1.689 -1.659,-2.649 -0.899,-4.37 -1.55,-8.79 -2.439,-13.16 -0.22,-1.09 -1.021,-2.061 -1.55,-3.09 -0.5,0.04 -1.011,0.08 -1.511,0.12 0,3.689 -0.1,7.38 0.021,11.06 0.2,5.9 0.609,11.79 0.77,17.69 0.02,0.779 -0.76,1.88 -1.48,2.27 -0.439,0.23 -1.859,-0.439 -2.119,-1.03 -0.47,-1.04 -0.54,-2.33 -0.5,-3.5 0.25,-8.359 0.56,-16.71 0.9,-25.069 0.05,-1.04 0.109,-2.24 0.63,-3.08 0.699,-1.13 1.72,-2.46 2.858,-2.78 0.691,-0.189 2.102,1.2 2.771,2.17 1.029,1.5 1.7,3.24 2.7,5.23 4.579,-7.38 4.93,-7.45 10.29,-2.73 2.09,-2.16 4.149,-4.31 6.22,-6.45 1.97,2.17 3.939,4.341 6.18,6.801 -0.01,0.02 -0.03,0.029 -0.04,0.04 -0.01,0.01 -0.03,0.02 -0.041,0.029 -0.35,0.09 -0.148,0.11 0,0 0.031,-0.01 0.071,-0.02 0.121,-0.029 -0.01,-0.011 -0.02,-0.03 -0.04,-0.04 1.66,-1.49 3.29,-3.011 4.93,-4.53 1.061,1.979 2.561,3.85 3.08,5.96 0.841,3.45 1.141,7.04 1.46,10.6 0.209,2.196 0.039,4.446 0.039,6.666 z"
     clip-rule="evenodd"
     fill-rule="evenodd" /><path
     style="stroke-width:0.516923"
     id="path354"
     d="m 1380.7196,412.24571 c -0.15,0.84 -0.8,1.58 -2.2,2.31 0,-2.779 -0.12,-5.56 0.03,-8.34 0.37,-6.93 -1.57,-13.17 -4.15,-19.6 -2.03,-5.08 -2.75,-11.12 -2.33,-16.61 0.51,-6.71 -1.26,-11.6 -6.49,-15.529 -5.949,-4.471 -7.02,-7.44 -4.739,-14.391 2.38,-7.22 3.79,-14.14 -0.49,-21.38 -1.48,-2.5 -1.25,-6.17 -1.311,-9.31 -0.149,-8.091 -0.05,-16.17 -0.02,-24.261 0.02,-3.58 0.12,-7.159 0.14,-10.75 0.039,-7 0.051,-13.989 0.07,-20.989 0,-0.79 -0.08,-1.58 -0.05,-2.37 0.01,-0.2 0.29,-0.4 0.439,-0.59 0.431,-0.11 0.851,-0.2 1.28,-0.311 0.529,3.42 1.521,6.84 1.51,10.26 -0.05,15.63 -0.229,31.261 -0.699,46.88 -0.181,5.73 0.39,11.131 3.199,16.131 1.98,3.55 1.801,7.08 0.511,10.729 -0.181,0.49 -0.301,1.021 -0.521,1.5 -3.51,7.59 -3.439,14.101 4.59,19.19 4.641,2.939 5.91,7.939 5.26,13.35 -0.899,7.58 0.25,14.72 3.9,21.561 3.811,7.13 3.461,14.83 2.071,22.52 z"
     clip-rule="evenodd"
     fill-rule="evenodd" /><path
     style="stroke-width:0.516923"
     id="path356"
     d="m 1520.3296,321.52571 c -0.52,0 -1.04,0 -1.569,-0.011 -0.36,-4.51 -0.721,-9.01 -1.08,-13.52 -0.53,-0.1 -1.061,-0.2 -1.59,-0.3 -1.241,2.51 -2.36,5.08 -3.761,7.49 -0.59,1.02 -1.77,1.699 -2.68,2.529 -0.31,-1.1 -0.84,-2.189 -0.89,-3.29 -0.12,-3.189 -0.04,-6.38 -0.04,-9.569 -0.62,-0.15 -1.24,-0.29 -1.86,-0.44 -1.24,2.15 -2.75,4.19 -3.67,6.47 -1.39,3.431 -2.27,7.061 -3.6,10.511 -0.32,0.84 -1.551,1.34 -2.36,2 -0.34,-0.891 -0.96,-1.771 -0.98,-2.67 -0.1,-4.23 -0.051,-8.471 -0.051,-12.7 -0.738,-0.11 -1.479,-0.23 -2.219,-0.34 -0.94,3.109 -1.97,6.199 -2.81,9.35 -0.82,3.05 -1.341,6.19 -2.241,9.22 -0.23,0.76 -1.399,1.25 -2.129,1.87 -0.44,-0.83 -1.352,-1.72 -1.24,-2.47 0.389,-2.87 1.35,-5.68 1.65,-8.55 0.3,-2.88 0.06,-5.82 0.06,-8.73 -0.63,-0.13 -1.26,-0.25 -1.89,-0.37 -4.471,6.82 -8.091,13.971 -8.48,23.36 -0.64,-0.851 -1.87,-1.73 -1.82,-2.54 0.181,-3 0.33,-6.13 1.32,-8.93 1.39,-3.96 3.16,-7.881 5.4,-11.431 2.64,-4.18 5.02,-4.239 8.648,-1.04 5.691,-3.88 5.691,-3.88 9.642,1.851 7.72,-10.17 8.25,-10.28 12.39,-2.55 0.24,-0.021 0.52,0.02 0.74,-0.07 1.74,-0.72 4.42,-2.53 5.029,-1.99 1.49,1.33 2.699,3.69 2.82,5.71 0.21,3.69 -0.449,7.43 -0.739,11.15 z"
     clip-rule="evenodd"
     fill-rule="evenodd" /><path
     style="stroke-width:0.516923"
     id="path358"
     d="m 1417.7786,260.52571 c -0.549,0.22 -1.108,0.439 -1.669,0.66 -1.95,-5.561 -3.89,-11.12 -5.84,-16.681 -0.45,0.03 -0.9,0.05 -1.35,0.08 -0.431,5.42 -0.87,10.83 -1.311,16.24 -0.29,0.2 -0.58,0.4 -0.87,0.59 -0.609,-0.96 -1.42,-1.86 -1.8,-2.9 -1.35,-3.72 -2.54,-7.489 -3.79,-11.239 -0.56,0.13 -1.11,0.26 -1.67,0.39 0,3.73 0.09,7.46 -0.04,11.18 -0.06,1.36 -0.65,2.7 -1,4.051 -0.76,-1.301 -1.78,-2.511 -2.229,-3.91 -1.021,-3.181 -1.762,-6.44 -2.61,-9.66 -0.47,0.08 -0.93,0.15 -1.401,0.229 0.281,3.57 0.541,7.15 0.861,10.721 0.07,0.779 0.6,1.569 0.5,2.3 -0.12,0.91 -0.67,1.75 -1.04,2.63 -0.65,-0.79 -1.571,-1.479 -1.91,-2.39 -2.02,-5.29 -3.89,-10.63 -5.86,-15.95 -0.1,-0.271 -0.579,-0.39 -2.229,-1.44 1.29,9.16 2.42,17.21 3.63,25.79 -0.52,-0.39 -2.15,-0.979 -2.25,-1.779 -1.05,-8.23 -1.92,-16.49 -2.65,-24.761 -0.06,-0.729 1.141,-2.189 1.79,-2.21 0.95,-0.04 2.2,0.73 2.82,1.54 1.16,1.5 1.97,3.29 2.919,4.96 1,-2.149 1.871,-4.02 2.741,-5.88 1.57,1.15 3.15,2.3 4.74,3.46 3.46,-4.24 3.46,-4.24 8.89,1.71 0.629,-1.96 0.96,-3.91 1.87,-5.55 0.63,-1.13 1.979,-2.37 3.14,-2.52 0.82,-0.101 2.37,1.399 2.7,2.46 1.789,5.919 3.309,11.909 4.918,17.879 z"
     clip-rule="evenodd"
     fill-rule="evenodd" /><path
     style="stroke-width:0.516923"
     id="path360"
     d="m 1513.4796,255.12571 c -0.551,-5.67 -1.051,-10.86 -1.56,-16.05 -0.521,-0.08 -1.04,-0.16 -1.561,-0.24 -1.689,3.78 -3.411,7.561 -5.05,11.37 -0.41,0.96 -0.35,2.17 -0.89,3.021 -0.46,0.729 -1.48,1.119 -2.24,1.659 -0.33,-0.859 -0.94,-1.72 -0.931,-2.569 0.051,-3.301 0.33,-6.59 0.421,-9.88 0.01,-0.591 -0.46,-1.19 -1.2,-2.99 -1.71,3.399 -3.021,5.96 -4.3,8.54 -1.051,2.109 0.52,6.01 -4.03,6.31 0.38,-4.96 0.689,-9.09 1,-13.21 -0.58,-0.16 -1.15,-0.3 -1.73,-0.45 -2.29,5.45 -4.58,10.91 -6.87,16.37 -0.31,-0.2 -0.61,-0.41 -0.92,-0.609 -0.421,-4.011 -0.77,-8.021 -1.31,-12.011 -0.111,-0.79 -0.92,-1.5 -1.4,-2.229 -4.67,2.71 -6.239,7.29 -6.55,16.859 -0.62,-0.81 -1.87,-1.729 -1.75,-2.409 0.771,-4.471 1.101,-9.24 3.01,-13.21 2.37,-4.931 6.25,-4.641 9.391,-0.12 0.279,0.41 0.66,0.76 1.1,1.25 1.46,-2.21 2.51,-4.55 4.22,-6.221 2.521,-2.449 4.53,-0.96 5.78,1.811 5.58,-5.061 6.04,-4.99 8.95,1.56 1.59,-1.89 3.04,-3.71 4.59,-5.43 1.5,-1.68 3.01,-1.46 4.32,0.26 2.55,3.348 2.479,14.608 -0.49,18.618 z"
     clip-rule="evenodd"
     fill-rule="evenodd" /><path
     style="stroke-width:0.516923"
     id="path362"
     d="m 1513.9796,376.01571 c 0,0.221 -0.25,0.44 -2.25,1.53 v -17.64 c 0,-0.09 -1.02,-0.17 -1.65,-0.25 -0.879,2.76 -1.715,5.5 -2.514,8.28 -0.621,2.149 -0.894,4.39 -1.613,6.5 -0.25,0.739 -1.252,1.22 -1.932,1.81 -0.33,-0.86 -0.996,-1.76 -0.926,-2.59 0.39,-4.21 1.137,-8.38 1.418,-12.59 0.109,-1.53 -0.688,-3.11 -1.307,-5.62 -4.181,4.49 -5.158,9.05 -5.938,13.72 -0.44,2.59 -0.87,5.2 -1.529,7.74 -0.18,0.66 -1.22,1.1 -1.858,1.63 -0.41,-0.71 -1.24,-1.47 -1.17,-2.14 0.229,-2.49 0.75,-4.95 1.189,-7.42 0.72,-4.11 0.62,-8.08 -2.28,-12.58 -6.54,7.979 -7.939,16.609 -8.25,26.54 -0.77,-0.95 -1.909,-1.78 -2.25,-2.86 -1.649,-5.37 3.5,-20.9 7.88,-24.23 3.15,-2.38 4.949,-1.8 7.699,2.53 1.881,-1.49 3.571,-3.74 5.682,-4.22 1.63,-0.38 3.77,1.45 5.689,2.3 0.15,0.58 0.3,1.15 0.45,1.73 0.42,-0.82 0.65,-1.83 1.28,-2.431 2.18,-2.069 4.324,-1.439 4.475,1.3 0.33,6.301 -0.154,12.631 -0.295,18.961 z"
     clip-rule="evenodd"
     fill-rule="evenodd" /><path
     style="stroke-width:0.516923"
     id="path364"
     d="m 1516.5196,180.77571 c 0.31,-5.181 0.56,-9.42 0.8,-13.66 -0.391,-0.101 -0.78,-0.2 -1.18,-0.3 -1.28,3.069 -2.43,6.21 -3.9,9.189 -0.59,1.2 -1.88,2.061 -2.85,3.08 -0.061,-1.24 -0.33,-2.51 -0.141,-3.71 0.41,-2.45 1.061,-4.85 0.721,-7.68 -1.29,2.7 -2.45,5.47 -3.92,8.06 -0.602,1.061 -1.852,1.74 -2.811,2.59 -0.149,-1.109 -0.5,-2.239 -0.42,-3.34 0.18,-2.63 0.57,-5.24 0.94,-8.38 -4.36,3.59 -1.931,10.54 -7.73,13.51 -0.71,-6.64 5.169,-11.609 2.351,-18.63 -5.03,6.21 -7.221,12.8 -7.5,20.19 -0.521,0.09 -1.04,0.18 -1.561,0.27 -0.38,-1.42 -1.439,-3.1 -1.02,-4.239 1.96,-5.421 4.06,-10.83 6.67,-15.961 1.109,-2.17 3.52,-3.859 6.18,-1.14 0.299,0.311 0.94,0.4 1.43,0.41 3.66,0.04 3.66,0.03 4.631,3.92 2.319,-0.04 4.17,-5.05 6.84,-0.57 1.199,-0.75 2.12,-1.699 3.17,-1.88 0.93,-0.16 2.52,0.23 2.92,0.91 1.59,2.661 -0.49,13.871 -3.62,17.361 z"
     clip-rule="evenodd"
     fill-rule="evenodd" /><path
     style="stroke-width:0.516923"
     id="path366"
     d="m 1431.5896,380.94571 c -0.161,1.43 0.399,2.99 0.08,4.35 -0.241,1.03 -1.36,1.851 -2.101,2.76 -0.51,-0.89 -1.31,-1.739 -1.46,-2.689 -0.26,-1.55 0.21,-3.25 -0.149,-4.76 -0.49,-2 -1.471,-3.88 -2.25,-5.811 -0.62,0.061 -1.25,0.13 -1.881,0.2 -0.489,2.98 -1.051,5.96 -1.42,8.96 -0.17,1.3 0.25,2.69 0,3.96 -0.16,0.83 -1.029,1.521 -1.59,2.28 -0.53,-0.771 -1.38,-1.47 -1.56,-2.311 -0.67,-3.22 -1,-6.52 -1.74,-9.72 -0.34,-1.46 -1.35,-2.76 -2.06,-4.13 -0.431,0.07 -0.86,0.14 -1.28,0.21 0.16,3.42 0.47,6.84 0.439,10.26 -0.02,2.37 1.88,5.391 -1.83,6.8 -0.591,-2.229 -1.189,-4.46 -1.76,-6.699 -1.03,-4.03 -1.93,-8.101 -3.16,-12.061 -0.279,-0.93 -2.109,-2.3 -2.479,-2.1 -1.16,0.63 -2.641,1.83 -2.78,2.96 -0.5,4.02 -0.52,8.109 -0.681,12.17 -0.029,0.72 0.15,1.439 0.23,2.17 -0.239,0.15 -0.489,0.31 -0.73,0.46 -0.709,-0.75 -1.81,-1.41 -2.049,-2.29 -1.46,-5.32 -1.261,-10.59 1.83,-15.31 2.85,-4.37 5.55,-4.37 8.75,-0.32 0.479,0.61 0.92,1.25 1.569,2.13 4.63,-3.96 6.36,0.14 8.561,3.311 2.68,-2.61 5.239,-5.351 8.77,-1.86 5.25,-3.59 6.97,-3.11 9.72,3.26 -2,-1.17 -3.46,-2.02 -5.67,-3.31 -0.509,2.66 -1.059,4.88 -1.319,7.13 z"
     clip-rule="evenodd"
     fill-rule="evenodd" /><path
     style="stroke-width:0.516923"
     id="path368"
     d="m 1387.5596,169.49571 c -0.26,-0.01 -0.521,-0.02 -0.781,-0.02 0.5,4.199 0.991,8.399 1.481,12.6 -0.44,0.13 -0.88,0.26 -1.331,0.39 -3.449,-3.21 -1.629,-8.859 -5.399,-12.149 0.57,2.39 1.249,4.75 1.65,7.17 0.24,1.38 0.019,2.84 0,4.27 -0.84,-1.02 -1.88,-1.93 -2.481,-3.08 -0.889,-1.72 -1.479,-3.6 -2.188,-5.41 -0.38,0.11 -0.761,0.221 -1.141,0.33 0.87,2.82 1.86,5.61 2.57,8.471 0.259,1.06 -0.13,2.279 -0.22,3.43 -0.851,-0.83 -1.95,-1.53 -2.521,-2.53 -1.879,-3.29 -3.568,-6.68 -5.329,-10.04 -0.58,0.29 -1.159,0.57 -1.75,0.86 l 6.48,15.36 c -0.151,0.239 -0.29,0.489 -0.44,0.739 -1.25,-1.1 -3.08,-1.949 -3.649,-3.33 -2.05,-5 -3.8,-10.14 -5.4,-15.319 -0.411,-1.311 0.18,-2.931 0.311,-4.4 1.278,0.65 2.63,1.19 3.81,1.99 0.71,0.49 1.14,1.38 1.88,2.32 1.101,-3.841 6.18,-6.53 9.96,-6.07 1.16,-1.46 2.17,-2.71 3.18,-3.96 1.091,1.34 2.641,2.52 3.199,4.05 1.691,4.62 2.991,9.38 4.441,14.08 -0.441,0.18 -0.88,0.36 -1.33,0.55 -1.662,-3.442 -3.332,-6.872 -5.002,-10.302 z"
     clip-rule="evenodd"
     fill-rule="evenodd" /><path
     style="stroke-width:0.516923"
     id="path370"
     d="m 1400.3796,477.67571 c -0.011,0.931 -1.04,2.431 -1.82,2.59 -0.8,0.16 -1.92,-0.92 -2.811,-1.579 -0.479,-0.351 -0.779,-0.94 -2.09,-2.601 0.57,5.48 -2.35,7.01 -5.649,8.49 -2.19,0.979 -3.99,0.83 -4.33,-1.41 -1.13,-7.45 -1.891,-14.96 -2.69,-22.46 -0.061,-0.52 0.7,-1.13 1.7,-2.63 1.05,8.08 1.96,14.979 2.86,21.89 0.449,0.011 0.898,0.021 1.35,0.03 0.43,-4.29 0.87,-8.58 1.41,-13.91 3.46,2.76 6.119,4.87 9.24,7.36 0.229,-7.94 0.46,-15.84 0.689,-23.73 0.74,0.021 1.48,0.05 2.221,0.07 0,9.3 0.06,18.6 -0.08,27.89 z"
     clip-rule="evenodd"
     fill-rule="evenodd" /><path
     style="stroke-width:0.516923"
     id="path372"
     d="m 1510.8296,414.72571 c -1.84,5.35 -4.439,10.46 -6.051,15.869 -1.199,4.08 -1.339,8.48 -1.959,12.74 -0.439,0.07 -0.871,0.15 -1.31,0.22 -0.4,-2.069 -1.55,-4.34 -1.07,-6.18 1.81,-6.84 4.14,-13.55 6.3,-20.3 0.24,-0.74 0.92,-1.42 0.94,-2.14 0.05,-1.521 0.26,-3.391 -0.51,-4.44 -0.472,-0.64 -2.71,-0.3 -4.04,0.04 -8.301,2.1 -12.701,8.05 -15.21,15.78 -1.11,3.399 -2.131,6.83 -3.29,10.21 -0.5,1.43 -1.261,2.77 -2.79,4 -0.051,-0.771 -0.33,-1.61 -0.12,-2.3 1.85,-5.931 3.64,-11.891 5.72,-17.75 2.88,-8.061 9.69,-11.2 17.31,-12.931 4.17,-0.948 7.529,2.992 6.08,7.182 z"
     clip-rule="evenodd"
     fill-rule="evenodd" /><path
     style="stroke-width:0.516923"
     id="path374"
     d="m 1452.3096,439.23571 c 0.05,1.26 -0.28,2.529 -0.42,3.79 -0.58,0.12 -1.15,0.25 -1.72,0.38 -0.431,-1.58 -1.222,-3.15 -1.241,-4.73 -0.159,-10.43 -4.719,-18.59 -12.689,-24.97 -1.21,-0.97 -2.95,-1.3 -4.439,-1.92 -0.16,1.6 -0.41,3.2 -0.48,4.8 -0.34,8.42 -0.58,16.84 -1,25.26 -0.07,1.24 -0.95,2.44 -1.45,3.66 -0.46,-0.08 -0.921,-0.149 -1.38,-0.229 0,-1.011 -0.189,-2.061 0.03,-3.011 2.08,-8.899 2.44,-17.81 0.8,-26.85 -0.32,-1.78 0.34,-4.82 1.57,-5.52 1.47,-0.851 4.53,-0.561 6.03,0.489 9.949,6.981 15.819,16.471 16.389,28.851 z"
     clip-rule="evenodd"
     fill-rule="evenodd" /><path
     style="stroke-width:0.516923"
     id="path376"
     d="m 1500.6696,483.24571 c -0.82,2.42 -1.83,4.83 -3.21,6.95 -0.45,0.68 -2.4,0.899 -3.391,0.56 -0.81,-0.27 -1.22,-1.71 -2.24,-3.31 2.49,-2.29 4.78,-4.37 7.061,-6.46 0.63,0.77 1.94,1.77 1.78,2.26 z"
     clip-rule="evenodd"
     fill-rule="evenodd" /><path
     style="stroke-width:0.516923"
     id="path378"
     d="m 1477.3896,496.30571 c -0.43,1.83 -0.691,3.9 -1.78,5.301 -0.62,0.79 -2.899,0.979 -4.06,0.51 -1.681,-0.68 -3.03,-2.19 -4.7,-3.48 0.77,-0.989 1.06,-1.81 1.54,-1.93 2.52,-0.62 5.08,-1.12 7.649,-1.5 0.41,-0.061 1.41,0.829 1.351,1.099 z"
     clip-rule="evenodd"
     fill-rule="evenodd" /><path
     style="stroke-width:0.516923"
     id="path380"
     d="m 1443.5596,439.56571 c 0.1,0.35 -0.72,1.14 -1.26,1.46 -0.95,0.569 -2.021,0.93 -3.03,1.39 -0.45,0.21 -0.9,0.42 -1.341,0.63 -0.419,-2.67 -1.23,-5.359 -1.14,-8.01 0.091,-2.72 2.73,-3.64 4.4,-1.53 1.301,1.63 1.74,3.98 2.371,6.06 z"
     clip-rule="evenodd"
     fill-rule="evenodd" /><path
     style="stroke-width:0.516923"
     id="path382"
     d="m 1496.6796,431.09571 c -0.061,2.48 -0.891,4.95 -1.391,7.42 -0.511,0.131 -1.029,0.261 -1.54,0.381 -1.159,-1.69 -2.96,-3.28 -3.26,-5.12 -0.229,-1.34 1.19,-3.41 2.459,-4.44 1.822,-1.491 3.792,-0.831 3.732,1.759 z"
     clip-rule="evenodd"
     fill-rule="evenodd" /><path
     style="stroke-width:0.516923"
     id="path384"
     d="m 1451.8496,485.59571 c -2.921,0.271 -5.521,0.94 -7.94,0.54 -1.04,-0.18 -1.91,-2.51 -2.42,-4 -0.13,-0.39 1.471,-1.979 2.16,-1.909 1.65,0.159 3.34,0.789 4.799,1.6 0.98,0.539 1.611,1.719 3.401,3.769 z"
     clip-rule="evenodd"
     fill-rule="evenodd" /><path
     style="stroke-width:0.516923"
     id="path694"
     d="m 1461.8816,432.53271 c -0.896,-4.51 -1.794,-9.018 -2.69,-13.525 0.46,-0.1 0.921,-0.198 1.38,-0.297 1.008,4.497 2.016,8.996 3.021,13.494 -0.569,0.109 -1.139,0.218 -1.711,0.328 z"
     fill="none"
     clip-rule="evenodd"
     fill-rule="evenodd" /><path
     style="stroke-width:0.516923"
     id="path696"
     d="m 1481.5036,415.26871 c -1.071,3.354 -2.144,6.708 -3.216,10.061 -0.473,-0.144 -0.945,-0.287 -1.416,-0.431 1.067,-3.356 2.136,-6.712 3.204,-10.067 0.476,0.145 0.953,0.291 1.428,0.437 z"
     fill="none"
     clip-rule="evenodd"
     fill-rule="evenodd" /><path
     style="stroke-width:0.516923"
     id="path782"
     d="m 1565.4486,448.05571 c -1.699,-8.92 -6.129,-17.399 -4.829,-26.77 1.011,-7.31 2.57,-14.55 4.061,-21.78 3.88,-18.88 1.33,-38.05 2.51,-57.06 0.589,-9.61 -1.47,-19.46 -2.95,-29.101 -1.97,-12.81 -4.109,-25.63 -6.99,-38.26 -2.439,-10.68 -6.579,-20.979 -9.029,-31.66 -3.53,-15.46 -6.25,-31.1 -9.24,-46.67 -1.54,-8.02 -1.31,-15.93 0.79,-23.939 2.3,-8.801 5.06,-17.7 2.929,-27.021 -1.879,-8.21 -6.389,-15.79 -16.318,-16.58 -10.19,-0.819 -19.602,1.101 -28.682,4.771 -7.77,3.14 -13.278,8.85 -15.449,17.529 -1.239,4.961 -3.21,9.86 -5.68,14.341 -1.41,2.55 -4.21,4.72 -6.871,6.109 -3.659,1.91 -6.679,-0.04 -6.669,-4.18 0.021,-6.08 0.641,-12.15 0.95,-18.23 0.96,-18.939 2.74,-37.869 -0.88,-56.77 -1.21,-6.31 -3.73,-11.95 -9.07,-15.24 -10.68,-6.58 -25.18,-4.729 -34.45,4.08 -10.119,9.63 -13.08,19.86 -7.279,34.36 5,12.52 11.79,24.45 11.05,38.56 -0.24,4.61 -0.25,9.311 -1.2,13.8 -1.57,7.45 -7.29,9.341 -12.81,4.11 -3.07,-2.9 -6.08,-6.59 -7.37,-10.5 -2.221,-6.72 -5.76,-12.45 -9.98,-17.89 -4.59,-5.92 -9.37,-11.95 -17.39,-12.891 -3.7,-0.43 -8.64,-0.39 -11.23,1.681 -7.89,6.31 -12.171,14.38 -9.96,25.39 1.91,9.53 4.11,19.24 2.15,29.17 -1.51,7.66 -2.73,15.38 -4.271,23.04 -2,9.98 -4.6,19.87 -6.18,29.92 -2.12,13.48 -3.47,27.08 -5.229,40.63 -2.061,15.87 -2.311,31.82 -0.71,47.7 1.51,15.021 3.27,30.09 6.14,44.9 2.57,13.21 6.03,26.39 10.54,39.069 4.71,13.25 8.7,26.351 8.439,40.58 -0.27,13.91 -0.489,27.78 3.101,41.51 2.29,8.771 5,16.921 11.389,23.65 6.581,6.93 22.42,9.21 30.411,3.9 4.25,-2.83 8.36,-6.301 8.87,-11.59 0.54,-5.601 0.2,-11.381 -0.48,-16.99 -0.909,-7.62 -2.64,-15.13 -3.71,-22.73 -0.27,-1.939 0.66,-4.05 1.04,-6.09 0.5,-0.01 0.99,-0.03 1.49,-0.04 0.73,1.75 1.84,3.45 2.13,5.271 0.931,6.02 1.669,12.069 2.28,18.13 0.37,3.75 1.85,6.029 5.84,6.779 4.9,0.931 10,1.69 14.49,3.7 9.37,4.21 18.37,9.25 27.6,13.79 1.33,0.65 3.3,1.03 4.61,0.55 8.28,-3.02 16.57,-6.06 24.62,-9.619 6,-2.65 11.689,-6.011 17.37,-9.311 1.12,-0.65 2.029,-2.43 2.18,-3.78 0.429,-3.939 0.19,-7.96 0.66,-11.899 0.399,-3.431 1.41,-6.78 2.149,-10.16 0.77,-0.04 1.54,-0.09 2.311,-0.13 0.639,2.67 1.47,5.31 1.859,8.02 0.971,6.79 1.29,13.71 2.69,20.41 2.32,11.15 13.21,16.67 23.159,12.03 6.321,-2.95 10.98,-7.58 13.791,-14.19 3.75,-8.8 4.05,-18.13 4.149,-27.34 0.058,-6.349 -1.631,-12.749 -2.842,-19.069 z m -6.369,-85.09 c -3.029,-2.77 -4.64,-5.819 -2.85,-9.77 2.9,-6.41 1.95,-11.94 -2.99,-17.08 -2.99,-3.11 -3.76,-7.57 -2.02,-11.21 4.6,-9.641 1.87,-18.25 -2.26,-27.01 -2.87,-6.08 -4.971,-12.28 -4.41,-18.7 0.229,-2.66 0.71,-5.36 1.989,-8.101 0.131,-0.3 0.19,-0.6 0.19,-0.88 v -0.01 c 0,-0.06 0.26,-0.12 0.3,-0.18 0.01,-0.011 0.021,-0.03 0.03,-0.04 0.17,-0.181 0.59,-0.28 0.789,-0.42 7.572,11.991 14.931,73.761 11.232,93.401 z m -103.87,-256.73 c 0.06,-3.23 0.539,-6.45 0.84,-9.67 0.229,-0.021 0.46,-0.03 0.699,-0.051 0.449,3.75 1.141,7.48 1.311,11.23 0.24,5.41 0.16,10.84 0.06,16.25 -0.01,0.81 -0.88,1.6 -1.359,2.4 -0.5,-0.771 -1.41,-1.54 -1.44,-2.33 -0.151,-5.939 -0.231,-11.889 -0.111,-17.829 z m -1.261,-17.87 c -0.5,11.38 -0.979,22.75 -1.509,34.13 -0.06,1.16 -0.36,2.31 -0.54,3.46 -0.46,-0.02 -0.92,-0.04 -1.38,-0.06 -1.071,-15.591 -2.15,-31.17 -3.23,-46.82 4.19,1.46 6.84,5.23 6.659,9.29 z m -17.529,-9.61 c 2.028,-0.779 4.31,-0.88 7.778,-1.49 1.321,16.511 2.58,32.261 3.831,47.94 -3.069,1.35 -4.46,1.09 -5.09,-2.18 -2.661,-13.73 -5.63,-27.41 -8.31,-41.15 -0.18,-0.93 0.891,-2.77 1.791,-3.12 z m -5.26,2.89 c 1.619,7.159 3.21,14.34 4.87,21.5 1.601,6.93 3.33,13.819 4.851,20.76 0.21,0.97 -0.17,2.71 -0.841,3.08 -1.591,0.89 -3.25,0.76 -3.989,-1.54 -2.48,-7.75 -5.08,-15.46 -7.561,-23.21 -1.211,-3.76 -2.149,-7.61 -3.38,-11.37 -1.95,-5.99 -1.07,-7.51 6.05,-9.22 z m -14.35,18.31 c 0.54,-3.41 1.92,-6.68 2.91,-10.02 0.569,0.04 1.14,0.079 1.72,0.119 4.04,12.881 8.08,25.75 12.25,39.021 -1.479,0.8 -3.33,1.99 -5.34,2.79 -0.63,0.25 -2.19,-0.33 -2.46,-0.93 -4.55,-9.88 -10.95,-19.29 -9.08,-30.98 z m 145.139,372.46 c -0.539,3.64 -0.639,7.41 -1.028,11.1 -0.011,0.021 0,0.03 0,0.051 -0.011,0.02 -0.011,0.04 -0.011,0.069 -0.54,4.801 -1.58,9.471 -4.699,13.61 -5.9,7.83 -11.631,10.52 -19.82,2.81 -3.101,-2.909 -3.76,-8.819 -4.66,-13.54 -0.89,-4.64 -0.631,-9.5 -0.96,-14.26 -0.54,-7.74 -5.62,-11.93 -13.01,-10.49 -0.65,-1.64 -1.2,-3.409 -2.062,-5 -0.209,-0.399 -0.738,-0.63 -1.278,-0.859 -0.29,-0.11 -0.58,-0.23 -0.841,-0.37 -0.23,0.78 -0.819,1.66 -0.631,2.31 0.392,1.29 0.911,2.54 1.441,3.79 0,0.011 0.01,0.021 0.01,0.03 0.29,0.7 0.58,1.39 0.85,2.1 0.311,0.82 0.5,1.681 0.74,2.521 -0.34,0.14 -0.68,0.28 -1.029,0.42 -1.361,-2.31 -2.721,-4.61 -4.091,-6.92 0,0 0,-0.01 -0.01,-0.01 -0.07,-0.13 -0.149,-0.261 -0.229,-0.391 -0.561,0.271 -1.131,0.551 -1.69,0.82 0.79,2.2 1.36,4.51 2.42,6.57 1.46,2.85 2.16,5.51 0.82,8.68 -0.641,1.5 -0.37,3.43 -0.16,5.11 0.25,2.029 -0.29,3.85 -0.29,5.479 v 0.01 c 0,0.011 0,0.011 0,0.021 v 0.57 c -1,2.79 -3.22,4.979 -6.38,6.649 -2.68,1.42 -5.37,3.04 -8.05,4.48 -2.65,1.41 -5.42,2.71 -8.57,4.29 -3.87,-8.79 -4.26,-17.82 -4.13,-26.801 0.729,0 1.399,-0.27 2.07,-0.27 h 0.01 c 4.78,0 8.05,-1.87 11.05,-5.01 0,-0.01 0,-0.01 0,-0.01 0.14,-0.261 0.28,-0.54 0.42,-0.82 0.87,-1.76 1.75,-3.9 2.19,-6.4 0.149,-0.84 0.88,-1.62 1.52,-2.29 1.04,-1.06 2.14,-2.02 2.98,-3.42 -5.65,1.08 -11.79,0.83 -16.642,3.79 -0.039,0.03 -0.059,0.16 -0.099,0.16 h -0.01 c -0.161,0.09 -0.32,0.18 -0.48,0.29 0,0 -0.01,0 -0.01,0.01 -0.01,0 -0.01,0.01 -0.021,0.01 -1.6,1 -3.05,2.5 -4.27,4.57 -3.07,5.12 -2.58,10.48 -2.061,15.8 0.631,6.431 2.141,12.771 3.341,19.13 0,0.021 0.029,0.04 0.06,0.051 0.04,0.02 0.08,0.04 0.08,0.069 v 0.011 c 0,1.979 -0.35,2.829 -2.36,3.649 -7.97,3.25 -14.489,-0.42 -20.921,-4.21 -0.619,-0.37 -1.02,-2.16 -0.699,-2.979 3.49,-9.03 2.949,-18.271 1.271,-27.471 -0.9,-4.97 -4.26,-8.5 -9.271,-9.149 -3.77,-0.49 -7.649,-0.3 -11.579,-0.2 -1.141,0.04 -2.29,0.06 -3.44,0.06 0.26,1.44 0.27,1.9 0.36,1.92 4.26,0.82 5.85,4.37 8.239,7.37 3.03,3.811 7.271,5.74 12.28,3.61 2.169,4.37 1.78,14.19 -0.45,20.87 -0.47,1.399 -1.01,2.66 -1.63,3.7 -0.76,-0.311 -1.67,-0.49 -2.37,-0.971 -6.51,-4.449 -13.711,-6.92 -21.54,-7.52 -3.479,-0.271 -4.899,-1.9 -4.76,-5.38 0.14,-3.45 -0.439,-6.95 -0.03,-10.34 0.33,-2.75 1.65,-5.381 2.78,-8.801 -0.03,0.021 -0.07,0.04 -0.1,0.051 -1.65,0.85 -2.761,1.43 -3.88,2.01 -0.37,-0.22 -0.74,-0.44 -1.11,-0.66 2.01,-3.52 4.04,-7.04 6.07,-10.55 0,-0.01 0,-0.021 0.01,-0.03 0.329,-0.57 0.66,-1.14 0.99,-1.71 -0.38,-0.31 -0.74,-0.61 -1.12,-0.91 -1.601,1.92 -3.2,3.84 -4.851,5.811 -0.779,0.93 -1.569,1.88 -2.37,2.84 -0.76,-0.87 -1.43,-1.65 -2.119,-2.42 -1.971,-2.181 -3.62,-3.34 -5.23,-3.511 -1.93,-0.199 -3.82,1.011 -6.17,3.58 -6.93,7.54 -4.63,15.91 -2.85,24.45 1.449,6.98 2.619,14.05 3.34,21.13 0.34,3.41 -0.04,6.101 -0.99,8.17 -2.63,5.811 -9.61,6.73 -16.96,5.03 -9.36,-2.16 -14.13,-9.56 -16.491,-18.3 -3.789,-13.98 -6.339,-28.1 -5.379,-42.8 0.521,-7.99 0.11,-16.271 -1.451,-24.11 -1.688,-8.5 -5.25,-16.62 -7.919,-24.93 -7.359,-22.931 -12.46,-46.311 -14.84,-70.32 -1.761,-17.64 -2.44,-35.21 -0.66,-52.87 2.41,-24.02 5.76,-47.87 11.391,-71.38 2.149,-9.01 4.14,-18.16 4.89,-27.35 0.59,-7.16 -0.79,-14.49 -1.44,-21.73 -0.239,-2.77 -0.77,-5.53 -1.34,-8.25 -1.601,-7.76 1.86,-13.64 6.79,-19.07 2.609,-2.859 5.51,-3.13 8.49,-0.96 9.02,6.54 15.939,14.811 19.11,25.62 2.439,8.28 7.739,14.29 15.18,17.46 8.17,3.48 18.53,0.54 20.55,-11.96 1.521,-9.43 0.66,-18.8 -1.61,-28 -0.779,-3.17 -0.14,-4.729 2.841,-6.189 7.369,-3.61 14.939,-5.221 23.119,-4.16 2.471,0.32 3.421,1.24 3.199,3.82 -0.318,3.59 -0.619,7.18 -0.909,10.77 -0.55,6.59 -1.05,13.18 -1.479,19.78 -0.25,3.72 -0.01,7.29 3.01,9.93 0.36,0.311 0.76,0.61 1.2,0.9 3.52,2.29 6.49,5.239 11.38,3.779 7.79,-2.319 12.61,-7.359 15.18,-14.92 1.83,-5.37 3.311,-10.979 5.98,-15.92 4.43,-8.2 12.95,-10.63 21.25,-12.64 4.05,-0.97 8.49,-1.3 12.59,-0.74 2.42,0.33 5.28,2.521 6.63,4.68 3.61,5.801 4.2,12.2 3.2,18.57 v 0.05 c -0.01,1.37 -0.74,2.74 -1.11,4.101 -3.33,12.41 -4.89,24.55 -2.89,37.14 v 0.01 c 0.17,0.4 0,0.79 0,1.19 v 0.01 c 0.19,0.37 0.35,0.75 0.48,1.12 0.568,1.57 0.71,3.15 1.17,4.73 3.699,12.51 4.969,25.779 7.64,38.63 1.37,6.58 3.87,12.939 5.729,19.43 0.261,0.92 0.6,2.32 0.131,2.91 -0.25,0.31 -0.311,0.62 -0.54,0.939 -0.03,0.04 -0.051,0.07 -0.08,0.11 -0.011,0 -0.011,0.01 -0.011,0.01 -4.56,6.38 -5.439,12.971 -3.75,19.53 0.07,0.27 0.15,0.55 0.23,0.82 v 0.01 c 0,3.13 1.78,6.24 3.219,9.31 2.762,5.811 4.722,11.45 4.781,17.36 v 0.28 c 0,0.01 0,0.01 0,0.02 0,3.11 -0.44,6.3 -1.96,9.63 -1.18,2.561 -1.08,5.16 -0.35,7.561 0.1,0.3 0.199,0.6 0.31,0.89 v 0.01 c 0,1.61 1.42,3.12 2.74,4.431 3.06,3.02 4.04,6.17 3.809,9.479 -0.01,0.09 -0.01,0.17 -0.029,0.26 -0.17,1.891 -1.051,3.82 -1.949,5.811 -1.061,2.34 -0.57,4.45 -0.57,6.479 v 0.011 c 0,0.02 0.03,0.05 0.04,0.069 0.06,0.141 -0.04,0.28 -0.04,0.42 v 0.011 c 0.18,0.109 0.32,0.229 0.43,0.34 0.521,0.53 0.46,1.05 0.86,1.569 1.71,2.19 2.88,4.53 3.3,6.95 0.029,0.15 0.061,0.311 0.08,0.46 0.021,0.08 0.08,0.17 0.1,0.25 0.08,0.65 0.23,1.311 0.23,1.971 v 0.01 c 1,2.29 0.14,4.63 -0.36,7.01 -1.18,5.63 -2.58,11.2 -3.949,16.8 0.3,0.08 0.659,0.16 0.96,0.24 0.02,0.01 0.04,0.01 0.06,0.01 0.08,0.03 0.19,0.05 0.271,0.07 1.35,-3.47 2.71,-6.94 4.05,-10.41 l 1.26,0.24 c -0.091,0.689 -0.16,1.37 -0.241,2.06 -0.659,5.511 -1.259,11.011 -2.108,16.49 -1.061,6.93 -3.65,13.86 -3.341,20.69 0.381,8.47 3.02,16.84 4.77,25.239 0.671,3.23 1.5,6.42 2.291,9.631 0.1,0.409 0.2,0.819 0.3,1.229 -0.61,0.25 -1.21,0.51 -1.82,0.76 -0.85,-1.41 -1.689,-2.83 -2.55,-4.239 -0.84,-1.391 -1.7,-2.75 -2.53,-4.131 -0.06,0.21 -0.06,0.42 -0.06,0.62 v 0.011 c -1,1.109 -1.21,2.21 -1.71,3.31 -0.091,0.229 -0.46,0.39 -0.91,0.89 -0.64,-1.87 -1.261,-3.51 -1.939,-5.51 -0.86,0.42 -1.5,0.92 -1.94,1.47 -0.01,0.011 -0.02,0.011 -0.031,0.021 -0.019,0.02 -0.049,0.04 -0.059,0.05 -1.5,1.98 -0.41,4.63 -1.41,6.96 v 0.01 c 0,0.021 0.04,0.03 0.04,0.051 0,0.01 -0.01,0.02 -0.01,0.029 -0.161,0.57 -0.391,1.12 -0.761,1.641 -0.539,-3.101 -1.02,-6.21 -1.721,-9.271 -0.219,-1.02 -0.539,-1.92 -1.5,-2.86 -0.019,-0.02 -0.029,-0.029 -0.049,-0.05 v -0.01 c 0,-0.07 -0.04,-0.14 -0.08,-0.21 -0.46,1.05 -1.47,2.23 -1.28,3.15 1.29,6.22 2.78,12.399 4.4,18.54 0.24,0.93 1.579,1.56 2.41,2.329 0.58,-1.05 1.169,-2.039 1.5,-3.159 0.05,-0.15 0.05,-0.29 0.05,-0.44 v -0.62 c 0,-0.63 0.369,-1.2 0.719,-1.55 0.041,-0.04 0.121,-0.08 0.201,-0.12 0.04,-0.01 0.07,-0.03 0.1,-0.04 1.931,-1.31 3.921,-2.62 6.74,-4.53 5.156,-0.282 5.086,4.238 4.455,8.608 z m -75.52,-6.77 c 0.511,0.04 1.011,0.06 1.511,0.1 0.759,1.85 1.521,3.71 2.8,6.84 -2.541,-0.6 -5.359,-0.89 -5.39,-1.34 -0.1,-1.84 0.65,-3.73 1.079,-5.6 z m 6.821,-2.91 c -0.02,-0.641 1.18,-1.3 1.82,-1.95 0.49,0.64 1.42,1.32 1.37,1.92 -0.15,1.82 -0.68,3.6 -1.07,5.39 -0.39,-0.029 -0.79,-0.069 -1.18,-0.1 -0.35,-1.76 -0.9,-3.5 -0.94,-5.26 z m -38.34,8.92 c 0.32,-2.021 0.561,-3.55 0.971,-6.141 2.749,3.141 3.459,4.941 -0.971,6.141 z m -5.18,-8.66 v 5 c 0,0 0,0 -0.01,0 -0.04,0 -0.181,0.01 -0.351,0.02 -0.229,0.021 -0.52,0.04 -0.72,0.03 -0.06,-0.13 -0.13,-0.14 -0.201,-0.26 -0.02,-0.04 -0.049,-0.03 -0.068,-0.08 -0.46,-0.86 -0.91,-1.57 -1.48,-2.93 0,-0.011 -0.01,-0.011 -0.01,-0.021 -0.04,-0.069 -0.07,-0.14 -0.101,-0.22 -0.02,-0.03 -0.029,-0.04 -0.04,-0.07 -0.149,-0.35 -0.301,-0.72 -0.46,-1.149 -0.04,-0.101 -0.079,-0.21 -0.119,-0.32 z"
     clip-rule="evenodd"
     fill-rule="evenodd" /><path
     style="stroke-width:0.516923"
     id="path784"
     d="m 1458.1196,123.99571 c -0.01,0.81 -0.88,1.6 -1.359,2.4 -0.5,-0.771 -1.41,-1.54 -1.44,-2.33 -0.149,-5.94 -0.229,-11.891 -0.109,-17.83 0.06,-3.23 0.539,-6.45 0.84,-9.67 0.229,-0.021 0.46,-0.03 0.699,-0.051 0.449,3.75 1.141,7.48 1.311,11.23 0.238,5.411 0.158,10.841 0.058,16.251 z"
     fill="#cc0552"
     clip-rule="evenodd"
     fill-rule="evenodd" /><path
     style="stroke-width:0.516923"
     id="path786"
     d="m 1453.9486,88.36571 c -0.5,11.38 -0.979,22.75 -1.509,34.13 -0.06,1.16 -0.36,2.31 -0.54,3.46 -0.46,-0.02 -0.92,-0.04 -1.38,-0.06 -1.071,-15.591 -2.15,-31.17 -3.23,-46.82 4.19,1.46 6.84,5.23 6.659,9.29 z"
     fill="#730127"
     clip-rule="evenodd"
     fill-rule="evenodd" /><path
     style="stroke-width:0.516923"
     id="path788"
     d="m 1448.0296,125.20571 c -3.069,1.35 -4.46,1.09 -5.09,-2.18 -2.661,-13.73 -5.63,-27.41 -8.31,-41.15 -0.182,-0.93 0.89,-2.77 1.79,-3.12 2.028,-0.779 4.31,-0.88 7.778,-1.49 1.322,16.51 2.581,32.26 3.832,47.94 z"
     fill="#cc0552"
     clip-rule="evenodd"
     fill-rule="evenodd" /><path
     style="stroke-width:0.516923"
     id="path790"
     d="m 1440.0396,126.98571 c -1.591,0.89 -3.25,0.76 -3.989,-1.54 -2.48,-7.75 -5.08,-15.46 -7.561,-23.21 -1.211,-3.76 -2.149,-7.61 -3.38,-11.37 -1.95,-5.99 -1.07,-7.51 6.05,-9.22 1.619,7.159 3.21,14.34 4.87,21.5 1.601,6.93 3.33,13.819 4.851,20.76 0.209,0.97 -0.171,2.71 -0.841,3.08 z"
     fill="#730127"
     clip-rule="evenodd"
     fill-rule="evenodd" /><path
     style="stroke-width:0.516923"
     id="path792"
     d="m 1433.6896,129.07571 c -1.479,0.8 -3.33,1.99 -5.34,2.79 -0.63,0.25 -2.19,-0.33 -2.46,-0.93 -4.55,-9.881 -10.95,-19.29 -9.08,-30.98 0.54,-3.41 1.92,-6.68 2.91,-10.02 0.569,0.04 1.14,0.079 1.72,0.119 4.04,12.881 8.08,25.751 12.25,39.021 z"
     fill="#cc0552"
     clip-rule="evenodd"
     fill-rule="evenodd" /></g></svg>
