<?xml version="1.0" encoding="UTF-8" standalone="no"?>
<svg
   xmlns:dc="http://purl.org/dc/elements/1.1/"
   xmlns:cc="http://creativecommons.org/ns#"
   xmlns:rdf="http://www.w3.org/1999/02/22-rdf-syntax-ns#"
   xmlns:svg="http://www.w3.org/2000/svg"
   xmlns="http://www.w3.org/2000/svg"
   xmlns:sodipodi="http://sodipodi.sourceforge.net/DTD/sodipodi-0.dtd"
   xmlns:inkscape="http://www.inkscape.org/namespaces/inkscape"
   version="1.0"
   x="0px"
   y="0px"
   width="65"
   height="65"
   viewBox="0 0 65 65"
   enable-background="new 0 0 1686 1462"
   xml:space="preserve"
   id="svg914"
   sodipodi:docname="logo.svg"
   inkscape:version="1.0 (4035a4fb49, 2020-05-01)"
   inkscape:export-filename="C:\Users\me\OneDrive\Projects\MachineLearningList\website\assets\img\logo.png"
   inkscape:export-xdpi="492.54459"
   inkscape:export-ydpi="492.54459"><metadata
   id="metadata920"><rdf:RDF><cc:Work
       rdf:about=""><dc:format>image/svg+xml</dc:format><dc:type
         rdf:resource="http://purl.org/dc/dcmitype/StillImage" /><dc:title></dc:title></cc:Work></rdf:RDF></metadata><defs
   id="defs918">
	
	

	
		
		
		
		
		
		
		
		
		
		
		
		
		
		
		
		
		
		
		
		
		
		
		
		
		
		
		
		
		
		
		
		
		
		
		
		
		
		
		
		
		
		
		
		
		
		
		
		
		
		
		
		
		
		
		
		
		
		
		
		
		
		
		
		
		
		
		
		
		
		
		
		
		
		
		
		
		
		
		
		
		
		
		
		
		
		
		
		
		
		
		
		
		
		
		
		
		
		
		
		
		
		
		
		
		
		
		
		
		
		
		
		
		
		
		
		
		
		
		
		
		
		
		
		
		
		
		
		
		
		
		
		
		
		
		
		
		
		
		
		
		
		
		
		
		
		
		
		
		
		
		
		
		
		
		
		
		
		
		
		
		
		
		
		
		
		
		
		
		
		
		
		
		
		
		
		
		
		
		
		
		
		
		
		
		
		
		
		
		
		
		
		
		
		
		
		
		
		
		
		
		
		
		
		
		
		
		
		
		
		
		
		
		
		
		
		
		
		
		
		
		
		
		
		
		
		
		
		
		
		
		
		
		
		
		
		
		
		
		
		
		
		
		
		
		
		
		
		
		
		
		
		
		
		
		
		
		
		
		
		
		
		
		
		
		
		
		
		
		
		
		
		
		
		
		
		
		
		
		
		
		
		
		
		
		
		
		
		
		
		
		
		
		
		
		
		
		
		
		
		
		
		
		
		
		
		
		
		
		
		
		
		
		
		
		
		
		
		
		
		
		
		
		
		
		
		
		
		
		
		
		
		
		
		
		
		
		
		
		
		
		
		
		
		
		
		
		
		
		
		
		
		
		
		
		
		
		
		
		
		
		
		
		
		
		
		
		
		
		
		
		
		
		
		
		
		
		
		
		
		
		
		
		
		
		
		
		
		
		
		
		
		
		
		
		
		
		
		
		
		
		
		
		
		
		
		
		
		
		
		
		
		
		
		
		
		
		
		
		
		
		
		
		
		
		
		
		
		
		
		
		
		
		
		
		
		
		
		
		
		
		
		
		
		
		
		
		
		
		
		
		
		
		
		
	</defs><sodipodi:namedview
   inkscape:document-rotation="0"
   pagecolor="#ffffff"
   bordercolor="#666666"
   borderopacity="1"
   objecttolerance="10"
   gridtolerance="10"
   guidetolerance="10"
   inkscape:pageopacity="0"
   inkscape:pageshadow="2"
   inkscape:window-width="1920"
   inkscape:window-height="986"
   id="namedview916"
   showgrid="false"
   fit-margin-top="0"
   fit-margin-left="0"
   fit-margin-right="0"
   fit-margin-bottom="0"
   inkscape:zoom="8.75513"
   inkscape:cx="50.874036"
   inkscape:cy="37.05972"
   inkscape:window-x="-11"
   inkscape:window-y="-11"
   inkscape:window-maximized="1"
   inkscape:current-layer="svg914" />
<g
   id="Layer_2"
   transform="translate(-525.77145,-467.24036)">
</g>

<g
   transform="translate(-13.256406,1.7132812)"
   id="g842"><path
     sodipodi:nodetypes="ccccccccccccccccccccccccccccsccccccc"
     id="path112"
     d="m 70.57289,41.963454 c -0.67405,-4.63323 0.8078,4.614373 0,0 -1.11757,-6.382161 -2.37741,-12.763553 -3.72116,-19.114212 -0.36111,-1.733624 -0.73127,-3.462981 -1.11298,-5.195734 -0.31263,-1.448011 -1.71525,-2.668239 -2.6217,-3.989833 -0.38723,0.149489 -0.76361,0.293858 -1.14951,0.443824 -0.83911,6.931412 -1.6757,13.870487 -2.52475,20.806593 -0.57693,-0.02529 -1.17578,-0.05018 -1.7708,-0.06694 -0.30715,-3.210817 -0.98552,-6.444448 -0.82145,-9.624344 0.26182,-4.65564 1.38103,-9.265701 1.54957,-13.910504 0.0224,-0.526891 -0.2671,-1.072553 -0.70219,-1.6269169 -0.64208,-0.8525529 -1.60113,-1.7324937 -2.22767,-2.5802172 -0.49354,0.4749475 -1.13311,0.9192642 -1.69282,1.3922495 -0.58167,0.4944016 -1.07146,1.0007482 -1.19674,1.5883566 -1.14399,5.457633 -1.99342,10.984191 -2.76903,16.510202 -0.18949,1.39849 0.36144,2.911006 0.56794,4.363744 -1.0511,-0.317964 -2.10444,-0.63598 -3.15645,-0.953517 -2.91243,-7.097834 2.2788,-14.089738 0.84022,-21.4759018 -0.48232,0.062766 -0.9409,0.1242854 -1.38806,0.2146957 -1.79714,0.3413174 -3.27638,0.9627858 -4.26622,2.1107851 -0.70788,0.829247 -1.17439,1.94047 -1.31036,3.424285 -0.53462,5.687647 -0.94255,11.390721 -1.43905,17.093556 -0.15122,1.798386 -0.37903,3.600834 -0.5831,5.402035 -0.71786,-0.02404 -1.44946,-0.05377 -2.18154,-0.08216 -0.27501,-3.325491 -0.75101,-6.664532 -0.76991,-10.000263 -0.0286,-3.518017 0.35175,-7.019961 0.56928,-10.522501 -0.22689,-0.113002 -0.76917,-0.08829 -1.16946,-0.130558 -0.1937,-0.0192 -0.29498,-0.06983 -0.36387,-0.147899 -0.0361,-0.02722 -0.44862,0.134215 -0.46526,0.09894 l -0.004,-0.009 c -1.43557,1.64462 -1.70995,2.687328 -2.51586,4.0471 -0.13128,0.204556 -0.28879,0.421483 -0.43527,0.645373 0.004,0.009 0.17404,-0.05998 0.17831,-0.05094 -0.56655,0.849929 -0.98463,1.662997 -1.47657,2.556236 -4.34485,7.869711 -5.10578,16.544372 -5.11138,25.404525 z"
     fill="#fb6ad0"
     clip-rule="evenodd"
     fill-rule="evenodd"
     style="fill:#e53e3e;fill-opacity:1" /><path
     id="path236"
     d="m 6.99356,26.324111 c -0.15739,-0.0032 -0.34915,0.0099 -0.37901,-0.05341 0,0 0,0 -0.004,-0.009 -0.0256,-0.05427 -0.0783,-0.09573 -0.15342,-0.137712 -0.0532,-0.01911 -0.0341,-0.07235 -0.10068,-0.09624 C 6.28565,25.994809 6.2143,25.984239 6.1378,25.965039 4.41545,25.384331 2.03714,25.710104 0,24.459691 c 0.009,-0.0043 0.009,-0.0043 0.0181,-0.0085 l 0.0552,-0.02602 c 2.26,1.090004 5.32876,0.891873 6.92056,1.89903 z"
     fill="none"
     clip-rule="evenodd"
     fill-rule="evenodd" /><path
     id="path238"
     d="m 6.89628,22.367479 c -1.46705,0.968429 -3.77472,1.139254 -6.36293,1.840452 l 0.17184,-0.08106 c 1.78173,-0.840444 3.64725,-0.846934 5.06157,-1.270827 0.0167,0.01425 0.004,-0.01288 0.004,-0.01288 l 0.01,-0.0047 c 0.18993,-0.08959 0.38412,-0.170137 0.56928,-0.246417 0.19846,-0.0715 0.37457,-0.143515 0.54641,-0.224573 z"
     fill="none"
     clip-rule="evenodd"
     fill-rule="evenodd" /><path
     id="path240"
     d="M 11.87948,7.5228406 C 11.65576,7.329839 11.44058,7.154926 11.24297,6.9938354 l 0.0543,-0.025597 c 0.18379,0.1786674 0.38515,0.3711571 0.58225,0.5546025 z"
     fill="none"
     clip-rule="evenodd"
     fill-rule="evenodd" /><path
     id="path242"
     d="m 22.03247,0.35647 0.0384,0.0814 C 20.8934,0.285656 19.61269,0.148972 18.38147,0 c 1.21416,0.112794 2.4778,0.213302 3.651,0.356472 z"
     fill="none"
     clip-rule="evenodd"
     fill-rule="evenodd" /><path
     sodipodi:nodetypes="ccccccccccccccccccccccccccccccccccccccccc"
     id="path748"
     d="M 77.94736,35.565944 C 77.54653,28.103787 75.57639,21.348713 72.44516,14.898077 69.16034,8.1218465 64.32793,2.119848 56.41023,0.945476 41.68522,-1.25259 26.66537,7.0817068 19.78905,20.442144 15.07335,29.621201 13.63283,39.43352 13.48781,49.674075 18.26813,71.143459 79.06153,57.532839 77.94736,35.565944 Z M 21.10213,49.532067 c 0.0679,-9.374946 1.02093,-18.603479 5.73487,-26.963512 1.57609,-2.799989 3.57607,-5.357659 5.39073,-8.026932 0.41587,0.201875 0.84078,0.399483 1.2657,0.597092 -0.26769,3.719689 -0.73411,7.444668 -0.73444,11.170927 -0.0143,2.383945 0.22629,4.769254 0.4536,7.149786 0.0102,0.138907 0.0238,0.287285 0.035,0.425765 0.004,0.009 -5.1e-4,0.02236 0.004,0.0314 0.0935,0.995216 0.18277,1.981388 0.26298,2.971825 0.78668,0.02696 1.56096,0.04872 2.33343,0.07132 0.22803,-1.909802 0.48992,-3.813461 0.66329,-5.719593 0.0594,-0.602983 0.11667,-1.227041 0.17184,-1.839069 0.0116,-0.11604 0.0175,-0.218343 0.03,-0.33481 1.2e-4,-0.04428 0.006,-0.08038 0.007,-0.125085 0.48752,-5.271814 0.91703,-10.549429 1.45443,-15.811601 0.43799,-4.3196864 3.43478,-5.6337663 7.49728,-6.1347994 1.10922,5.8675394 -1.77055,11.5269864 -1.97902,17.1536604 -0.0696,1.868249 0.15616,3.729841 0.92232,5.590835 1.12866,0.330029 2.25396,0.650587 3.37268,0.985308 -0.20542,-1.539495 -0.7817,-3.136242 -0.57425,-4.616183 0.20671,-1.36902 0.4116,-2.737186 0.6183,-4.106206 0.70647,-4.479499 1.48904,-8.961727 2.46184,-13.3899468 0.27496,-1.2243111 2.03496,-2.1319049 3.11021,-3.1808781 1.09351,1.4743908 3.1753,3.0022767 3.11023,4.4371662 -0.16671,3.9595337 -0.99928,7.8904007 -1.4747,11.8518127 -0.12047,0.963476 -0.20955,1.923197 -0.27536,2.883004 -0.20238,3.368241 0.50223,6.784089 0.8002,10.181679 0.63834,0.01954 1.27849,0.03822 1.90778,0.06202 0.52154,-3.98317 1.02796,-7.970264 1.53955,-11.948741 l 1.30491,-10.102163 c 0.41075,-0.160581 0.8215,-0.321161 1.23651,-0.472697 0.95665,1.395211 2.45289,2.668577 2.77576,4.196895 1.39882,6.504907 2.71197,13.039165 3.91284,19.593219 0.3748,2.034543 0.73965,4.07378 1.08551,6.121975 -25.89188,4.290713 -33.99418,7.539202 -48.42502,7.296527 z"
     clip-rule="evenodd"
     fill-rule="evenodd"
     style="fill:#2d3748;fill-opacity:1" /></g></svg>
