<?xml version="1.0" encoding="UTF-8" standalone="no"?>
<svg
   xmlns:dc="http://purl.org/dc/elements/1.1/"
   xmlns:cc="http://creativecommons.org/ns#"
   xmlns:rdf="http://www.w3.org/1999/02/22-rdf-syntax-ns#"
   xmlns:svg="http://www.w3.org/2000/svg"
   xmlns="http://www.w3.org/2000/svg"
   xmlns:sodipodi="http://sodipodi.sourceforge.net/DTD/sodipodi-0.dtd"
   xmlns:inkscape="http://www.inkscape.org/namespaces/inkscape"
   version="1.0"
   x="0px"
   y="0px"
   width="1700"
   height="300"
   viewBox="0 0 1700 300"
   enable-background="new 0 0 1686 1462"
   xml:space="preserve"
   id="svg914"
   sodipodi:docname="tiger.svg"
   inkscape:version="1.0 (4035a4fb49, 2020-05-01)"
   inkscape:export-filename="C:\Users\me\OneDrive\Projects\MachineLearningList\website\assets\img\ANIMALS.png"
   inkscape:export-xdpi="87.051102"
   inkscape:export-ydpi="87.051102"><metadata
   id="metadata920"><rdf:RDF><cc:Work
       rdf:about=""><dc:format>image/svg+xml</dc:format><dc:type
         rdf:resource="http://purl.org/dc/dcmitype/StillImage" /><dc:title></dc:title></cc:Work></rdf:RDF></metadata><defs
   id="defs918">
	
	

	
		
		
		
		
		
		
		
		
		
		
		
		
		
		
		
		
		
		
		
		
		
		
		
		
		
		
		
		
		
		
		
		
		
		
		
		
		
		
		
		
		
		
		
		
		
		
		
		
		
		
		
		
		
		
		
		
		
		
		
		
		
		
		
		
		
		
		
		
		
		
		
		
		
		
		
		
		
		
		
		
		
		
		
		
		
		
		
		
		
		
		
		
		
		
		
		
		
		
		
		
		
		
		
		
		
		
		
		
		
		
		
		
		
		
		
		
		
		
		
		
		
		
		
		
		
		
		
		
		
		
		
		
		
		
		
		
		
		
		
		
		
		
		
		
		
		
		
		
		
		
		
		
		
		
		
		
		
		
		
		
		
		
		
		
		
		
		
		
		
		
		
		
		
		
		
		
		
		
		
		
		
		
		
		
		
		
		
		
		
		
		
		
		
		
		
		
		
		
		
		
		
		
		
		
		
		
		
		
		
		
		
		
		
		
		
		
		
		
		
		
		
		
		
		
		
		
		
		
		
		
		
		
		
		
		
		
		
		
		
		
		
		
		
		
		
		
		
		
		
		
		
		
		
		
		
		
		
		
		
		
		
		
		
		
		
		
		
		
		
		
		
		
		
		
		
		
		
		
		
		
		
		
		
		
		
		
		
		
		
		
		
		
		
		
		
		
		
		
		
		
		
		
		
		
		
		
		
		
		
		
		
		
		
		
		
		
		
		
		
		
		
		
		
		
		
		
		
		
		
		
		
		
		
		
		
		
		
		
		
		
		
		
		
		
		
		
		
		
		
		
		
		
		
		
		
		
		
		
		
		
		
		
		
		
		
		
		
		
		
		
		
		
		
		
		
		
		
		
		
		
		
		
		
		
		
		
		
		
		
		
		
		
		
		
		
		
		
		
		
		
		
		
		
		
		
		
		
		
		
		
		
		
		
		
		
		
		
		
		
		
		
		
		
		
		
		
		
		
		
		
		
		
		
		
		
		
		
		
		
		
		
		
		
		
		
		
		
		
		
		
		
		
		
		
	</defs><sodipodi:namedview
   inkscape:document-rotation="0"
   pagecolor="#ffffff"
   bordercolor="#666666"
   borderopacity="1"
   objecttolerance="10"
   gridtolerance="10"
   guidetolerance="10"
   inkscape:pageopacity="0"
   inkscape:pageshadow="2"
   inkscape:window-width="1920"
   inkscape:window-height="986"
   id="namedview916"
   showgrid="false"
   fit-margin-top="0"
   fit-margin-left="0"
   fit-margin-right="0"
   fit-margin-bottom="0"
   inkscape:zoom="0.54719562"
   inkscape:cx="723.29596"
   inkscape:cy="-52.932848"
   inkscape:window-x="-11"
   inkscape:window-y="-11"
   inkscape:window-maximized="1"
   inkscape:current-layer="svg914" />
<g
   id="Layer_2"
   transform="translate(-161.27041,-482.00429)">
</g>

<g
   style="stroke-width:0.486524"
   id="g3117"
   transform="matrix(2.0554016,0,0,2.0554016,-1570.0439,-746.7002)"><path
     style="stroke-width:0.201167"
     id="path6"
     d="m 1004.1396,288.32571 c -2.672,-2.369 -5.04101,-4.787 -7.72401,-6.762 -2.907,-2.152 -5.823,-4.322 -8.799,-6.396 3.21,1.887 6.988,4.521 11.717,8.717 0,-10.049 -0.128,-10.434 -0.216,-19.534 -0.01,-1.283 -0.354,-2.823 -1.116,-3.8 -8.672,-11.036 -17.433,-21.982 -26.232,-32.919 -4.278,-5.271 -4.943,-16.217 2.173,-19.554 1.557,-0.73 2.594,-0.079 3.936,0.85 4.208,2.921 8.163,6.238 12.52,8.962 1.938,1.214 5.52,2.695 6.489,4.925 -0.392,-5.972 0.538,-7.828 -3.103,-12.299 -3.632,-4.471 -12.236,-12.397 -16.641,-16.119 -1.928,-1.639 -11.346,-11.114 -14.908,-14.579 4.512,-2.201 8.869,-3.475 13.899,-2.675 2.046,0.335 4.023,0.947 5.961,1.688 0.794,0.306 5.443,1.668 5.658,2.399 -5.031,-17.402 -8.584,-20.452 -13.616,-37.903 -0.254,0.128 -0.88,0.355 -1.429,0.701 -10.219,6.515 -20.957,10.729 -33.329,7.758 -2.615,-0.632 -3.368,0.632 -4.239,2.981 -2.505,6.781 -8.192,11.884 -15.632,11.292 -8.232,-0.651 -14.83,-8.074 -19.527,-14.272 -7.479,-9.861 1.986,-33.003 -0.245,-34.74 -4.815,-3.761 -5.481,-6.05 -11.257,-11.05 0,0 0.01,0 0.02,0 0.039,0 0.091,0.232 0.101,0.212 0.02,0 0.13,0.232 0.13,0.232 v -0.01 c 1,-2.872 1.602,-5.774 2.396,-8.824 6.04,4.847 11.001,8.894 16.042,12.832 2.33,1.816 2.555,3.386 0.43,5.656 -9.161,9.782 -9.691,23.848 -1.869,34.163 4.326,5.705 9.953,8.113 16.531,6.909 7.166,-1.323 12.344,-6.051 14.918,-13.02 0.91,-2.458 1.694,-3.78 4.434,-3.119 12.941,3.109 24.168,-1.303 34.857,-8.114 0.578,-0.365 1.234,-0.602 1.498,-0.73 5.266,18.25 10.482,36.354 15.739,54.564 -8.163,-3.504 -15.103,-12.22 -26.526,-6.337 2.692,2.142 4.914,3.81 7.019,5.616 7.723,6.594 15.406,13.227 23.091,19.86 0.401,0.346 0.91,0.8 0.979,1.263 1.058,7.492 2.06401,14.994 2.10401,22.979 -1.69401,-1.629 -3.27901,-3.375 -5.08001,-4.847 -4.679,-3.81 -9.407,-7.541 -14.194,-11.193 -2.466,-1.885 -4.962,-1.343 -6.949,0.819 -2.143,2.339 -0.02,3.78 1.341,5.458 9.202,11.44 18.364,22.89 27.43801,34.428 0.803,1.018 1.155,2.636 1.165,3.979 0.094,9.516 0.045,19.041 0.045,29.553 z"
     fill="#730127"
     clip-rule="evenodd"
     fill-rule="evenodd" /><path
     style="stroke-width:0.201167"
     id="path8"
     d="m 1025.5026,410.99571 c -2.579,-2.393 -4.999,-4.588 -7.316,-6.747 1.326,1.028 2.485,1.991 3.326,2.776 0,-4.309 0.627,-4.065 0.468,-8.178 -0.327,-8.438 -1.552,-18.408 -7.915,-25.604 -3.224,-3.644 -4.858,-8.672 -7.979,-12.455 -5.952,-7.252 -12.47601,-14.027 -18.68001,-21.082 -0.851,-0.972 -1.374,-4.504 -1.01,-5.176 0.626,-1.169 3.579,-4.439 6.925,-4.523 5.971,-0.14 19.76401,12.587 22.27701,15.11 -0.439,-2.579 -1.869,-7.326 -2.338,-8.878 -2.447,-8.092 -1.335,-8.652 -7.166,-15.259 -5.457,-6.195 -11.66201,-10.345 -17.58601,-16.251 -5.262,-5.241 -11.503,-11.119 -12.783,-18.791 -0.626,-3.737 4.205,-8.166 5.447,-7.476 0.338,0.188 0.682,0.374 1.02,0.542 -1.449,0.561 -3.271,1.822 -4.748,2.458 0.822,1.336 1.383,2.962 2.504,3.952 10.121,8.915 19.251,18.586 25.52101,30.715 1.149,2.215 3.093,4.057 4.822,5.925 5.569,6.027 5.466,14.054 7.644,21.269 0.494,1.625 0.598,3.354 1.056,6.055 -2.626,-2.635 -4.327,-4.737 -6.411,-6.345 -4.941,-3.831 -10.025,-7.494 -15.17401,-11.036 -1.01,-0.691 -2.701,-1.018 -3.869,-0.71 -1.439,0.383 -3.148,1.327 -3.803,2.542 -0.384,0.71 0.813,2.616 1.699,3.635 6.495,7.373 13.31601,14.465 19.54001,22.043 3.261,3.963 4.972,9.224 8.345,13.036 6.663,7.522 5.813,16.512 6.158,25.343 0.167,4.298 0.026,8.606 0.026,13.11 z"
     fill="#730127"
     clip-rule="evenodd"
     fill-rule="evenodd" /><path
     style="stroke-width:0.201167"
     id="path10"
     d="m 831.63959,460.13771 c -0.749,1.055 -1.544,2.217 -2.474,3.519 -0.663,-1.627 -1.345,-2.81 -1.62,-4.081 -3.108,-14.231 -10.016,-26.809 -15.738,-39.917 -1.867,-4.277 -2.786,-9.393 -2.748,-14.105 0.132,-13.611 2.597,-26.867 6.273,-39.927 0.351,-1.252 0.739,-3.4 -0.134,-4.662 0.938,-0.276 1.971,-0.188 3.015,0.247 0.767,0.314 0.965,3.705 0.491,5.4 -3.516,12.488 -6.074,25.163 -6.196,38.174 -0.038,4.504 0.844,9.393 2.625,13.482 5.467,12.527 12.072,24.553 15.047,38.164 0.255,1.162 0.853,2.247 1.459,3.706 z"
     fill="#730127"
     clip-rule="evenodd"
     fill-rule="evenodd" /><path
     style="stroke-width:0.201167"
     id="path12"
     d="m 803.90559,305.79871 c -1.469,5.678 -2.991,11.365 -4.919,16.81 -3.33,9.358 -5.146,19.195 -6.05,29.343 -0.256,2.805 -0.422,5.776 0.023,8.493 0.927,5.659 1.908,11.239 3.076,16.819 -0.03,0.078 0.693,0.155 -0.307,0.233 0,0.01 0,0.01 0,0.01 0,0.029 0.261,0.039 0.253,0.068 -0.527,1.471 -0.917,2.951 -1.458,4.44 -0.287,-0.604 -0.707,-1.275 -0.873,-2.084 -1.416,-6.865 -2.904,-13.713 -4.041,-20.656 -0.467,-2.844 -0.272,-5.951 -0.01,-8.882 0.95,-10.616 2.861,-20.9 6.342,-30.698 2.021,-5.687 3.621,-11.637 5.15,-17.578 0.105,-0.39 0.159,-0.896 0.175,-1.422 0.716,-0.117 1.462,0.107 2.171,0.535 0.61,0.362 0.821,3.196 0.468,4.569 z"
     fill="#730127"
     clip-rule="evenodd"
     fill-rule="evenodd" /><path
     style="stroke-width:0.201167"
     id="path14"
     d="m 804.44259,225.53671 c -0.091,1.589 -9.213,22.2 -12.813,31.004 -1.121,2.756 -5.034,12.099 -4.989,14.492 0.106,6.685 0.039,13.369 0.138,20.054 0.114,7.436 0.023,7.815 0.214,15.251 0.03,-0.009 0.068,-0.026 0.115,-0.053 -0.565,1.033 -1.138,2.057 -1.702,3.09 -0.281,0.513 -0.586,1.008 -1.678,1.432 -0.198,-7.78 -0.442,-15.552 -0.564,-23.331 -0.106,-6.994 -0.03,-13.988 -0.145,-20.981 -0.046,-2.5 0.244,-4.346 1.93,-6.465 1.754,-2.199 2.112,-5.811 3.287,-8.689 3.769,-9.21 7.635,-18.367 11.463,-27.551 0.688,-1.625 1.846,-3.215 1.938,-4.883 0.076,-1.554 -0.632,-3.63 -1.623,-4.663 -0.04,-0.044 -0.085,-0.08 -0.123,-0.115 0.145,-0.097 0.282,-0.168 0.412,-0.212 2.126,-0.664 4.208,10.127 4.14,11.62 z"
     fill="#730127"
     clip-rule="evenodd"
     fill-rule="evenodd" /><path
     style="stroke-width:0.201167"
     id="path16"
     d="m 951.02859,56.64971 c -20.703,6.231 -37.29,18.892 -53.188,34.439 8.733,-20.451 31.356,-35.479 53.188,-34.439 z"
     fill="#e8d360"
     clip-rule="evenodd"
     fill-rule="evenodd" /><path
     style="stroke-width:0.201167"
     id="path18"
     d="m 962.32559,76.23771 c -14.381,13.494 -31.865,22.048 -49.054,31.068 14.678,-13.019 31.606,-22.461 49.054,-31.068 z"
     fill="#e7795a"
     clip-rule="evenodd"
     fill-rule="evenodd" /><path
     style="stroke-width:0.201167"
     id="path20"
     d="m 971.97959,63.62571 c -0.78,1.23 -1.28,2.97 -2.4,3.61 -10.659,6.08 -21.5,11.82 -32.109,17.97 -4.53,2.63 -8.601,6.04 -12.931,9.01 -4.56,3.14 -9.13,6.27 -13.829,9.19 -0.99,0.62 -2.57,0.28 -3.87,0.39 0.51,-1.36 0.62,-3.26 1.6,-4 6.67,-4.98 13.23,-10.21 20.38,-14.43 12.93,-7.64 26.24,-14.63 39.41,-21.87 0.73,-0.4 1.59,-0.57 2.39,-0.84 0.459,0.32 0.909,0.65 1.359,0.97 z"
     fill="#e8d360"
     clip-rule="evenodd"
     fill-rule="evenodd" /><path
     style="stroke-width:0.201167"
     id="path22"
     d="m 964.21759,63.26371 c -0.027,0.484 -0.053,0.968 -0.08,1.453 -5.389,2.887 -10.787,5.766 -16.167,8.652 -14.184,7.604 -28.288,15.351 -40.545,25.922 -2.475,2.143 -3.919,0.968 -5.622,-0.601 -1.767,-1.641 -1.336,-3.147 0.197,-4.725 13.082,-13.44 28.037,-24.12 45.8,-30.423 3.64,-1.282 7.72,-1.488 11.62,-1.757 1.561,-0.108 3.202,0.95 4.797,1.479 z"
     fill="#e7795a"
     clip-rule="evenodd"
     fill-rule="evenodd" /><path
     style="stroke-width:0.201167"
     id="path24"
     d="m 796.81959,148.81571 c -5.93,-1.7 -8.16,-4.31 -5.5,-9.13 0.99,0.63 2.29,1.15 3.88,1.61 -0.18,-2.05 -0.359,-4.06 -0.54,-6.13 0.27,-0.32 0.57,-0.64 0.88,-0.97 0.47,5.35 0.87,9.89 1.28,14.62 z"
     fill="#e7795a"
     clip-rule="evenodd"
     fill-rule="evenodd" /><path
     style="stroke-width:0.201167"
     id="path26"
     d="m 805.89959,149.62571 c -4.96,1.51 -5.471,1.19 -6.121,-3.95 -0.129,-1.03 -0.279,-2.07 -0.419,-3.1 0.771,0.42 2.03,0.14 4.23,-0.53 -0.661,-4.36 -1.312,-8.72 -1.98,-13.17 0.34,-0.12 0.72,-0.21 1.13,-0.28 1.09,7.23 2.12,14.11 3.16,21.03 z"
     fill="#e7795a"
     clip-rule="evenodd"
     fill-rule="evenodd" /><path
     style="stroke-width:0.201167"
     id="path28"
     d="m 808.99959,149.09571 c -0.34,-2.55 -0.71,-5.11 -1.06,-7.68 4.05,-0.45 4.4,-1.44 3.64,-5.2 -0.819,-4.08 -1.35,-8.22 -2.08,-12.32 0,-0.01 0,-0.02 -0.01,-0.03 0.37,-0.35 0.74,-0.72 1.101,-1.12 0.81,3.4 1.35,5.3 1.699,7.24 0.801,4.44 1.37,8.92 2.261,13.33 0.909,4.52 0.339,5.34 -5.551,5.78 z"
     fill="#e7795a"
     clip-rule="evenodd"
     fill-rule="evenodd" /><path
     style="stroke-width:0.201167"
     id="path56"
     d="m 1002.2296,395.49571 c 0.92,-0.54 3.22,0.35 5.97,1.891 3.03,1.689 6.601,4.159 9.45,6.369 0,0.01 0.01,0.01 0.021,0.02 1.42,1.101 2.659,2.131 3.56,2.971 0,-4.609 0.67,-4.35 0.5,-8.75 -0.35,-9.029 -1.66,-19.7 -8.47,-27.4 -3.45,-3.899 -5.2,-9.279 -8.54,-13.33 -6.37001,-7.76 -13.35101,-15.01 -19.99001,-22.56 -0.91,-1.04 -1.47,-4.819 -1.08,-5.54 0.67,-1.25 3.83,-4.75 7.41,-4.84 6.39,-0.15 21.15001,13.47 23.84001,16.17 -0.471,-2.76 -2,-7.84 -2.5,-9.5 -2.621,-8.66 -1.43,-9.26 -7.67,-16.33 -5.84001,-6.63 -12.48001,-11.07 -18.82001,-17.391 -5.631,-5.609 -12.31,-11.899 -13.68,-20.109 -0.67,-4 4.5,-8.74 5.83,-8 0.36,0.2 0.729,0.4 1.09,0.58 3.12,1.6 6.35,2.779 10.521,5.189 0.029,0.021 0.06,0.041 0.09,0.061 3.279,1.91 7.14,4.58 11.97001,8.83 0,-10.18 -0.13,-10.57 -0.22,-19.79 -0.011,-1.3 -0.36,-2.86 -1.141,-3.851 -8.85901,-11.18 -17.81001,-22.27 -26.80001,-33.35 -4.37,-5.34 -5.05,-16.43 2.22,-19.81 1.591,-0.74 2.65,-0.08 4.021,0.86 4.3,2.96 8.34,6.32 12.79,9.08 1.979,1.23 5.64,2.73 6.63,4.99 -0.4,-6.05 0.549,-7.93 -3.17,-12.46 -3.71,-4.53 -12.5,-12.56 -17,-16.33 -1.97,-1.66 -11.59,-11.26 -15.23,-14.77 4.61,-2.23 9.061,-3.52 14.2,-2.71 2.09,0.34 4.11,0.96 6.09,1.71 0.81,0.31 5.561,1.69 5.78,2.43 -5.14,-17.63 -8.77,-20.72 -13.91,-38.4 -0.26,0.13 -0.899,0.36 -1.46,0.71 -10.439,6.6 -21.41,10.87 -34.05,7.86 -2.67,-0.64 -3.44,0.64 -4.33,3.02 -2.56,6.87 -8.371,12.04 -15.97,11.44 -8.41,-0.66 -15.15,-8.18 -19.95,-14.46 -7.64,-9.99 2.03,-33.24 -0.25,-35 -4.92,-3.81 -5.6,-6.31 -11.5,-11 -1.1,4.22 -2.18,7.4 -3.16,10.44 -0.01,0.05 -0.03,0.09 -0.041,0.13 -1.099,3.41 -2.11,11.14 -2.84,15.43 -0.666,3.917 -1.209,24.774 -1.209,26.74 0,0.07 0,4.167 0,4.176 0,2.7 -0.387,1.374 -1.146,3.833 -2.35,7.6 -10.451,10.66 -17.632,11.02 -0.19,0.02 -0.351,0.02 -0.541,0.03 -0.22,0.01 -0.42,0.01 -0.641,0.01 -0.56,0 -1.09,-0.02 -1.62,-0.06 -0.279,-0.02 -0.545,-0.05 -0.805,-0.08 -0.271,-0.02 -0.537,-0.06 -0.797,-0.1 -0.141,-0.02 -0.279,-0.04 -0.42,-0.07 -0.149,-0.02 -0.289,-0.05 -0.43,-0.08 -0.289,-0.06 -0.568,-0.12 -0.849,-0.18 -0.45,-0.11 -0.9,-0.23 -1.34,-0.36 -0.41,-0.13 -0.82,-0.27 -1.221,-0.42 -0.319,-0.12 -0.63,-0.24 -0.939,-0.37 -0.23,-0.1 -0.46,-0.2 -0.69,-0.31 -0.46,-0.2 -0.92,-0.43 -1.359,-0.68 -4.03,-2.14 -7.48,-5.48 -10.71,-9.26 -0.9,-1.05 -10.38,-13.22 -10.15,-14.06 -0.011,-0.01 0,-0.02 0.01,-0.03 -4.18,3.36 -8.46,6.73 -12.85,9.2 -0.39,0.22 -0.78,0.44 -1.18,0.65 -0.011,0.01 -0.021,0.01 -0.03,0.01 -0.4,0.21 -0.8,0.41 -1.2,0.6 -0.34,0.16 -0.67,0.31 -1,0.46 -0.34,0.15 -0.68,0.29 -1.01,0.42 -0.271,0.11 -0.54,0.22 -0.811,0.31 -0.279,0.1 -0.56,0.2 -0.84,0.29 -0.74,0.24 -1.479,0.45 -2.229,0.62 -0.181,0.04 -0.371,0.08 -0.551,0.11 -0.22,0.04 -0.439,0.08 -0.649,0.12 -0.311,0.05 -0.63,0.1 -0.95,0.13 -0.14,0.02 -0.29,0.04 -0.439,0.05 -0.32,0.03 -0.641,0.06 -0.971,0.07 -0.279,0.02 -0.569,0.38 -0.859,0.38 -0.341,0 -0.681,0.33 -1.051,0.33 -0.34,0 -0.689,-0.41 -1.04,-0.45 -0.239,-0.03 -0.479,-0.235 -0.71,-0.275 -2.64,-0.39 -5.33,-1.492 -8.04,-3.242 -0.17,-0.11 -0.489,-0.271 -0.67,-0.381 -0.05,0.15 -0.091,0.274 -0.14,0.424 -0.12,0.41 -0.23,0.802 -0.34,1.182 -0.08,0.29 -0.16,0.566 -0.23,0.836 -0.069,0.25 -0.14,0.498 -0.199,0.738 -0.011,0.02 -0.021,0.039 -0.021,0.059 -0.09,0.34 -0.18,0.669 -0.26,0.979 -0.48,1.8 -0.82,3.29 -1.07,4.6 -0.05,0.239 -0.09,0.469 -0.13,0.699 0,0.04 -0.01,0.07 -0.02,0.1 -0.031,0.2 -0.061,0.39 -0.091,0.58 -0.02,0.12 -0.04,0.25 -0.06,0.36 -0.021,0.16 -0.04,0.31 -0.061,0.46 -0.02,0.16 -0.039,0.31 -0.06,0.46 -0.13,0.88 -0.53,1.73 -0.58,2.62 -0.01,0.17 -0.38,0.34 -0.38,0.52 v 0.04 c 0,0.13 0.34,0.27 0.34,0.41 -0.02,0.24 0.155,0.47 0.146,0.71 -0.011,0.28 0.063,0.57 0.052,0.87 0,0.12 0.052,0.25 0.042,0.37 -0.021,0.55 -0.015,1.14 -0.024,1.76 -0.011,0.21 -0.003,0.42 -0.003,0.64 0,0.29 -0.006,0.59 -0.016,0.9 -0.01,0.3 -0.019,0.62 -0.028,0.95 -0.009,0.33 -0.019,0.67 -0.028,1.02 0,0.3 -0.21,0.59 -0.229,0.96 -0.02,0.56 -0.25,1.21 -0.25,1.85 0,0.02 0.04,0.03 0.03,0.05 -0.04,0.42 -0.03,0.84 -0.03,1.21 v 0.07 c 0,0.12 0.09,0.48 0.02,0.59 -0.02,0.03 0.221,-0.67 0.221,0.33 h -0.24 v -0.29 c 0,-0.04 0.25,-0.07 0.3,-0.12 1.07,-0.86 4.634,-3.48 8.186,-5.78 0.01,-0.01 0.072,-0.01 0.081,-0.02 0.062,-0.04 0.143,-0.07 0.198,-0.12 0.29,-0.19 0.577,-0.09 0.867,-0.28 0.37,-0.23 0.729,-0.39 1.099,-0.39 0.029,-1 0.05,-0.28 0.079,-0.3 0.739,-0.48 1.46,-1.035 2.141,-1.405 0.43,-0.23 0.84,-0.502 1.229,-0.683 0.25,-0.12 0.48,-0.251 0.7,-0.331 0.47,-0.19 0.88,-0.335 1.24,-0.406 0.52,-0.09 0.92,-0.048 1.13,0.162 0.25,0.25 0.46,0.667 0.65,1.226 0.02,0.09 0.05,0.168 0.08,0.258 0.109,0.34 0.189,0.729 0.26,1.139 0.04,0.2 0.069,0.399 0.109,0.629 0.011,0.03 0.011,0.06 0.011,0.09 0.06,0.4 0.109,0.83 0.149,1.27 0.021,0.18 0.039,0.36 0.05,0.55 0.021,0.15 0.03,0.29 0.03,0.44 0.021,0.23 0.03,0.46 0.04,0.7 0.01,0.14 0.021,0.27 0.021,0.41 0.02,0.31 0.029,0.62 0.029,0.93 0.061,2.15 -0.02,4.4 -0.21,6.25 -0.04,0.42 -0.08,0.82 -0.13,1.19 -0.06,0.4 -0.12,0.78 -0.189,1.11 -0.021,0.09 -0.04,0.18 -0.061,0.27 -0.08,0.4 -0.18,0.73 -0.28,0.98 -0.029,0.1 -0.069,0.18 -0.119,0.25 -0.04,0.08 -0.08,0.14 -0.131,0.19 -0.329,0.34 -1.119,0.99 -2.17,1.85 -0.699,0.56 -1.51,1.23 -2.39,1.97 -0.78,0.67 -1.62,1.38 -2.47,2.13 -0.351,0.3 -0.7,0.62 -1.061,0.95 -0.63,0.58 -1.25,1.16 -1.859,1.75 -0.08,0.08 -0.16,0.15 -0.23,0.23 -0.27,0.28 -0.54,0.55 -0.81,0.83 -0.21,0.22 -0.42,0.43 -0.62,0.65 -0.62,0.66 -1.181,1.31 -1.69,1.95 -0.27,0.34 -0.529,0.68 -0.76,1.02 -3.48,4.99 -4.09,11.97 -2.78,17.87 0.05,0.25 0.11,0.49 0.17,0.73 3.261,-2.26 6.2,-4.72 8.83,-7.71 1.37,-1.56 4.03,-6.57 6.19,-7.81 0.189,-0.11 0.37,-0.19 0.54,-0.24 2.79,-0.75 5.52,11.47 5.43,13.16 -0.12,1.8 -12.08,25.141 -16.8,35.109 -1.47,3.121 -6.6,13.701 -6.54,16.41 0.14,7.57 0.05,15.141 0.18,22.711 0.15,8.42 0.03,8.85 0.28,17.27 0.04,-0.01 0.09,-0.029 0.15,-0.061 1.819,-0.789 10.989,-6.869 14.92,-13.359 0.89,-1.48 2.02,-2.16 3.21,-2.311 0.95,-0.119 1.939,0.11 2.88,0.551 0.81,0.369 1.09,3.279 0.62,4.689 -1.95,5.83 -3.971,11.67 -6.53,17.26 -4.42,9.61 -6.83,19.711 -8.03,30.131 -0.34,2.879 -0.56,5.93 0.03,8.72 1.23,5.81 2.82,11.54 4.37,17.271 0.27,1 0.54,2.01 0.81,3.01 0.21,0.789 7.801,-11.74 10.891,-18.57 0.779,-1.71 1.93,-2.74 3.239,-3.109 0.989,-0.281 2.08,-0.191 3.181,0.25 0.809,0.319 1.02,3.76 0.52,5.479 -3.711,12.67 -6.41,25.53 -6.54,38.729 -0.04,4.57 0.891,9.53 2.771,13.68 5.77,12.711 12.74,24.91 15.88,38.721 0.27,1.18 0.899,2.28 1.54,3.76 0.03,0.07 0.06,0.13 0.09,0.2 0.95,-1.28 1.76,-2.41 2.52,-3.45 0.04,-0.04 0.061,-0.08 0.091,-0.109 0.6,-0.811 1.18,-1.561 1.8,-2.28 2.99,-3.511 5.859,-7.2 9.28,-10.261 1.319,-1.189 4.009,-0.84 6.069,-1.199 -0.01,1.789 0.391,3.699 -0.12,5.34 -0.689,2.24 -1.979,4.311 -3.14,6.38 -3.69,6.62 -7.43,13.21 -11.48,20.38 1.04,1.851 2.49,4.42 4.171,7.43 9.96,-9.189 22.02,-9.85 34.35,-11.06 0.89,-0.09 1.77,-0.17 2.659,-0.27 -1.43,-2.61 -2.949,-4.801 -3.829,-7.23 -0.321,-0.89 -0.51,-1.94 -0.51,-2.97 0,-0.83 0.109,-1.641 0.359,-2.34 1.67,-4.61 5.62,-6.061 10.11,-5.86 4.3,0.181 6.02,3.53 7.5,7 0.96,2.26 1.46,5.52 3.2,6.53 5.729,3.3 11.46,6.79 17.81,8.71 0.15,0.05 0.29,0.09 0.44,0.14 1.87,0.54 3.81,0.95 5.81,1.18 2.07,0.23 4.18,0.351 6.23,0.721 9.029,1.649 17.81,2 26.54,-2.051 5.979,-2.789 10.55,-6.079 12.51,-12.89 1.829,-6.26 4.679,-12.25 7.399,-18.22 0.631,-1.381 2.771,-3.12 3.91,-2.92 0.88,0.14 3.23,1.609 5.11,3.109 1.27,1.021 2.31,2.041 2.46,2.65 0.299,1.16 0.75,2.35 1.25,3.55 1.32,3.16 3.01,6.4 3.5,9.45 5.45,0.56 5.58,0.13 11.25,0.75 6.05001,0.67 15.33001,2.43 19.75001,7.75 -0.23,-0.28 0.29,-3.41 0.29,-3.84 0.03,-2.71 -0.1,-5.42 -0.21,-8.12 -0.22,-5.66 0.59,-10.63 0.42,-16.29 -0.08,-2.62 -0.86,-5.93 -0.951,-8.54 -0.148,-4.2 -2.809,-6.95 -5.129,-10.181 -4.39,-6.119 -8.82,-12.219 -13.26,-18.299 -1.74301,-2.378 -0.56301,-6.058 1.837,-7.478 z m -132.37001,-197.34 c 0.01,-0.01 0.03,-0.01 0.05,-0.03 0.011,0 0.011,0 0.02,-0.01 0.771,-0.39 1.541,-0.77 2.32,-1.14 6.28,-3.07 12.761,-5.77 19.021,-8.89 5.1,-2.55 9.9,-5.73 14.99,-8.3 1.18,-0.6 3.58,-0.51 4.46,0.3 6.2,5.79 12.14,11.83 18.149,17.82 0.591,0.58 1.48,1.31 1.471,1.96 -0.03,1.62 -0.5,3.24 -0.78,4.85 -1.5,-0.38 -3.42,-0.3 -4.38,-1.23 -5.15,-4.93 -9.99,-10.15 -15.09,-15.14 -0.801,-0.78 -2.69,-1.51 -3.48,-1.09 -10.8,5.51 -21.5,11.22 -32.21,16.93 -0.84,0.45 -1.4,1.48 -2.26,1.8 -1.22,0.46 -2.75,0.97 -3.851,0.6 -0.86,-0.29 -1.279,-1.89 -2.29,-3.54 1.31,-1.73 2.21,-4.05 3.86,-4.89 z m 0.84,24.8 c 3.771,-1.9 7.7,-3.47 11.61,-5.08 0.85,-0.35 1.7,-0.7 2.54,-1.05 1.72,-0.73 3.46,-1.48 5.18,-2.22 0.061,-0.03 0.13,-0.06 0.19,-0.08 4.22,-1.8 8.45,-3.58 12.76,-5.13 1.43,-0.53 3.82,0.01 5.11,0.95 0.199,0.14 0.38,0.28 0.58,0.43 l 0.01,0.01 c 1.55,1.14 3.099,2.29 4.63,3.47 0.02,0 0.03,0.02 0.05,0.03 5.25,3.97 10.41,8.05 15.58,12.13 0.2,0.16 0.4,0.33 0.59,0.51 1.12,1.04 2.09,2.33 3.33,3.66 -1.18,1.65 -1.78,3.381 -2.75,3.61 -1.189,0.271 -2.96,-0.33 -4,-1.15 -5.93,-4.659 -11.57,-9.68 -17.62,-14.15 -1.62,-1.19 -4.64,-1.77 -6.49,-1.12 -13.3,4.67 -26.47,9.7 -37.89,18.361 -1.04,0.779 -2.939,0.42 -4.43,0.58 0,-2.33 -0.96,-5.74 0.2,-6.811 0.06,-0.051 0.109,-0.1 0.17,-0.15 3.08,-2.8 6.9,-4.89 10.65,-6.8 z m 85.02,0.92 c 0.01,-0.01 0.02,-0.01 0.029,-0.01 1.271,-0.23 3.41,1.15 4.25,2.4 1,1.52 1.7,3.24 2.49,5.22 0.4,0.98 0.82,2.039 1.311,3.16 -1.45,1.31 -2.67,3.17 -4.28,3.649 -1.2,0.341 -3.521,-0.7 -4.28,-1.829 -1.41,-2.15 -2.109,-4.791 -3.01,-7.261 -1.2,-3.279 1.02,-4.889 3.49,-5.329 z m 17.78,92.979 c -0.39,0.851 -0.909,1.631 -1.479,2.201 -1.43,1.459 -3.97,1.279 -4.771,-1.701 -0.471,-1.75 -0.93,-3.52 -1.64,-5.159 -2.21,-5.091 -2.02,-7.19 1.96,-8.511 0.97,-0.33 2.17,-0.609 3.62,-0.869 1.11,3.26 2.75,6.479 3.16,9.85 0.15,1.269 -0.2,2.83 -0.85,4.189 z m -6.27,-42.42 c 0,3.19 -1.41,4.74 -4.26,5.17 -3.46,0.521 -3.025,-2.239 -3.436,-4.35 -0.35,-1.91 -0.527,-3.39 -1.268,-5.15 -1.439,-3.399 0.453,-4.609 2.863,-5.609 h 0.01 c 0.02,-1 0.04,-0.45 0.07,-0.52 0.149,-0.61 0.31,-0.275 0.47,-0.336 0.87,-0.34 2.979,0.418 3.26,1.229 1.11,3.109 1.29,6.227 2.29,9.457 v 0.109 z m -17.97,-11.959 c -0.95,1.09 -1.61,2.49 -2.28,2.479 -1.64,0 -3.62,-0.19 -4.87,-1.11 -7.66,-5.619 -15.07,-11.58 -22.77,-17.119 -1.37,-0.99 -4.19,-1.48 -5.57,-0.75 -14.76,7.899 -29.37,16.069 -43.991,24.24 -1.049,0.59 -1.679,1.92 -2.699,2.609 -1.301,0.891 -3.55,2.41 -4.09,1.99 -1.37,-1.07 -2.479,-2.99 -2.77,-4.721 -0.08,-0.49 0.01,-1.119 0.229,-1.729 0.32,-0.92 0.91,-1.83 1.55,-2.24 7.271,-4.72 14.54,-9.46 22.11,-13.64 9.14,-5.03 18.63,-9.45 27.88,-14.301 3.36,-1.76 5.73,-1.51 8.91,1.041 7.92,6.359 16.42,12 24.55,18.109 0.63,0.48 1.15,1.12 1.65,1.83 0.701,1.002 1.341,2.172 2.161,3.312 z m -3.19,-75.09 c 0.65,-0.18 1.351,-0.31 2.07,-0.38 0.92,1.88 1.88,3.61 2.71,5.32 0.57,1.15 1.079,2.29 1.49,3.46 0.399,1.16 -0.08,3.43 -0.95,4.02 -1.29,0.88 -4.3,1.51 -4.811,0.86 -1.84,-2.37 -3.67,-5.19 -4.17,-8.08 -0.509,-2.95 1.231,-4.51 3.661,-5.2 z m -101.2,58.081 c 0.57,2.699 0.61,5.539 0.61,8.329 -0.02,2.75 -1.35,4.47 -4.39,4.421 -3.04,-0.051 -3.61,-2.141 -3.812,-4.511 -0.049,-0.55 -0.049,-1.11 -0.039,-1.66 0,-0.56 0.021,-1.13 0.021,-1.69 -0.37,-0.219 -0.74,-0.439 -1.12,-0.659 1.289,-2.12 2.2,-4.63 3.939,-6.28 1.23,-1.15 2.32,-1.25 3.17,-0.72 0.801,0.488 1.371,1.539 1.621,2.77 z m -1.68,-42.711 c 0,3.16 -0.17,6.46 -1.21,9.39 -0.51,1.4 -3.03,2.6 -4.78,2.82 -0.88,0.12 -2.069,-2.15 -3.12,-3.34 0.16,-1.74 0.391,-3.26 0.69,-4.58 0.87,-3.73 2.41,-5.79 5.03,-6.23 0.199,-0.04 0.46,-0.01 0.739,0.06 1.141,0.29 2.651,1.32 2.651,1.88 z m -2.27,99.17 c -0.28,-0.64 -0.491,-1.32 -0.66,-2.029 -0.481,-1.91 -0.681,-4.11 -1.21,-6.84 1.06,-0.871 2.34,-2.621 3.939,-2.99 0.74,-0.17 1.99,0.359 2.88,1.08 0.46,0.359 0.82,0.76 0.99,1.149 1.08,2.5 1.49,5.33 1.94,8.05 0.449,2.791 -1.371,4.49 -3.761,4.45 -1.428,-0.021 -3.508,-1.51 -4.118,-2.87 z m 4.69,39.64 c -0.189,-0.23 -0.35,-0.471 -0.5,-0.721 -0.79,-1.39 -1.64,-3.47 -1.14,-4.699 0.649,-1.57 2.5,-2.86 4.12,-3.66 0.229,-0.11 0.79,0.24 1.37,0.75 0.609,0.55 1.239,1.27 1.569,1.85 0.72,1.27 0.811,2.881 1.46,5.5 -1.09,1.12 -2.47,2.54 -3.84,3.95 -1,-1 -2.18,-1.88 -3.03,-2.96 10e-4,0 10e-4,0 -0.009,-0.01 z m 9.7,46.821 c -0.91,1.479 -1.98,2.67 -3.04,2.09 -0.11,-0.061 -0.23,0.02 -0.341,0.02 -0.009,0 -0.009,0 -0.009,0 -0.73,0 -1.45,-0.76 -2.091,-1.55 -3.58,-4.44 -2.06,-11.775 3.181,-15.396 0.01,-0.02 0.02,-0.082 0.029,-0.092 0.381,-0.271 0.771,-0.592 1.19,-0.812 1.891,5.41 4.481,10.299 1.081,15.74 z m 4.84,-75.911 c -0.59,-1.16 -0.92,-2.5 -1.92,-3.871 v -0.069 c 0,-0.011 0,-0.011 0,-0.011 0,-1.059 0.73,-2.119 2.47,-3.119 13.45,-7.689 26.855,-15.67 40.275,-23.42 5.68,-3.28 11.492,-6.44 17.412,-9.26 1.28,-0.601 4.052,-0.15 5.021,0.869 9.13,9.631 21.456,14.471 32.056,21.86 1.66,1.149 2.797,3.069 4.198,4.931 0.189,0.27 0.403,0.539 0.623,0.81 -1,1.329 -1.527,2.72 -2.268,2.85 -1.36,0.261 -3.179,0.24 -4.249,-0.489 -10.25,-6.98 -20.32,-14.201 -30.6,-21.141 -1.289,-0.87 -3.84,-1.21 -5.13,-0.52 -17.859,9.5 -36.585,17.76 -52.545,30.49 -1.858,1.48 -4.064,2.61 -5.343,0.09 z m 5.21,44.741 c -0.71,-0.99 -1.39,-1.951 -1.66,-3.011 -0.279,-1.069 0.24,-3.04 1.101,-3.61 6.939,-4.67 14.02,-9.129 21.09,-13.619 9.43,-6 18.84,-12.021 28.35,-17.881 1.03,-0.629 2.931,-0.789 4.021,-0.289 15.169,7.029 30.27,14.189 45.38,21.369 0.979,0.471 2.289,1.09 2.63,1.961 0.49,1.299 0.61,2.75 0.77,4.17 0.04,0.399 0.091,0.789 0.15,1.17 -1.68,0.18 -3.67,1.029 -4.979,0.42 -11,-5.121 -21.891,-10.5 -32.811,-15.83 -1.25,-0.61 -2.49,-1.28 -3.64,-2.07 -5.65,-3.96 -10.721,-2.63 -16.141,0.95 -11.069,7.29 -22.439,14.14 -33.659,21.22 -2.23,1.41 -4.271,3.141 -6.431,4.66 -0.79,0.561 -1.68,0.949 -3.21,1.79 -0.301,-0.48 -0.641,-0.941 -0.961,-1.4 z m 24.31,55.129 c 0,0.01 0,0.01 -0.011,0.01 -1.21,1.711 -2.37,3.511 -3.46,5.58 -0.51,-0.109 -1.229,-0.219 -1.75,-0.319 0.04,-0.75 -0.22,-1.56 -0.22,-2.3 v -0.26 c 0,-0.36 0.3,-0.69 0.46,-0.98 3.239,-6.33 6.745,-12.57 10.115,-18.83 1.149,-2.15 2.632,-2.71 4.082,-1.26 0.021,0.01 0.062,0.02 0.071,0.039 0.221,0.211 0.446,0.471 0.666,0.791 3.43,4.89 6.758,9.869 10.128,14.82 -0.71,0.5 -1.416,1.02 -2.116,1.529 -0.04,-0.05 -0.068,-0.1 -0.108,-0.15 -3.13,-4.539 -5.429,-6.199 -9.13,-11.6 -2.838,5.391 -5.897,8.91 -8.727,12.93 z m 39.4,52.1 c 0.23,-0.561 0.47,-1.141 0.709,-1.71 -1.909,-2.221 -3.709,-2.431 -5.929,-0.221 -1.271,1.271 -2.58,2.511 -3.91,3.721 0,0.01 -0.011,0.01 -0.011,0.01 -1.569,1.42 -3.159,2.8 -4.779,4.15 -0.78,0.659 -2.09,0.699 -3.15,1.02 0.41,-1.03 0.551,-1.89 1.261,-2.61 l 0.729,-0.31 h 0.01 c 0.16,-1 0.33,-0.61 0.5,-0.78 0,-0.01 0.011,-0.135 0.011,-0.135 1.689,-1.78 3.439,-3.442 4.919,-5.662 -0.629,0.239 -1.249,0.368 -1.879,0.599 -0.04,0.01 -0.08,0.014 -0.121,0.024 -3.829,1.43 -7.669,2.822 -11.509,4.252 -0.24,-0.59 -0.5,-0.924 -0.761,-1.514 2.04,-1.021 4.08,-1.784 6.21,-2.784 h 0.011 c 0.049,-1 0.08,0 0.13,0 0,0 0.01,0 0.02,0 0.05,-1 0.101,-0.31 0.15,-0.34 1.569,-0.95 3.189,-1.766 4.92,-2.615 -0.311,-0.14 -0.62,-0.353 -0.93,-0.442 -0.03,-0.01 -0.061,-0.062 -0.091,-0.062 -0.02,0 -0.029,0.225 -0.05,0.225 -4.01,-1.02 -8.27,1.234 -11.2,-2.766 h 19.07 c 0.029,-2 -0.09,-2.891 -0.36,-3.939 -0.869,-3.391 -3.329,-5.186 -7.569,-6.465 -2.29,1.199 -4.16,2.887 -5.44,2.547 -1.439,-0.41 -2.35,-2.781 -4.229,-5.221 -1.25,0.219 -3.431,0.443 -5.73,0.734 -0.24,0.029 -0.47,0.302 -0.71,0.332 -0.06,0 -0.11,0.012 -0.17,0.012 h -0.01 c -0.82,1 -1.7,-0.35 -2.561,-0.51 0.61,-0.641 1.11,-1.516 1.86,-1.875 7.26,-3.551 23.96,0.637 27.52,9.407 0.091,0.22 0.19,0.438 0.311,0.639 0.01,0.011 0.02,0.024 0.02,0.024 0.021,0.03 0.03,0.063 0.061,0.092 0.02,0.041 0.05,0.066 0.07,0.106 0.06,0.08 0.119,0.168 0.17,0.248 0.09,0.14 0.18,0.279 0.26,0.419 2.84,3.641 9.26,3.58 12.05,-0.551 4.95,-7.33 10.83,-13.71 19,-17.25 3.37,-1.45 7.43,-1.27 11.18,-1.84 0.15,0.68 0.31,1.359 0.471,2.04 -0.561,0.19 -1.11,0.39 -1.661,0.59 -0.909,0.33 -1.829,0.649 -2.77,0.87 -2.39,0.58 -10.22,9.109 -11.21,9.6 -1.2,0.58 -10.87,5.95 -10.7,6.2 1.931,-0.7 3.83,-1.47 5.761,-2.12 0.899,-0.311 1.81,-0.59 2.729,-0.83 1.05,-0.26 2.38,0.59 3.58,0.94 -0.92,0.7 -1.729,1.6 -2.75,2.04 -2.33,0.99 -4.72,1.84 -7.1,2.72 -0.46,0.16 -0.92,0.33 -1.38,0.5 0.08,0.4 0.17,0.93 0.25,1.33 1.899,0.17 3.81,0.01 5.67,0.82 0.109,0.04 0.21,-0.61 0.319,0.39 0.011,0 0.011,0 0.011,0 0.199,0 0.399,-0.31 0.6,-0.27 1.271,0.27 2.38,1.125 3.56,1.765 -0.699,0.25 -1.399,0.968 -2.1,1.197 -0.22,0.08 -0.43,0.308 -0.65,0.308 h -0.01 c -0.38,0 -0.76,-0.14 -1.149,-0.12 -1.75,0.15 -3.53,-0.295 -5.891,-0.505 1.17,1.94 3.13,2.625 4.95,3.625 h 0.01 c 0.03,0 0.061,0.01 0.09,0.02 0.08,0.04 0.171,-0.02 0.25,-0.02 0.011,0 0.011,0 0.011,0 0.2,0 0.41,-0.01 0.6,0.1 1.47,0.881 2.72,1.676 3.2,3.386 -0.08,0.109 -0.15,0.237 -0.22,0.347 -0.011,0 -0.011,0.029 -0.011,0.029 -0.01,0.01 -0.01,0.004 -0.02,0.015 -0.19,0.279 -0.39,0.562 -0.58,0.832 -3.57,-1.97 -7.04,-4.134 -10.73,-5.834 -1.909,-0.9 -4.189,-0.952 -6.32,-1.382 0.701,1.939 1.211,3.979 2.131,5.809 0.35,0.681 0.84,1.289 1.369,1.879 0,0.012 0.011,0.011 0.011,0.011 0.5,0.55 1.021,1.079 1.5,1.659 -0.21,0.11 -0.46,0.141 -0.75,0.08 -1.229,-0.229 -3.42,-2.02 -7.43,-6.1 -0.811,1.17 -1.53,2.33 -2.53,3.479 0,0.011 0,0.011 0,0.011 0,0.31 -0.16,0.6 -0.37,0.91 0,0 0.125,0.01 0.115,0.01 -0.86,1.22 -1.748,2.43 -2.588,3.649 -0.529,-0.3 -1.14,-0.609 -1.669,-0.909 1.087,-2.65 2.218,-5.31 3.348,-8.03 z m 32.91,-71.83 c 2.15,4.05 4.02,8.271 5.85,12.479 0.051,0.131 0.051,0.271 0.021,0.43 -0.101,0.5 -0.51,1.111 -0.69,1.641 -0.75,-0.449 -1.859,-0.73 -2.18,-1.391 -1.26,-2.569 -2.37,-5.209 -3.66,-8.199 -0.31,-0.721 -0.63,-1.471 -0.97,-2.24 -4.12,3.439 -7.851,6.53 -11.521,9.57 l -0.01,0.01 c -0.7,0.59 -1.399,1.17 -2.1,1.75 -0.4,-0.32 -0.8,-0.66 -1.2,-0.99 0.63,-1.109 1.04,-2.47 1.92,-3.31 3.67,-3.44 7.4,-6.81 11.29,-9.979 0.63,-0.521 2.84,-0.32 3.21,0.189 0.02,0.01 0.03,0.029 0.04,0.04 z m -46.08,38.71 c 3.8,-3.03 7.87,-5.75 12.021,-8.28 0.858,-0.521 2.72,-0.079 3.77,0.521 3.11,1.75 6.089,3.75 9.021,5.8 0.51,0.36 0.939,0.79 1.47,1.38 0,0 0,0 0.01,0.01 0.55,0.61 1.19,1.37 2.089,2.33 -2.029,0.92 -3.249,1.631 -4.568,1.99 -0.49,0.13 -1.211,-0.57 -1.83,-0.9 -10,-5.49 -9.951,-5.41 -19.07,1.051 -0.83,0.59 -2.021,0.66 -3.23,0.699 -0.64,0.03 -1.279,0.051 -1.88,0.131 0.697,-1.623 0.977,-3.762 2.197,-4.732 z m 19.19,-39.37 c 2.31,2.03 4.399,4.431 6.08,7 0.93,1.42 0.859,3.78 1.239,5.56 -0.75,-0.14 -1.569,-0.02 -2.34,-0.02 h -0.12 c -0.739,0 -1.43,-0.55 -1.989,-0.92 -2.15,-1.439 -3.99,-4.176 -6.04,-5.255 -0.011,-0.011 -0.03,-0.073 -0.04,-0.083 -0.451,-0.24 -0.91,-0.441 -1.391,-0.501 -2.25,-0.29 -4.88,2.944 -7.47,4.425 -2.14,1.229 -4.46,2.132 -7.03,3.342 -0.81,-0.51 -1.569,-0.984 -2.3,-1.443 -0.35,-0.221 -0.7,-0.442 -1.05,-0.662 0.63,-0.95 1.04,-2.231 1.93,-2.812 5.24,-3.37 10.49,-6.751 15.96,-9.72 0.55,-0.301 1.46,-0.251 2.37,0.009 0,-0.01 0,-0.01 0.01,0 0.841,0.229 1.661,0.63 2.181,1.08 z m -22.19,25.53 c 4.62,-3.34 9.43,-6.43 14.37,-9.28 1.03,-0.58 3.09,0.09 4.29,0.75 0.31,0.181 0.61,0.149 0.91,0.351 0.01,0 0.02,0.26 0.029,0.27 0.171,0.12 0.341,-0.08 0.521,0.92 0.01,0 0.01,0 0.01,0 3.641,2 7.23,3.689 10.601,6.13 1.199,0.87 1.489,2.765 2.21,4.325 -1.71,0.07 -3.69,0.607 -5.08,-0.033 -3.021,-1.369 -5.73,-3.5 -8.59,-5.24 -0.82,-0.5 -1.73,-0.866 -2.811,-1.376 -1.82,0.989 -3.689,1.862 -5.42,2.952 -2.61,1.62 -5,3.637 -7.74,4.986 -0.8,0.4 -1.979,0.027 -3.12,-0.282 -0.38,-0.101 -0.76,-0.19 -1.119,-0.251 0.279,-1.441 0.069,-3.582 0.939,-4.222 z m 59.49,-34.84 c -9.71,-3.93 -19.42,-7.801 -29.061,-11.871 -5.529,-2.329 -10.83,-5.219 -16.409,-7.399 -2.091,-0.8 -5.15,-1.21 -6.971,-0.26 -15.08,7.92 -29.989,16.149 -44.87,24.43 -1.319,0.74 -2.59,1.479 -3.729,1.431 -0.01,0.01 -0.01,0.01 -0.021,0 -0.83,-0.03 -1.6,-0.471 -2.3,-1.621 -1.54,-2.51 -1.38,-4.959 1.78,-6.619 15.81,-8.301 31.59,-16.69 47.35,-25.07 1.221,-0.65 2.221,-1.779 3.49,-2.279 1.021,-0.391 2.65,-0.66 3.38,-0.121 11.601,8.471 25.12,12.551 38.431,17.16 3.689,1.271 7.318,2.791 10.77,4.6 1.41,0.721 2.26,2.5 2.86,3.211 0.069,1.92 -0.471,3.289 -1.36,4.05 -0.86,0.728 -2.06,0.878 -3.34,0.358 z m 10.17,-11.57 c -1.43,-1.43 -3.4,-2.609 -4.131,-4.32 -1.169,-2.73 -3.249,-5.74 -0.1,-8.75 1.5,-1.439 2.9,-1.91 4.061,-1.369 0.76,0.359 1.43,1.149 1.95,2.399 0.859,2.03 1.699,4.06 2.89,6.92 -0.79,0.86 -1.6,1.75 -2.42,2.649 -0.74,0.821 -1.5,1.651 -2.25,2.471 z m -189.81,-212.08 c 0.021,0.04 0.061,0.07 0.11,0.11 0.01,-0.03 0.021,-0.07 0.03,-0.11 z m -0.02,-0.05 v 0.05 h 0.02 c -0.01,-0.01 -0.02,-0.03 -0.02,-0.05 z"
     stroke-miterlimit="10"
     stroke="#e79a00"
     fill="#e79a00"
     clip-rule="evenodd"
     fill-rule="evenodd" /><path
     style="stroke-width:0.201167"
     id="path58"
     d="m 968.80759,60.30871 c -6.012,3.215 -12.025,6.423 -18.031,9.646 -15.816,8.481 -31.545,17.124 -45.216,28.914 -2.766,2.385 -4.366,1.076 -6.267,-0.676 -1.979,-1.823 -1.493,-3.511 0.218,-5.269 14.592,-14.984 31.267,-26.896 51.082,-33.924 4.053,-1.437 8.603,-1.662 12.958,-1.965 1.736,-0.121 3.565,1.062 5.353,1.652 -0.032,0.541 -0.064,1.082 -0.097,1.622 z"
     fill="none"
     clip-rule="evenodd"
     fill-rule="evenodd" /><path
     style="stroke-width:0.201167"
     id="path60"
     d="m 966.98159,67.69571 c -0.705,1.103 -1.15,2.663 -2.156,3.237 -9.553,5.445 -19.277,10.596 -28.786,16.112 -4.061,2.354 -7.71,5.41 -11.593,8.077 -4.092,2.812 -8.189,5.623 -12.405,8.239 -0.888,0.551 -2.302,0.253 -3.472,0.346 0.457,-1.22 0.556,-2.924 1.436,-3.582 5.979,-4.469 11.865,-9.158 18.272,-12.944 11.597,-6.847 23.532,-13.119 35.34,-19.607 0.657,-0.361 1.429,-0.508 2.146,-0.756 0.405,0.294 0.813,0.586 1.218,0.878 z"
     fill="#e8d360"
     clip-rule="evenodd"
     fill-rule="evenodd" /><path
     style="stroke-width:0.201167"
     id="path62"
     d="m 894.87059,93.06371 c 9.738,-22.806 34.967,-39.564 59.32,-38.405 -23.094,6.951 -41.596,21.067 -59.32,38.405 z"
     fill="none"
     clip-rule="evenodd"
     fill-rule="evenodd" /><path
     style="stroke-width:0.201167"
     id="path64"
     d="m 966.78959,73.15671 c -16.04,15.045 -35.54,24.584 -54.711,34.646 16.372,-14.52 35.251,-25.044 54.711,-34.646 z"
     fill="none"
     clip-rule="evenodd"
     fill-rule="evenodd" /><path
     style="stroke-width:0.201167"
     id="path66"
     d="m 960.03859,136.15171 c -6.408,1.784 -6.835,1.473 -8.006,-4.491 -0.799,-4.065 -1.82,-8.085 -2.814,-12.106 -0.684,-2.76 -0.035,-4.385 3.054,-5.024 3.302,-0.684 3.312,1.598 3.755,3.56 1.348,5.936 2.643,11.884 4.011,18.061 z"
     fill="#e7795a"
     clip-rule="evenodd"
     fill-rule="evenodd" /><path
     style="stroke-width:0.201167"
     id="path68"
     d="m 1010.3796,467.94571 c -4.102,6.83 -7.86,13.39 -12.03001,19.68 -0.68,1.03 -3.16,0.86 -6.05,1.54 3.51,-7.689 6.3,-14.02 9.30001,-20.25 1.4,-2.92 2.22,-2.93 8.78,-0.97 z"
     fill="#e7795a"
     clip-rule="evenodd"
     fill-rule="evenodd" /><path
     style="stroke-width:0.201167"
     id="path70"
     d="m 863.98059,498.61571 c -3.183,1.27 -5.831,1.58 -7.347,-3.21 -1.517,-4.8 -3.743,-9.34 -5.962,-14.7 2.527,-0.71 4.445,-1.26 6.196,-1.75 2.443,6.76 4.736,13.1 7.113,19.66 z"
     fill="#e7795a"
     clip-rule="evenodd"
     fill-rule="evenodd" /><path
     style="stroke-width:0.201167"
     id="path72"
     d="m 823.36959,141.91571 c 0.141,1.46 -2.25,3.17 -3.47,4.76 -0.58,-0.2 -1.16,-0.4 -1.75,-0.6 -1.24,-7.88 -2.49,-15.76 -3.77,-23.9 4.01,-0.74 5.63,0.22 6.119,3.47 0.831,5.45 2.341,10.81 2.871,16.27 z"
     fill="#e7795a"
     clip-rule="evenodd"
     fill-rule="evenodd" /><path
     style="stroke-width:0.201167"
     id="path74"
     d="m 961.45859,135.88471 c -1.585,-7.063 -3.142,-13.984 -4.789,-21.325 4.521,-0.349 6.186,1.065 6.499,4.575 0.367,4.163 0.932,8.335 1.871,12.399 0.69,2.982 -0.654,3.752 -3.581,4.351 z"
     fill="#e7795a"
     clip-rule="evenodd"
     fill-rule="evenodd" /><path
     style="stroke-width:0.201167"
     id="path76"
     d="m 851.89259,500.65571 c -5.54,0.08 -12.446,-5.49 -12.493,-10.521 -0.02,-1.72 2.779,-3.62 4.539,-5.09 0.29,-0.25 2.357,1.01 2.771,1.98 1.842,4.331 3.377,8.801 5.183,13.631 z"
     fill="#e7795a"
     clip-rule="evenodd"
     fill-rule="evenodd" /><path
     style="stroke-width:0.201167"
     id="path78"
     d="m 803.58959,142.04571 c -2.2,0.67 -3.46,0.95 -4.23,0.53 -0.84,-0.45 -1.11,-1.71 -1.431,-4.18 -0.43,-3.35 -0.979,-6.68 -1.319,-10.04 -0.13,-1.26 -0.05,-2.41 0.4,-3.37 0.55,-1.17 1.66,-2.03 3.66,-2.38 0.01,0.04 0.01,0.08 0.02,0.12 0.31,2.08 0.62,4.12 0.92,6.15 0.669,4.45 1.319,8.81 1.98,13.17 z"
     fill="none"
     clip-rule="evenodd"
     fill-rule="evenodd" /><path
     style="stroke-width:0.201167"
     id="path80"
     d="m 999.00959,466.35571 c -2.75,6.55 -5.37,12.81 -7.971,19.02 -4.261,-2.46 -4.619,-4.62 -1.689,-11.61 3.29,-7.84 4.5,-8.82 9.66,-7.41 z"
     fill="#e7795a"
     clip-rule="evenodd"
     fill-rule="evenodd" /><path
     style="stroke-width:0.201167"
     id="path82"
     d="m 945.97959,135.06271 c -4.771,0.738 -6.632,-0.832 -6.216,-4.701 0.384,-3.586 0.927,-7.158 1.405,-10.736 0.596,0.008 1.193,0.016 1.789,0.016 0.989,5.078 1.987,10.147 3.022,15.421 z"
     fill="#e7795a"
     clip-rule="evenodd"
     fill-rule="evenodd" /><path
     style="stroke-width:0.201167"
     id="path84"
     d="m 869.60359,497.87571 c -0.44,-0.1 -0.88,-0.21 -1.312,-0.31 -2.563,-6.48 -5.127,-12.95 -7.906,-19.98 2.489,-0.46 4.164,-0.78 5.615,-1.05 1.787,5.97 3.611,11.56 5.034,17.25 0.291,1.14 -0.916,2.72 -1.431,4.09 z"
     fill="#e7795a"
     clip-rule="evenodd"
     fill-rule="evenodd" /><path
     style="stroke-width:0.201167"
     id="path86"
     d="m 974.07659,128.43171 c -1.466,1.228 -3.208,2.115 -5.562,3.604 -0.76,-4.666 -1.377,-8.491 -1.995,-12.309 0.372,-0.293 0.753,-0.586 1.125,-0.872 2.486,2.313 5.038,4.563 7.366,7.026 0.301,0.309 -0.301,2.028 -0.934,2.551 z"
     fill="#e7795a"
     clip-rule="evenodd"
     fill-rule="evenodd" /><path
     style="stroke-width:0.201167"
     id="path88"
     d="m 872.75059,490.16571 c -1.037,-2.517 -2.027,-4.529 -2.667,-6.636 -0.649,-2.114 -0.946,-4.332 -1.604,-7.534 1.865,0.522 3.677,0.497 4.299,1.293 3.217,4.127 3.306,9.256 -0.028,12.877 z"
     fill="#e7795a"
     clip-rule="evenodd"
     fill-rule="evenodd" /><path
     style="stroke-width:0.201167"
     id="path90"
     d="m 1017.0396,469.41571 c -5.689,5.62 -6.479,13.47 -13.27,18.41 -0.03,-5.91 8.69,-18.51 13.27,-18.41 z"
     fill="#e7795a"
     clip-rule="evenodd"
     fill-rule="evenodd" /><path
     style="stroke-width:0.201167"
     id="path92"
     d="m 795.19959,141.29571 c -1.59,-0.46 -2.89,-0.98 -3.88,-1.61 -3.541,-2.24 -3.05,-5.77 2.69,-11.9 0.229,2.63 0.439,5.04 0.649,7.38 0.181,2.07 0.361,4.08 0.541,6.13 z"
     fill="none"
     clip-rule="evenodd"
     fill-rule="evenodd" /><path
     style="stroke-width:0.201167"
     id="path94"
     d="m 1018.1796,474.81571 c -1.71,2.359 -3.42,4.72 -5.12,7.09 -0.42,-0.28 -0.83,-0.561 -1.24,-0.84 1.57,-2.471 3.141,-4.931 4.72,-7.391 0.55,0.381 1.09,0.761 1.64,1.141 z"
     fill="#e7795a"
     clip-rule="evenodd"
     fill-rule="evenodd" /><path
     style="stroke-width:0.201167"
     id="path298"
     d="m 981.04959,377.83571 c 0.14,3.971 -2.221,5.7 -4.92,4.61 -0.131,-0.05 -0.271,-0.11 -0.4,-0.16 -10.02,-4.06 -20.04,-8.06 -29.99,-12.25 -5.79,-2.44 -11.33,-5.46 -17.17,-7.74 -2.18,-0.84 -5.39,-1.271 -7.291,-0.28 -15.769,8.291 -31.369,16.9 -46.929,25.561 -1.05,0.58 -2.05,1.17 -3,1.4 -0.01,0.01 -0.01,0.01 -0.021,0 -1.21,0.299 -2.33,0.02 -3.31,-1.601 -1.61,-2.63 -1.45,-5.19 1.86,-6.93 16.54,-8.681 33.04,-17.45 49.529,-26.22 1.28,-0.681 2.32,-1.86 3.65,-2.381 1.07,-0.41 2.77,-0.689 3.54,-0.129 12.13,8.859 26.27,13.129 40.189,17.949 3.86,1.33 7.66,2.92 11.271,4.811 1.472,0.76 2.362,2.62 2.992,3.36 z"
     clip-rule="evenodd"
     fill-rule="evenodd" /><path
     style="stroke-width:0.201167"
     id="path300"
     d="m 970.68959,345.65571 c -1.75,0.189 -3.83,1.08 -5.2,0.439 -11.51,-5.35 -22.899,-10.979 -34.319,-16.55 -1.311,-0.64 -2.61,-1.34 -3.811,-2.17 -5.91,-4.14 -11.21,-2.75 -16.88,0.99 -11.58,7.63 -23.48,14.79 -35.21,22.2 -2.341,1.479 -4.47,3.279 -6.73,4.88 -0.819,0.579 -1.761,0.989 -3.359,1.87 -1,-1.6 -2.33,-3 -2.74,-4.62 -0.29,-1.12 0.26,-3.181 1.15,-3.771 7.26,-4.89 14.67,-9.55 22.06,-14.25 9.87,-6.27 19.71,-12.57 29.66,-18.699 1.08,-0.66 3.06,-0.83 4.2,-0.301 15.87,7.35 31.67,14.84 47.47,22.35 1.03,0.49 2.4,1.141 2.75,2.051 0.649,1.741 0.679,3.711 0.959,5.581 z"
     clip-rule="evenodd"
     fill-rule="evenodd" /><path
     style="stroke-width:0.201167"
     id="path302"
     d="m 963.47959,297.25571 c -1.051,1.391 -1.6,2.84 -2.38,2.98 -0.45,0.09 -0.93,0.14 -1.43,0.15 -1.101,0.039 -2.241,-0.141 -3.011,-0.66 -10.72,-7.311 -21.26,-14.86 -32.01,-22.121 -1.35,-0.909 -4.02,-1.26 -5.371,-0.539 -18.679,9.939 -38.139,18.57 -54.839,31.89 -1.94,1.55 -4.13,2.729 -5.47,0.09 -0.07,-0.14 -0.16,-0.29 -0.24,-0.44 -1.18,-2.1 -3.12,-4.689 0.82,-6.949 14.069,-8.04 27.97,-16.391 42,-24.5 5.939,-3.43 11.97,-6.73 18.16,-9.68 1.34,-0.631 4.21,-0.16 5.219,0.91 9.551,10.069 22.431,15.129 33.521,22.859 1.98,1.38 3.241,3.811 5.031,6.01 z"
     clip-rule="evenodd"
     fill-rule="evenodd" /><path
     style="stroke-width:0.201167"
     id="path304"
     d="m 951.93959,256.75571 c -0.99,1.131 -1.68,2.6 -2.38,2.59 -1.72,0 -3.79,-0.199 -5.1,-1.16 -8.011,-5.879 -15.761,-12.109 -23.82,-17.91 -1.43,-1.039 -4.38,-1.549 -5.82,-0.779 -15.439,8.26 -30.729,16.811 -46.02,25.35 -1.101,0.621 -1.75,2.01 -2.82,2.73 -1.36,0.93 -3.71,2.52 -4.28,2.08 -1.43,-1.12 -2.59,-3.12 -2.899,-4.93 -0.221,-1.291 0.76,-3.44 1.87,-4.16 7.6,-4.93 15.199,-9.891 23.119,-14.26 9.561,-5.271 19.489,-9.891 29.171,-14.961 3.51,-1.84 5.989,-1.58 9.31,1.09 8.29,6.65 17.18,12.551 25.68,18.94 1.599,1.21 2.509,3.33 3.989,5.38 z"
     clip-rule="evenodd"
     fill-rule="evenodd" /><path
     style="stroke-width:0.201167"
     id="path306"
     d="m 973.19959,437.67571 c -1.54,0.521 -3.06,1.16 -4.63,1.53 -2.5,0.61 -5.189,0.69 -7.51,1.681 -1.18,0.5 -1.88,2.42 -2.521,3.819 -0.699,1.511 -0.659,4.03 -1.699,4.54 -1.25,0.609 -3.301,-0.46 -5.78,-0.96 -1.561,1.76 -3.75,4.21 -5.93,6.649 0.17,0.261 0.35,0.531 0.52,0.791 2.96,-1.061 5.86,-2.311 8.88,-3.08 1.101,-0.271 2.49,0.619 3.749,0.979 -0.959,0.729 -1.809,1.681 -2.879,2.14 -2.91,1.23 -5.91,2.26 -8.87,3.371 0.09,0.409 0.181,0.83 0.26,1.25 2.311,0.209 4.66,0.239 6.91,0.719 1.32,0.281 2.49,1.271 3.721,1.94 -1.36,0.49 -2.7,1.28 -4.091,1.39 -1.83,0.141 -3.689,-0.26 -6.159,-0.479 2.46,4.06 8.29,3.511 9.529,7.819 -0.29,0.41 -0.58,0.83 -0.87,1.24 -3.729,-2.069 -7.359,-4.35 -11.22,-6.129 -2,-0.931 -4.39,-1 -6.61,-1.451 0.73,2.031 1.261,4.17 2.23,6.08 0.699,1.381 1.97,2.461 3.01,3.711 -1.149,0.6 -3.229,-1 -8.42,-6.291 -1.97,2.86 -3.891,5.641 -5.82,8.431 -0.55,-0.32 -1.1,-0.64 -1.649,-0.96 1.38,-3.35 2.77,-6.71 4.21,-10.18 -1.99,-2.33 -3.88,-2.551 -6.2,-0.23 -2.899,2.891 -5.96,5.62 -9.1,8.24 -0.82,0.689 -2.181,0.73 -3.29,1.07 0.42,-1.08 0.569,-2.42 1.309,-3.17 2.142,-2.17 4.521,-4.111 6.461,-7.011 -4.71,1.761 -9.42,3.53 -14.13,5.29 -0.26,-0.62 -0.53,-1.24 -0.8,-1.859 3.81,-1.91 7.63,-3.806 11.969,-5.985 -4.519,-2 -9.5,1.425 -12.839,-3.575 h 19.95 c 0.13,-6 -2.48,-8.646 -8.3,-10.405 -2.391,1.26 -4.341,3.133 -5.681,2.772 -1.51,-0.42 -2.46,-2.854 -4.43,-5.403 -1.44,0.25 -4.07,0.798 -6.73,1.138 -0.92,0.11 -1.909,-0.32 -2.869,-0.5 0.64,-0.67 1.159,-1.581 1.939,-1.961 7.601,-3.71 25.07,0.67 28.79,9.85 2.169,5.35 10.25,5.89 13.53,1.029 5.18,-7.67 11.33,-14.35 19.88,-18.049 3.52,-1.521 7.77,-1.33 11.69,-1.921 0.16,0.71 0.33,1.421 0.49,2.13 z"
     clip-rule="evenodd"
     fill-rule="evenodd" /><path
     style="stroke-width:0.201167"
     id="path308"
     d="m 934.78959,223.39571 c -1.239,1.72 -1.869,3.53 -2.88,3.77 -0.689,0.16 -1.56,0.04 -2.38,-0.24 -0.68,-0.23 -1.319,-0.57 -1.81,-0.96 -4.851,-3.81 -9.521,-7.86 -14.36,-11.68 -0.02,-0.01 -0.03,-0.03 -0.05,-0.03 -1.32,-1.06 -2.66,-2.09 -4.021,-3.09 -0.189,-0.14 -0.39,-0.27 -0.609,-0.38 l -0.01,-0.01 c -1.761,-0.97 -4.45,-1.38 -6.16,-0.78 -4.12,1.45 -8.24,2.93 -12.29,4.53 -0.061,0.02 -0.13,0.05 -0.19,0.08 -2.601,1.03 -5.18,2.11 -7.72,3.27 -6.811,3.09 -13.36,6.71 -19.44,11.32 -0.689,0.521 -1.739,0.56 -2.819,0.56 -0.621,0 -1.24,-0.01 -1.811,0.051 0,-2.44 -1.01,-6 0.21,-7.121 3.25,-3.01 7.32,-5.24 11.32,-7.27 4.8,-2.42 9.84,-4.33 14.8,-6.42 6.29,-2.66 12.54,-5.45 18.96,-7.77 1.5,-0.55 4,0.01 5.351,1 7.39,5.43 14.6,11.12 21.8,16.81 1.459,1.16 2.589,2.73 4.109,4.36 z"
     clip-rule="evenodd"
     fill-rule="evenodd" /><path
     style="stroke-width:0.201167"
     id="path310"
     d="m 932.14959,191.25571 c -0.03,1.7 -0.52,3.39 -0.82,5.08 -1.56,-0.4 -3.569,-0.32 -4.58,-1.29 -5.38,-5.15 -10.449,-10.62 -15.779,-15.83 -0.84,-0.82 -2.811,-1.58 -3.641,-1.15 -11.3,5.77 -22.489,11.74 -33.689,17.71 -0.88,0.47 -1.47,1.55 -2.37,1.89 -1.271,0.48 -2.87,1.01 -4.021,0.62 -0.899,-0.3 -1.34,-1.97 -2.399,-3.7 1.37,-1.81 2.31,-4.23 4.04,-5.11 7.34,-3.74 15.01,-6.86 22.389,-10.54 5.341,-2.66 10.361,-5.99 15.682,-8.68 1.239,-0.63 3.75,-0.53 4.67,0.32 6.479,6.05 12.699,12.37 18.979,18.63 0.619,0.61 1.549,1.37 1.539,2.05 z"
     clip-rule="evenodd"
     fill-rule="evenodd" /><path
     style="stroke-width:0.201167"
     id="path312"
     d="m 948.35959,422.25571 c -1.79,0.08 -3.86,0.77 -5.31,0.1 -3.16,-1.439 -5.99,-3.6 -8.99,-5.42 -0.85,-0.52 -1.811,-0.869 -2.94,-1.399 -1.899,1.03 -3.859,1.95 -5.67,3.09 -2.729,1.7 -5.229,3.82 -8.09,5.229 -1.12,0.561 -2.939,-0.319 -4.439,-0.549 0.3,-1.511 0.079,-3.75 0.989,-4.41 4.83,-3.5 9.86,-6.73 15.03,-9.711 1.07,-0.609 3.23,-0.149 4.489,0.541 4.331,2.369 8.621,4.869 12.621,7.75 1.26,0.91 1.56,3.149 2.31,4.779 z"
     clip-rule="evenodd"
     fill-rule="evenodd" /><path
     style="stroke-width:0.201167"
     id="path314"
     d="m 944.77859,405.01571 c -1.568,-0.299 -3.429,-0.16 -4.659,-0.979 -2.75,-1.84 -5.02,-5.49 -7.81,-5.851 -2.36,-0.299 -5.11,3.11 -7.82,4.65 -2.24,1.29 -4.66,2.25 -7.35,3.51 -1.26,-0.779 -2.391,-1.479 -3.51,-2.189 0.659,-1 1.09,-2.34 2.02,-2.939 5.48,-3.531 10.98,-7.061 16.7,-10.171 1.11,-0.6 3.649,0.15 4.77,1.14 2.42,2.121 4.601,4.631 6.36,7.32 0.97,1.489 0.9,3.649 1.299,5.509 z"
     clip-rule="evenodd"
     fill-rule="evenodd" /><path
     style="stroke-width:0.201167"
     id="path316"
     d="m 946.72959,435.20571 c -2.12,0.96 -3.4,1.71 -4.78,2.08 -0.51,0.14 -1.27,-0.59 -1.91,-0.94 -10.46,-5.74 -10.409,-5.66 -19.949,1.101 -1.32,0.94 -3.54,0.61 -5.351,0.87 0.74,-1.69 1.03,-3.93 2.311,-4.95 3.97,-3.17 8.229,-6.011 12.569,-8.66 0.9,-0.54 2.841,-0.08 3.94,0.54 3.25,1.84 6.369,3.93 9.439,6.07 1.101,0.759 1.901,1.949 3.731,3.889 z"
     clip-rule="evenodd"
     fill-rule="evenodd" /><path
     style="stroke-width:0.201167"
     id="path318"
     d="m 910.61959,410.67571 c -0.739,0.53 -1.479,1.07 -2.22,1.6 -3.33,-4.859 -6.66,-9.719 -10.57,-15.43 -5.064,9.629 -8.818,16.759 -11.85,22.521 -0.54,-0.12 -1.09,-0.229 -1.63,-0.341 0.06,-1.25 -0.26,-2.689 0.25,-3.699 3.39,-6.62 6.95,-13.15 10.479,-19.7 1.4,-2.601 3.181,-2.979 4.96,-0.45 3.591,5.119 7.061,10.329 10.581,15.499 z"
     clip-rule="evenodd"
     fill-rule="evenodd" /><path
     style="stroke-width:0.201167"
     id="path320"
     d="m 975.74959,315.93471 c -1.5,1.521 -4.159,1.34 -4.989,-1.779 -0.49,-1.83 -0.981,-3.68 -1.721,-5.4 -2.869,-6.63 -1.869,-8.4 5.841,-9.81 1.159,3.409 2.869,6.78 3.3,10.3 0.259,2.16 -0.881,5.13 -2.431,6.689 z"
     clip-rule="evenodd"
     fill-rule="evenodd" /><path
     style="stroke-width:0.201167"
     id="path322"
     d="m 971.03959,269.14571 c 0.171,3.41 -1.6,5.07 -4.6,5.52 -3.63,0.551 -3.25,-2.34 -3.67,-4.55 -0.37,-1.99 -0.6,-4.07 -1.38,-5.91 -1.62,-3.819 0.75,-5.521 3.53,-6.63 0.909,-0.35 3.27,0.63 3.569,1.49 1.161,3.25 1.751,6.7 2.551,10.08 z"
     clip-rule="evenodd"
     fill-rule="evenodd" /><path
     style="stroke-width:0.201167"
     id="path324"
     d="m 853.66959,388.68471 c -1.721,2.771 -3.971,2.48 -5.73,0.311 -4.03,-4.98 -1.89,-13.439 4.6,-16.87 1.98,5.66 4.68,10.86 1.13,16.559 z"
     clip-rule="evenodd"
     fill-rule="evenodd" /><path
     style="stroke-width:0.201167"
     id="path326"
     d="m 967.14959,227.63571 c -1.52,1.379 -2.79,3.32 -4.479,3.82 -1.25,0.36 -3.681,-0.729 -4.471,-1.91 -1.479,-2.25 -2.21,-5.01 -3.149,-7.6 -1.261,-3.44 1.08,-5.12 3.68,-5.58 1.33,-0.24 3.57,1.2 4.44,2.51 1.569,2.37 2.429,5.22 3.979,8.76 z"
     clip-rule="evenodd"
     fill-rule="evenodd" /><path
     style="stroke-width:0.201167"
     id="path328"
     d="m 842.92859,301.01571 c -1.5,-0.02 -3.68,-1.58 -4.31,-3 -1.08,-2.47 -1.199,-5.359 -1.96,-9.279 1.11,-0.91 2.45,-2.74 4.119,-3.131 1.171,-0.27 3.531,1.131 4.051,2.341 1.131,2.61 1.561,5.569 2.03,8.42 0.471,2.919 -1.43,4.69 -3.93,4.649 z"
     clip-rule="evenodd"
     fill-rule="evenodd" /><path
     style="stroke-width:0.201167"
     id="path330"
     d="m 843.37959,247.67571 c -0.011,2.87 -1.41,4.67 -4.591,4.62 -3.18,-0.05 -3.77,-2.239 -3.979,-4.72 -0.11,-1.16 -0.021,-2.33 -0.021,-3.5 -0.39,-0.23 -0.779,-0.46 -1.17,-0.689 1.341,-2.221 2.301,-4.851 4.12,-6.57 2.5,-2.34 4.471,-0.51 5.01,2.14 0.591,2.829 0.641,5.799 0.631,8.719 z"
     clip-rule="evenodd"
     fill-rule="evenodd" /><path
     style="stroke-width:0.201167"
     id="path332"
     d="m 970.65959,408.09571 c -0.779,-0.47 -1.939,-0.76 -2.279,-1.449 -1.631,-3.351 -3.04,-6.801 -4.841,-10.92 -5.13,4.27 -9.699,8.06 -14.261,11.85 -0.419,-0.34 -0.829,-0.689 -1.249,-1.04 0.66,-1.16 1.08,-2.58 2.01,-3.46 3.83,-3.6 7.739,-7.12 11.811,-10.439 0.68,-0.551 3.1,-0.32 3.399,0.239 2.24,4.24 4.2,8.649 6.11,13.06 0.22,0.53 -0.45,1.439 -0.7,2.159 z"
     clip-rule="evenodd"
     fill-rule="evenodd" /><path
     style="stroke-width:0.201167"
     id="path334"
     d="m 840.98959,194.28571 c 0,3.3 -0.18,6.76 -1.27,9.82 -0.53,1.46 -3.16,2.72 -4.99,2.95 -0.92,0.12 -2.17,-2.25 -3.27,-3.49 0.64,-6.96 2.279,-10.69 5.979,-11.31 1.101,-0.19 3.551,1.31 3.551,2.03 z"
     clip-rule="evenodd"
     fill-rule="evenodd" /><path
     style="stroke-width:0.201167"
     id="path336"
     d="m 991.65959,364.98571 c -1.58,1.73 -3.239,3.55 -4.89,5.359 -1.491,-1.49 -3.55,-2.729 -4.32,-4.52 -1.22,-2.85 -3.399,-6 -0.1,-9.15 2.6,-2.5 4.89,-2.209 6.28,1.08 0.9,2.121 1.78,4.241 3.03,7.231 z"
     clip-rule="evenodd"
     fill-rule="evenodd" /><path
     style="stroke-width:0.201167"
     id="path338"
     d="m 954.16959,191.19571 c -1.351,0.92 -4.5,1.58 -5.03,0.9 -1.93,-2.48 -3.84,-5.43 -4.361,-8.45 -0.679,-3.91 2.411,-5.48 5.991,-5.84 1.61,3.28 3.31,6.13 4.39,9.19 0.42,1.21 -0.08,3.58 -0.99,4.2 z"
     clip-rule="evenodd"
     fill-rule="evenodd" /><path
     style="stroke-width:0.201167"
     id="path340"
     d="m 850.71959,338.45571 c -1.141,1.17 -2.58,2.649 -4.021,4.13 -1.26,-1.27 -2.83,-2.359 -3.7,-3.859 -0.829,-1.451 -1.721,-3.631 -1.189,-4.92 0.68,-1.641 2.61,-2.99 4.31,-3.82 0.5,-0.25 2.4,1.529 3.07,2.72 0.75,1.318 0.85,3.01 1.53,5.749 z"
     clip-rule="evenodd"
     fill-rule="evenodd" /><path
     style="stroke-width:0.201167"
     id="path764"
     d="m 976.72959,384.28571 c -0.86,0.729 -2.06,0.88 -3.34,0.36 -9.71,-3.93 -19.42,-7.801 -29.061,-11.871 -5.529,-2.329 -10.83,-5.219 -16.409,-7.399 -2.091,-0.8 -4.308,-0.018 -6.128,0.933 -15.08,7.92 -30.832,14.957 -45.713,23.237 -1.319,0.74 -2.59,1.479 -3.729,1.431 0.95,-0.23 1.95,-0.82 3,-1.4 15.56,-8.66 31.16,-17.27 46.929,-25.561 1.901,-0.99 5.111,-0.56 7.291,0.28 5.84,2.28 11.38,5.3 17.17,7.74 9.95,4.19 19.97,8.19 29.99,12.25 z"
     fill="#730127"
     clip-rule="evenodd"
     fill-rule="evenodd" /><path
     style="stroke-width:0.201167"
     id="path766"
     d="m 961.28959,303.19571 c -1,1.329 -1.529,2.72 -2.27,2.85 -1.36,0.261 -3.18,0.24 -4.25,-0.489 -10.25,-6.98 -20.32,-14.201 -30.6,-21.141 -1.29,-0.87 -3.841,-1.21 -5.131,-0.52 -17.859,9.5 -36.46,17.76 -52.42,30.49 -1.859,1.479 -3.939,2.609 -5.22,0.09 -0.59,-1.16 -1.63,-2.5 -1.67,-3.871 0.08,0.15 0.17,0.301 0.24,0.44 1.34,2.64 3.529,1.46 5.47,-0.09 16.7,-13.319 36.16,-21.95 54.839,-31.89 1.352,-0.721 4.021,-0.37 5.371,0.539 10.75,7.261 21.29,14.811 32.01,22.121 0.77,0.52 1.91,0.699 3.011,0.66 0.19,0.271 0.4,0.541 0.62,0.811 z"
     fill="#730127"
     clip-rule="evenodd"
     fill-rule="evenodd" /><path
     style="stroke-width:0.201167"
     id="path768"
     d="m 933.85959,231.58571 c -1.18,1.65 -1.78,3.381 -2.75,3.61 -1.189,0.271 -2.96,-0.33 -4,-1.15 -5.93,-4.659 -11.57,-9.68 -17.62,-14.15 -1.62,-1.19 -4.64,-1.77 -6.49,-1.12 -13.3,4.67 -26.47,9.701 -37.89,18.361 -1.04,0.779 -2.939,0.42 -4.43,0.58 0,-2.33 -0.96,-5.74 0.2,-6.811 0.06,-0.051 0.109,-0.1 0.17,-0.15 1.08,0 2.13,-0.039 2.819,-0.56 6.08,-4.61 12.63,-8.23 19.44,-11.32 0.85,-0.35 1.7,-0.7 2.54,-1.05 1.72,-0.73 3.46,-1.48 5.18,-2.22 0.061,-0.03 0.13,-0.06 0.19,-0.08 4.05,-1.6 8.17,-3.08 12.29,-4.53 1.71,-0.6 4.399,-0.19 6.16,0.78 l 0.01,0.01 c 1.55,1.14 3.099,2.29 4.63,3.47 0.02,0 0.03,0.02 0.05,0.03 4.84,3.82 9.51,7.87 14.36,11.68 0.49,0.39 1.13,0.73 1.81,0.96 1.121,1.041 2.091,2.33 3.331,3.66 z"
     fill="#730127"
     clip-rule="evenodd"
     fill-rule="evenodd" /><path
     style="stroke-width:0.201167"
     id="path770"
     d="m 934.85959,202.02871 c -1.034,1.606 -1.562,3.29 -2.413,3.514 -1.042,0.263 -2.595,-0.321 -3.507,-1.12 -5.2,-4.536 -10.146,-9.422 -15.452,-13.772 -1.42,-1.158 -4.068,-1.723 -5.691,-1.09 -11.663,4.545 -23.213,9.441 -33.228,17.871 -0.912,0.759 -2.578,0.409 -3.885,0.564 0,-2.268 -0.842,-5.587 0.176,-6.628 0.052,-0.049 0.096,-0.097 0.148,-0.146 0.947,0 1.868,-0.039 2.473,-0.544 5.332,-4.487 11.076,-8.011 17.049,-11.019 0.745,-0.341 1.491,-0.681 2.228,-1.021 1.508,-0.711 3.034,-1.441 4.541,-2.161 0.055,-0.029 0.115,-0.059 0.168,-0.078 3.552,-1.557 7.165,-2.998 10.777,-4.409 1.5,-0.584 3.859,-0.185 5.402,0.759 l 0.009,0.01 c 1.358,1.109 2.719,2.229 4.061,3.377 0.017,0 0.026,0.02 0.044,0.029 4.244,3.718 8.34,7.66 12.594,11.369 0.43,0.379 0.99,0.71 1.586,0.935 0.981,1.01 1.832,2.266 2.92,3.56 z"
     fill="#730127"
     clip-rule="evenodd"
     fill-rule="evenodd" /><path
     style="stroke-width:0.201167"
     id="path772"
     d="m 1024.4396,431.24171 c -0.446,11.24 -0.909,22.48 -1.604,33.702 -0.12,1.993 -1.295,3.888 -2.257,6.592 -3.964,-5.486 -8.503,-8.25 -13.935,-8.94 -5.088,-0.642 -10.34001,-1.215 -15.23201,-1.797 0.256,-2.553 6.588,-0.771 11.45301,-0.157 5.19,0.66 13.234,2.397 17.027,7.647 -0.199,-0.276 0.287,-3.365 0.287,-3.789 0.026,-2.675 -0.066,-5.35 -0.16,-8.014 -0.189,-5.586 0.516,-10.49 0.371,-16.076 -0.069,-2.586 -0.734,-5.853 -0.811,-8.428 -0.129,-4.146 -2.409,-6.859 -4.4,-10.047 -3.768,-6.039 -7.566,-12.06 -11.377,-18.06 -1.492,-2.349 -0.48,-5.98 1.58,-7.382 0.79,-0.533 2.764,0.346 5.123,1.865 -0.369,0.108 -0.765,0.307 -1.185,0.582 -2.153,1.461 -2.763,3.207 -1.201,5.665 5.08,8.043 10.151,16.086 15.196,24.149 0.481,0.762 1.159,1.679 1.125,2.488 z"
     fill="#730127"
     clip-rule="evenodd"
     fill-rule="evenodd" /><path
     style="stroke-width:0.201167"
     id="path774"
     d="m 807.83359,195.55471 c -1.425,1.345 -10.818,7.723 -14.74,12.921 -3.649,4.83 -4.288,11.585 -2.916,17.295 -1.424,1.568 -2.883,3.126 -4.381,4.665 -0.252,-7.461 -2.191,-14.788 2.998,-21.65 4.1,-5.439 7.224,-11.498 10.926,-17.199 1.09,-1.684 2.557,-3.193 4.057,-4.606 1.478,-1.384 4.026,-1.479 1.709,-3.569 -1.195,-1.094 -2.685,-1.414 -4.226,-0.414 h -0.01 c -0.2,0 -0.388,-1.212 -0.588,-1.231 3.229,-1.8 6.092,-3.635 6.847,-2.948 2.212,2.001 1.74,15.409 0.324,16.736 z"
     fill="#730127"
     clip-rule="evenodd"
     fill-rule="evenodd" /><path
     style="stroke-width:0.201167"
     id="path776"
     d="m 880.49759,164.74571 c -2.404,7.85 -11.074,10.85 -18.339,11.05 -9.272,0.25 -15.796,-5.13 -21.584,-11.96 -0.911,-1.07 -10.608,-13.64 -10.055,-14.09 -11.362,9.24 -23.476,18.5 -36.687,9.19 -3.89,13.53 -2.563,12.71 -3.395,27.31 0.812,-0.7 4.602,-3.58 8.402,-6.07 -0.04,0.05 -0.089,0.09 -0.129,0.13 -3.127,3.05 -6.195,6.19 -9.303,9.26 -0.584,0.58 -1.237,1.09 -2.93,2.54 0.871,-15.27 -1.178,-29.52 2.89,-43.67 13.815,9.74 28.878,4.56 40.765,-5.11 4.858,7.88 10.529,14.96 18.565,19.85 7.749,4.72 16.161,4.51 24.513,3.41 3.516,-0.46 5.512,-3.16 6.789,-7.32 0.755,-2.468 1.032,-9.966 1.229,-11.364 0.13,5.97 0.862,11.644 -0.731,16.844 z"
     fill="#730127"
     clip-rule="evenodd"
     fill-rule="evenodd" /><path
     style="stroke-width:0.201167"
     id="path816"
     d="m 990.25959,467.08571 c -1.88,3.99 -3.761,7.99 -5.71,12.141 -1.92,-3.11 -2.09,-7.521 0.06,-10.131 1.169,-1.409 3.28,-2.04 4.97,-3.02 0.23,0.34 0.45,0.67 0.68,1.01 z"
     fill="#e7795a"
     clip-rule="evenodd"
     fill-rule="evenodd" /><path
     style="stroke-width:0.201167"
     id="path818"
     d="m 1029.9396,371.02471 c -2.92,-15.379 -5.71,-30.789 -8.64,-46.159 -2.051,-10.75 -5.141,-21.37 -6.15,-32.2 -1.54,-16.42 -1.25,-33.01 -2.56,-49.46 -1.11,-13.95 -3.23,-27.83 -5.19,-41.7 -1.54,-10.83 -4.35,-21.29 -9.08001,-31.29 -2.26,-4.78 -3.26,-10.2 -4.53,-15.41 -2.06,-8.51 -3.229,-17.29 -5.909,-25.6 -5.021,-15.6 -24.381,-25.66 -40.66,-22.57 -7.971,1.51 -12.941,5.69 -14.431,13.25 -1.05,5.34 -0.67,10.98 -0.779,16.49 -0.11,5.41 -3.99,12.18 -8.95,13.51 -2.35,0.62 -6.17,-0.02 -7.79,-1.63 -10.37,-10.31 -9.841,-29.11 5.93,-38.48 10.19,-6.04 20.771,-11.46 30.67,-17.92 8.42,-5.49 16.36,-11.81 24.07,-18.28 4.53,-3.8 4.4,-9.4 1.06,-14.2 -3.449,-4.96 -8.3,-8.33 -13.939,-9.12 -6.82,-0.96 -13.92,-0.94 -20.8,-0.26 -14.29,1.42 -26.811,7.78 -37.061,17.41 -19.64,18.44 -29.46,41.37 -29.489,68.59 -0.011,7.63 -2.211,15.27 -3.631,22.86 -0.21,1.15 -1.659,2.99 -2.5,2.97 -4.189,-0.09 -8.93,0.45 -12.449,-1.31 -12.95,-6.48 -21.061,-17.55 -25.17,-31.18 -3.15,-10.44 -11.171,-15.79 -21.33,-11.52 -0.701,0.29 -1.4,0.6 -2.091,0.93 -1.329,0.62 -2.649,1.3 -3.939,2.02 -0.01,0.01 -0.01,0.01 -0.01,0.01 -1.221,0.67 -2.431,1.2 -3.63,1.93 -0.011,0 -0.011,0.01 -0.021,0.02 -1.229,0.75 -2.47,2.15 -3.68,2.26 -0.05,0.01 -0.101,0.01 -0.15,0.01 h -0.01 c -2.25,2 -4.47,3.19 -6.69,4.71 -2.399,1.63 -4.131,4.65 -5.609,7.29 -5.391,9.63 -6.28,20.41 -6.45,31.07 -0.39,24.2 0.01,48.44 -0.41,72.64 -0.22,12.271 -1.63,24.521 -2.27,36.78 -0.19,3.63 0.5,7.289 0.59,10.949 0.25,11.211 -0.29,22.5 0.75,33.641 1.899,20.43 5.989,40.55 12.359,60.05 4.62,14.13 10.391,27.899 15.841,41.75 4.539,11.54 9.39,22.96 14.029,34.46 4.061,10.04 7.74,20.23 12.09,30.13 6.391,14.57 17.37,21.63 33.65,19.221 5.53,-0.82 10.41,-2.761 14.09,-7.16 8.34,-9.94 9.82,-19.71 3.57,-32.971 -0.76,-1.6 -1.22,-3.34 -1.811,-5.01 0.721,-0.31 1.449,-0.609 2.181,-0.92 1.149,2.44 2.75,4.771 3.34,7.34 0.79,3.4 2.1,5.91 5.49,7.28 3.79,1.54 7.399,3.51 11.189,5.04 17.07,6.88 34.33,11.81 52.521,3.99 8.609,-3.7 16.68,-7.65 18.22,-18.681 0.64,-4.56 3.35,-8.819 5.13,-13.22 2.21,5.07 0.22,9.34 -1.5,13.62 -3.46,8.6 1.36,22.3 9.89,25.04 7.14,2.3 15.03001,3.51 21.97101,-1.22 3.43,-2.351 6.55,-5.271 9.41,-8.311 7.439,-7.89 12.229,-17.04 12.279,-28.2 0.061,-11.14 -0.689,-22.35 0.36,-33.39 1.569,-16.758 1.769,-33.328 -1.371,-49.889 z m -60.75001,-255.169 c 3.14,2.92 6.36,5.76 9.3,8.87 0.38,0.39 -0.38,2.56 -1.18,3.22 -1.85,1.55 -4.05,2.67 -7.021,4.55 -0.069,-0.43 -0.14,-0.85 -0.21,-1.27 -0.729,-4.5 -1.359,-8.39 -1.97,-12.18 -0.11,-0.7 -0.229,-1.39 -0.34,-2.09 0.471,-0.37 0.951,-0.74 1.421,-1.1 z m -5.01,0.82 c 0.41,4.65 1.04,9.31 2.09,13.85 0.53,2.27 -0.01,3.4 -1.44,4.1 -0.67,0.32 -1.529,0.55 -2.56,0.76 -1.56,-6.94 -3.09,-13.75 -4.68,-20.87 -0.23,-0.97 -0.45,-1.96 -0.67,-2.95 5.05,-0.39 6.91,1.19 7.26,5.11 z m -14.24,-5.13 c 3.09,-0.64 3.62,1.03 3.989,2.88 0.081,0.37 0.161,0.76 0.241,1.13 1.52,6.69 2.979,13.39 4.52,20.35 -1.761,0.49 -3.12,0.84 -4.19,0.99 -3.31,0.47 -3.829,-0.97 -4.829,-6.05 -0.9,-4.58 -2.051,-9.11 -3.171,-13.64 -0.77,-3.11 -0.04,-4.94 3.44,-5.66 z m -10.91,18.76 c 0.49,-4.57 1.181,-9.12 1.79,-13.68 0.76,0.01 1.521,0.02 2.28,0.02 1.26,6.47 2.53,12.93 3.85,19.65 -6.08,0.94 -8.45,-1.06 -7.92,-5.99 z m 17.74,-48.54 c -0.33,0.25 -0.66,0.5 -0.991,0.74 -0.639,0.48 -1.299,0.96 -1.959,1.43 -0.109,0.08 -0.229,0.17 -0.35,0.25 -0.23,0.17 -0.471,0.33 -0.7,0.49 -0.72,0.51 -1.44,1.01 -2.16,1.49 -0.39,0.28 -0.79,0.54 -1.181,0.8 -0.909,0.6 -1.819,1.2 -2.739,1.79 -0.49,0.32 -0.979,0.62 -1.47,0.93 -0.491,0.31 -0.98,0.61 -1.48,0.92 -0.38,0.24 -0.76,0.47 -1.14,0.71 -0.68,0.41 -1.36,0.82 -2.05,1.22 -0.021,0.01 -0.04,0.02 -0.061,0.04 -1.01,0.6 -2.029,1.2 -3.061,1.78 -0.789,0.46 -1.579,0.91 -2.369,1.35 -0.07,0.04 -0.15,0.08 -0.22,0.12 -0.95,0.54 -1.9,1.06 -2.851,1.58 -0.02,0.02 -0.04,0.03 -0.069,0.04 -1.181,0.65 -2.37,1.29 -3.561,1.93 -1.03,0.56 -2.07,1.11 -3.11,1.66 -1.369,0.73 -2.75,1.45 -4.13,2.17 -1.21,0.64 -2.42,1.27 -3.63,1.89 -1.2,0.63 -2.39,0.9 -3.59,1.88 -0.01,0 -0.02,0.01 -0.03,0.02 h -0.01 c -0.51,0 -1.02,0.54 -1.53,0.81 16.37,-14.52 35.25,-25.05 54.71,-34.65 -3.288,3.08 -6.718,5.94 -10.268,8.61 z m 15.46,-18.14 c -0.78,1.23 -1.28,2.97 -2.4,3.61 -1.119,0.64 -2.239,1.27 -3.359,1.9 -4.86,2.73 -9.74,5.41 -14.61,8.1 -1.16,0.65 -2.33,1.3 -3.5,1.95 -0.581,0.33 -1.16,0.65 -1.74,0.97 -0.58,0.32 -1.159,0.65 -1.75,0.98 -2.39,1.34 -4.77,2.7 -7.149,4.07 -4.53,2.63 -8.601,6.04 -12.931,9.01 -4.56,3.14 -9.13,6.27 -13.829,9.19 -0.101,0.06 -0.211,0.24 -0.32,0.3 -0.01,0.01 -0.03,0.02 -0.04,0.02 -0.12,0.05 -0.26,0.27 -0.4,0.27 -0.01,0 -0.01,0 -0.02,0 -0.08,0 -0.15,-0.12 -0.23,-0.11 -0.109,0.02 -0.21,-0.05 -0.33,-0.04 -0.1,0.02 -0.26,-0.02 -0.35,-0.02 -0.69,0.03 -1.22,-0.06 -2.1,-0.02 -0.021,0.11 -0.04,0.19 -0.07,0.19 h -0.372 v -0.18 -0.01 c 0,0 0,0 0,-0.01 0,-0.14 0.275,-0.32 0.314,-0.41 0.28,-0.96 0.543,-2.07 0.993,-2.84 0.02,-0.05 0.081,-0.1 0.11,-0.15 0.041,-0.07 0.096,-0.13 0.146,-0.19 0.04,-0.07 0.107,-0.14 0.168,-0.2 0.05,-0.05 0.144,-0.13 0.204,-0.18 1.67,-1.25 3.342,-2.52 5.002,-3.78 l 0.011,-0.01 c 1.67,-1.25 3.34,-2.5 5.02,-3.74 0.211,-0.15 0.411,-0.3 0.621,-0.45 0.021,-0.01 0.03,-0.02 0.05,-0.04 0.311,-0.21 0.62,-0.43 0.931,-0.66 0.52,-0.38 1.05,-0.75 1.58,-1.12 0.43,-0.3 0.85,-0.59 1.279,-0.88 0.65,-0.44 1.301,-0.88 1.95,-1.31 0.43,-0.28 0.87,-0.56 1.311,-0.84 0.869,-0.55 1.76,-1.1 2.649,-1.62 3.23,-1.91 6.49,-3.78 9.76,-5.63 1.641,-0.92 3.28,-1.84 4.92,-2.75 3.28,-1.82 6.58,-3.62 9.881,-5.41 2.47,-1.35 4.949,-2.69 7.43,-4.04 2.479,-1.34 4.95,-2.69 7.42,-4.05 0.73,-0.4 1.59,-0.57 2.39,-0.84 0.46,0.32 0.909,0.65 1.36,0.97 z m -8.43,-6.59 c 1.739,-0.12 3.569,1.06 5.35,1.65 -0.03,0.53 -0.06,1.06 -0.09,1.59 -1.72,0.92 -3.42,1.72 -5.14,2.72 h -0.011 c -0.02,0.01 -0.05,0.02 -0.069,0.04 -4.28,1.99 -8.54,4.59 -12.811,6.88 -15.819,8.49 -31.55,17.14 -45.22,28.93 -0.07,0.06 -0.14,0.12 -0.2,0.18 0,0 -0.01,0.01 -0.02,0.01 -0.07,0.03 -0.396,0.04 -0.415,0.07 -0.03,0.03 -0.445,0.05 -0.445,0.07 v 0.01 c 0,0.01 0.285,0.03 0.285,0.05 0,0.01 0.122,0.02 0.122,0.03 -0.09,0.06 -0.078,0.13 -0.169,0.19 -0.13,0.08 -0.234,0.16 -0.354,0.23 -0.091,0.05 -0.173,0.1 -0.263,0.15 -0.05,0.02 -0.096,0.04 -0.136,0.06 -0.04,0.02 -0.078,0.04 -0.128,0.05 -0.04,0.02 -0.09,0 -0.129,0.02 -0.062,0.02 -0.109,0.03 -0.17,0.03 h -0.011 c -0.009,0 -0.009,0.04 -0.019,0.04 -0.12,0.03 -0.25,0.07 -0.37,0.08 -0.24,0.03 -0.47,-0.01 -0.69,-0.04 -0.06,-0.01 -0.109,-0.08 -0.17,-0.08 h -0.04 c -0.05,0 -0.1,0.04 -0.16,0.02 -0.069,-0.01 -0.149,-0.01 -0.229,-0.04 -0.08,-0.02 -0.15,-0.04 -0.23,-0.06 -0.069,-0.04 -0.14,-0.07 -0.21,-0.1 -0.22,-0.1 -0.42,-0.23 -0.63,-0.37 -0.14,-0.09 -0.28,-0.2 -0.42,-0.32 -0.03,-0.03 -0.07,-0.06 -0.11,-0.09 -0.109,-0.08 -0.21,-0.17 -0.319,-0.26 -0.21,-0.19 -0.42,-0.38 -0.641,-0.58 -1.97,-1.83 -1.489,-3.51 0.221,-5.27 14.59,-14.99 31.27,-26.9 51.08,-33.93 4.061,-1.43 8.611,-1.66 12.961,-1.96 z m -9.36,-2.38 c -0.65,0.2 -1.3,0.4 -1.94,0.61 -0.819,0.26 -1.63,0.56 -2.439,0.85 -0.05,0.02 -0.09,0.02 -0.14,0.02 -0.181,-0.01 -0.37,-0.14 -0.561,-0.14 h -0.01 c -0.101,0 -0.19,0.23 -0.29,0.27 -0.01,0 -0.021,0.1 -0.021,0.1 0,0 -0.01,0.04 -0.01,0.05 -0.03,0.02 -0.05,0.04 -0.069,0.06 0,0.01 -0.011,0.01 -0.011,0.01 -0.029,0.03 -0.05,0.06 -0.08,0.09 0,0.01 -0.01,0.01 -0.02,0.02 -0.071,0.1 -0.14,0.23 -0.22,0.4 h -0.011 c -0.59,0 -1.18,0.24 -1.76,0.46 -0.59,0.23 -1.17,0.36 -1.75,0.6 -0.57,0.23 -1.149,0.42 -1.72,0.66 -0.58,0.24 -1.15,0.46 -1.71,0.71 -1.74,0.78 -3.45,1.58 -5.141,2.43 -0.52,0.26 -1.04,0.53 -1.55,0.8 -1.67,0.88 -3.33,1.79 -4.95,2.74 -0.61,0.35 -1.22,0.71 -1.819,1.08 -0.441,0.26 -0.88,0.53 -1.32,0.81 -0.57,0.36 -1.14,0.72 -1.7,1.08 -0.39,0.24 -0.771,0.49 -1.149,0.75 -4.21,2.77 -8.301,5.79 -12.29,9.02 l -1.471,1.2 c -0.97,0.8 -1.949,1.62 -2.909,2.45 -0.16,0.14 -0.32,0.28 -0.48,0.41 -0.79,0.69 -1.58,1.38 -2.37,2.08 -0.03,0.02 -0.06,0.05 -0.09,0.07 -0.79,0.71 -1.58,1.42 -2.37,2.14 -1.1,1 -2.189,2.02 -3.28,3.05 -1.229,1.16 -2.449,2.34 -3.67,3.53 9.741,-22.81 34.971,-39.57 59.321,-38.41 z m -133.69,70.99 c 0.83,5.45 2.341,10.81 2.87,16.27 0.141,1.46 -2.25,3.17 -3.47,4.76 -0.58,-0.2 -1.16,-0.4 -1.75,-0.6 -1.24,-7.88 -2.49,-15.76 -3.77,-23.9 4.01,-0.74 5.63,0.22 6.12,3.47 z m -11.01,-1.78 c 0.37,-0.35 0.74,-0.72 1.101,-1.12 0.81,3.4 1.35,5.3 1.699,7.24 0.801,4.44 1.37,8.92 2.261,13.33 0.91,4.52 0.34,5.34 -5.551,5.78 -0.34,-2.55 -0.71,-5.11 -1.06,-7.68 -0.64,-4.57 -1.24,-9.16 -1.62,-13.77 -0.07,-1 1.48,-2.15 3.17,-3.78 z m -7.88,5.01 c 0.34,-0.12 0.72,-0.21 1.13,-0.28 1.09,7.23 2.12,14.11 3.16,21.03 -4.96,1.51 -5.47,1.19 -6.12,-3.95 -0.13,-1.03 -0.28,-2.07 -0.42,-3.1 -0.37,-2.59 -0.75,-5.17 -1.01,-7.76 -0.28,-2.71 0.32,-5 3.26,-5.94 z m -10.29,10.81 c 0.73,-1.33 1.83,-2.83 3.34,-4.52 0.271,-0.32 0.57,-0.64 0.88,-0.97 0.471,5.35 0.87,9.89 1.28,14.62 -5.93,-1.7 -8.16,-4.31 -5.5,-9.13 z m 51.08,350.45 c -0.02,-1.72 2.97,-3.62 4.85,-5.09 0.311,-0.25 2.521,1.01 2.961,1.98 1.969,4.33 3.609,8.8 5.539,13.63 -5.92,0.08 -13.3,-5.49 -13.35,-10.52 z m 15.21,7.27 c -1.62,-4.8 -4,-9.34 -6.37,-14.7 2.7,-0.71 4.75,-1.26 6.62,-1.75 2.61,6.76 5.061,13.1 7.601,19.66 -3.401,1.27 -6.231,1.58 -7.851,-3.21 z m 12.79,3.47 c -0.47,-0.1 -0.939,-0.21 -1.4,-0.31 -2.739,-6.48 -5.479,-12.95 -8.449,-19.98 2.66,-0.46 4.449,-0.78 6,-1.05 1.91,5.97 3.859,11.56 5.38,17.25 0.309,1.14 -0.981,2.72 -1.531,4.09 z m 4.33,-5.71 c -1.15,-2.939 -2.25,-5.29 -2.96,-7.75 -0.72,-2.47 -1.05,-5.06 -1.78,-8.8 2.07,0.61 4.08,0.58 4.771,1.51 3.569,4.82 3.669,10.81 -0.031,15.04 z m 107.88,-28.07 c 1.17,-1.409 3.28,-2.04 4.97,-3.02 0.23,0.34 0.449,0.67 0.681,1.01 -1.88,3.99 -3.761,7.99 -5.71,12.141 -1.921,-3.111 -2.091,-7.521 0.059,-10.131 z m 4.74,5.67 c 3.29,-7.84 4.5,-8.819 9.66,-7.409 -2.75,6.55 -5.37,12.81 -7.971,19.02 -4.259,-2.461 -4.619,-4.621 -1.689,-11.611 z m 9,13.86 c -0.68,1.03 -3.16,0.86 -6.05,1.54 3.51,-7.689 6.3,-14.02 9.3,-20.25 1.39901,-2.92 2.22001,-2.93 8.78001,-0.97 -4.1,6.83 -7.86,13.39 -12.03001,19.68 z m 5.42001,1.2 c -0.03,-5.91 8.69,-18.51 13.27,-18.41 -5.69,5.62 -6.48,13.47 -13.27,18.41 z m 11.29,-6.92 c -0.42,-0.28 -0.83,-0.561 -1.24,-0.84 1.57,-2.471 3.141,-4.931 4.72,-7.391 0.551,0.38 1.091,0.761 1.64,1.141 -1.71,2.36 -3.42,4.72 -5.12,7.09 z m 12.44,-69.91 c -2.76,-2.561 -5.35,-4.91 -7.829,-7.221 -0.011,-0.01 -0.021,-0.01 -0.021,-0.02 -1.58,-1.47 -3.13,-2.939 -4.65,-4.42 -1.51,-1.49 -2.949,-2.439 -4.8,-1.949 -0.43,0.109 -0.89,0.31 -1.38,0.59 -2.51,1.479 -3.22,3.25 -1.399,5.74 5.92,8.149 11.829,16.299 17.71,24.469 0.56,0.771 1.35,1.701 1.31,2.521 -0.52,11.39 -1.06,22.78 -1.87,34.15 -0.14,2.02 -1.51,3.939 -2.63,6.68 -4.62,-5.56 -9.911,-8.36 -16.24,-9.06 -5.93001,-0.65 -11.80501,-1.23 -17.50501,-1.82 -0.311,-1.932 -0.809,-3.826 -1.186,-5.745 -0.701,-3.569 0.447,-10.196 -4.592,-11.165 -1.625,-0.313 -4.041,1.43 -4.691,2.87 -2.85,6.239 -5.828,12.46 -7.738,19.01 -2.061,7.12 -6.829,10.54 -13.09,13.46 -9.129,4.24 -18.318,3.86 -27.758,2.141 -2.15,-0.391 -4.351,-0.521 -6.521,-0.761 -9.39,-1.06 -17.27,-5.95 -25.159,-10.5 -1.83,-1.05 -2.351,-4.46 -3.351,-6.83 -1.55,-3.63 -3.35,-7.13 -7.85,-7.319 -4.36,-0.2 -8.25,1.109 -10.17,5.17 -0.15,0.3 -0.28,0.62 -0.4,0.96 -0.59,1.649 -0.44,3.88 0.16,5.55 0.49,1.36 1.17,2.64 1.92,3.96 0.67,1.15 1.39,2.33 2.08,3.61 -13.86,1.489 -27.54,1.54 -38.71,11.85 -1.76,-3.15 -3.271,-5.84 -4.36,-7.78 4.23,-7.489 8.15,-14.39 12.01,-21.31 1.21,-2.17 2.561,-4.33 3.28,-6.68 0.53,-1.711 0.12,-3.711 0.13,-5.58 -2.16,0.369 -4.97,0.01 -6.35,1.25 -3.311,2.959 -6.13,6.49 -9.01,9.91 -0.03,0.029 -0.051,0.069 -0.091,0.109 -0.21,0.24 -0.409,0.47 -0.609,0.71 -0.68,0.8 -1.33,1.63 -2,2.54 -0.79,1.07 -1.63,2.25 -2.611,3.57 -0.699,-1.65 -1.419,-2.851 -1.709,-4.141 -3.28,-14.439 -10.57,-27.199 -16.609,-40.5 -1.971,-4.34 -2.94,-9.529 -2.9,-14.31 0.14,-13.81 2.74,-27.26 6.62,-40.51 0.37,-1.271 0.78,-3.45 -0.141,-4.729 -0.02,-0.031 -0.04,-0.051 -0.06,-0.091 0,-0.479 -0.11,-0.819 -0.34,-0.909 -2.68,-1.07 -5.271,-0.15 -6.7,2.989 -2.52,5.54 -4.89,11.05 -7.84,16.681 -0.04,0.08 -0.08,0.159 -0.12,0.25 0,0.029 0.06,0.039 0.05,0.069 -0.7,1.511 -1.359,3.03 -2.08,4.56 -0.38,-0.619 -1.01,-1.31 -1.229,-2.14 -1.88,-7.05 -3.891,-14.08 -5.4,-21.21 -0.62,-2.92 -0.38,-6.109 -0.03,-9.12 1.261,-10.899 3.79,-21.46 8.41,-31.521 2.681,-5.84 4.8,-11.949 6.83,-18.049 0.141,-0.4 0.21,-0.92 0.23,-1.461 0.069,-1.47 -0.261,-3.17 -0.87,-3.449 -2.2,-1.03 -4.69,-0.95 -6.38,1.85 -3.521,5.82 -7.21,11.54 -10.88,17.27 -0.74,1.17 -1.49,2.33 -2.23,3.5 -0.37,0.58 -0.77,1.141 -2.2,1.621 -0.26,-8.811 -0.58,-17.61 -0.739,-26.42 -0.141,-7.92 -0.04,-15.841 -0.19,-23.761 -0.06,-2.83 0.32,-4.92 2.53,-7.319 2.3,-2.49 2.77,-6.58 4.31,-9.84 4.94,-10.431 10.01,-20.801 15.03,-31.201 0.899,-1.84 2.42,-3.64 2.54,-5.53 0.099,-1.76 -0.83,-4.11 -2.13,-5.28 -0.051,-0.05 -0.11,-0.09 -0.16,-0.13 -1.69,-1.38 -3.38,-0.45 -4.851,1.59 -3.261,4.51 -6.699,8.9 -10.34,13.2 -1.359,1.62 -2.75,3.229 -4.18,4.819 -0.241,-7.709 -2.091,-15.279 2.86,-22.37 3.909,-5.62 6.89,-11.88 10.42,-17.77 1.04,-1.74 2.439,-3.3 3.87,-4.76 1.409,-1.43 3.84,-2.74 1.63,-4.9 -0.871,-0.85 -1.62,-1.79 -2.891,-2.01 -0.229,-0.04 -0.449,-0.07 -0.68,-0.07 -0.18,-0.01 -0.36,0.005 -0.54,0.055 -0.16,0.04 -0.979,0.385 -1.911,1.385 -1.279,1 -2.769,2.265 -3,2.515 -0.289,0.31 -0.579,0.612 -0.879,0.913 -1.34,1.32 -2.67,2.651 -4.01,3.971 -0.73,0.73 -1.461,1.451 -2.2,2.171 -0.59,0.58 -1.25,1.09 -2.96,2.54 0.88,-15.27 -1.19,-29.52 2.92,-43.669 13.96,9.74 29.18,4.56 41.19,-5.11 4.909,7.88 10.64,14.96 18.76,19.85 7.829,4.72 16.329,4.51 24.77,3.41 3.551,-0.46 5.57,-3.16 6.86,-7.32 0.35,-1.13 0.94,-6.79 1.53,-13.36 0.01,-0.02 0.01,-0.04 0.01,-0.06 0.72,-7.98 1.46,-17.28 1.81,-21.46 0.101,-1.21 0.17,-1.99 0.19,-2.18 0.87,-6.24 2.58,-12.37 4.91,-18.22 1.06,-2.65 1.96,-5.88 2.749,-8.88 6.171,4.91 11.241,9.01 16.391,13 2.38,1.84 2.609,3.43 0.44,5.73 -9.36,9.91 -9.9,24.16 -1.91,34.61 4.42,5.78 10.17,8.22 16.89,7 7.32,-1.34 12.61,-6.13 15.24,-13.19 0.93,-2.49 1.73,-3.83 4.53,-3.16 13.22,3.15 24.689,-1.32 35.609,-8.22 0.591,-0.37 1.261,-0.61 1.53,-0.74 5.38,18.49 10.71,36.83 16.08,55.28 -8.34,-3.55 -15.43,-12.38 -27.1,-6.42 2.75,2.17 5.02,3.86 7.17,5.69 7.89,6.68 15.739,13.4 23.59,20.12 0.41001,0.35 0.93001,0.81 1.00001,1.28 1.08,7.59 2.109,15.19 2.149,23.28 -1.729,-1.65 -3.35001,-3.42 -5.18901,-4.91 -4.78,-3.86 -9.61,-7.64 -14.5,-11.34 -2.521,-1.91 -5.071,-1.36 -7.101,0.83 -2.189,2.37 -0.02,3.83 1.37,5.53 9.4,11.59 18.761,23.19 28.03001,34.879 0.82,1.031 1.18,2.67 1.19,4.031 0.1,9.639 0.05,19.289 0.05,29.939 -2.73,-2.4 -5.15,-4.85 -7.89101,-6.85 -2.97,-2.181 -5.949,-4.381 -8.989,-6.48 -0.03,-0.02 -0.061,-0.04 -0.09,-0.061 -2.78,-1.92 -5.62,-3.739 -8.561,-5.379 -0.47,-0.261 -1.16,-0.141 -1.96,0.189 -1.55,0.6 -3.5,1.95 -5.08,2.63 0.88,1.431 1.48,3.17 2.68,4.229 10.83,9.541 20.601,19.891 27.31101,32.871 1.229,2.369 3.31,4.34 5.16,6.34 5.959,6.449 5.85,15.039 8.18,22.76 0.53,1.74 0.64,3.59 1.129,6.48 -2.809,-2.82 -4.629,-5.07 -6.858,-6.791 -5.29,-4.1 -10.73,-8.02 -16.24001,-11.81 -1.08,-0.739 -2.891,-1.09 -4.141,-0.76 -1.54,0.409 -3.369,1.42 -4.069,2.72 -0.41,0.76 0.87,2.801 1.819,3.891 6.95,7.89 14.25001,15.479 20.91001,23.59 3.49,4.24 5.32,9.869 8.931,13.949 7.13,8.051 6.22,17.67 6.59,27.121 0.181,4.603 0.031,9.213 0.031,14.033 z"
     clip-rule="evenodd"
     fill-rule="evenodd" /></g><path
   sodipodi:nodetypes="cccccccccccc"
   id="path1316"
   d="M -31.0675,259.505 32.895,91.375 43.86,155.3375 577.49,0 619.5225,104.1675 1037.3383,42.861885 1260.0095,99.537509 1593.0604,29.075287 1823.845,237.575 1762.9146,-294.41952 -286.9175,-10.965 Z"
   style="fill:#fbfbfb;fill-opacity:1;stroke:#000000;stroke-width:12;stroke-linecap:round;stroke-linejoin:round;stroke-miterlimit:4;stroke-dasharray:12, 24;stroke-dashoffset:0;stroke-opacity:1" /></svg>
